Georama-iXCn-XLt.ufo
<glyph name="exclam" format="2">
  <advance width="113"/>
  <unicode hex="0021"/>
  <outline>
    <contour>
      <point x="46" y="264" type="line"/>
      <point x="64" y="264" type="line"/>
      <point x="139" y="740" type="line"/>
      <point x="121" y="740" type="line"/>
    </contour>
    <contour>
      <point x="1" y="10" type="curve" smooth="yes"/>
      <point x="0" y="2"/>
      <point x="1" y="0"/>
      <point x="12" y="0" type="curve" smooth="yes"/>
      <point x="28" y="0"/>
      <point x="28" y="1"/>
      <point x="31" y="24" type="curve" smooth="yes"/>
      <point x="32" y="33"/>
      <point x="29" y="34"/>
      <point x="19" y="34" type="curve" smooth="yes"/>
      <point x="5" y="34"/>
      <point x="4" y="33"/>
    </contour>
  </outline>
</glyph>
<glyph name="numbersign" format="2">
  <advance width="250"/>
  <unicode hex="0023"/>
  <outline>
    <contour>
      <point x="66" y="485" type="line"/>
      <point x="120" y="485" type="line"/>
      <point x="49" y="217" type="line"/>
      <point x="1" y="217" type="line"/>
      <point x="-3" y="199" type="line"/>
      <point x="44" y="199" type="line"/>
      <point x="-10" y="0" type="line"/>
      <point x="11" y="0" type="line"/>
      <point x="64" y="199" type="line"/>
      <point x="131" y="199" type="line"/>
      <point x="78" y="0" type="line"/>
      <point x="98" y="0" type="line"/>
      <point x="151" y="199" type="line"/>
      <point x="206" y="199" type="line"/>
      <point x="209" y="217" type="line"/>
      <point x="156" y="217" type="line"/>
      <point x="227" y="485" type="line"/>
      <point x="274" y="485" type="line"/>
      <point x="277" y="503" type="line"/>
      <point x="232" y="503" type="line"/>
      <point x="285" y="700" type="line"/>
      <point x="265" y="700" type="line"/>
      <point x="212" y="503" type="line"/>
      <point x="145" y="503" type="line"/>
      <point x="198" y="700" type="line"/>
      <point x="178" y="700" type="line"/>
      <point x="125" y="503" type="line"/>
      <point x="69" y="503" type="line"/>
    </contour>
    <contour>
      <point x="140" y="485" type="line"/>
      <point x="207" y="485" type="line"/>
      <point x="136" y="217" type="line"/>
      <point x="69" y="217" type="line"/>
    </contour>
  </outline>
</glyph>
<glyph name="quotesingle" format="2">
  <advance width="111"/>
  <unicode hex="0027"/>
  <outline>
    <contour>
      <point x="73" y="427" type="line"/>
      <point x="86" y="427" type="line"/>
      <point x="133" y="700" type="line"/>
      <point x="112" y="700" type="line"/>
    </contour>
  </outline>
</glyph>
<glyph name="parenright" format="2">
  <advance width="162"/>
  <unicode hex="0029"/>
  <outline>
    <contour>
      <point x="137" y="550" type="curve" smooth="yes"/>
      <point x="137" y="653"/>
      <point x="121" y="726"/>
      <point x="93" y="750" type="curve"/>
      <point x="82" y="731" type="line"/>
      <point x="105" y="710"/>
      <point x="119" y="646"/>
      <point x="119" y="558" type="curve" smooth="yes"/>
      <point x="119" y="360"/>
      <point x="37" y="-134"/>
      <point x="-67" y="-202" type="curve"/>
      <point x="-59" y="-220" type="line"/>
      <point x="57" y="-133"/>
      <point x="137" y="332"/>
    </contour>
  </outline>
</glyph>
<glyph name="plus" format="2">
  <advance width="340"/>
  <unicode hex="002B"/>
  <outline>
    <contour>
      <point x="129" y="72" type="line"/>
      <point x="148" y="72" type="line"/>
      <point x="181" y="279" type="line"/>
      <point x="302" y="279" type="line"/>
      <point x="305" y="298" type="line"/>
      <point x="184" y="298" type="line"/>
      <point x="217" y="506" type="line"/>
      <point x="198" y="506" type="line"/>
      <point x="165" y="298" type="line"/>
      <point x="43" y="298" type="line"/>
      <point x="40" y="279" type="line"/>
      <point x="162" y="279" type="line"/>
    </contour>
  </outline>
</glyph>
<glyph name="comma" format="2">
  <advance width="90"/>
  <unicode hex="002C"/>
  <outline>
    <contour>
      <point x="-2" y="34" type="line"/>
      <point x="-1" y="24"/>
      <point x="-1" y="13"/>
      <point x="-1" y="3" type="curve" smooth="yes"/>
      <point x="-1" y="-63"/>
      <point x="-35" y="-152"/>
      <point x="-81" y="-188" type="curve"/>
      <point x="-75" y="-203" type="line"/>
      <point x="-3" y="-149"/>
      <point x="18" y="-37"/>
      <point x="18" y="6" type="curve" smooth="yes"/>
      <point x="18" y="17"/>
      <point x="18" y="27"/>
      <point x="16" y="41" type="curve"/>
    </contour>
  </outline>
</glyph>
<glyph name="period" format="2">
  <advance width="90"/>
  <unicode hex="002E"/>
  <outline>
    <contour>
      <point x="-11" y="10" type="curve" smooth="yes"/>
      <point x="-12" y="2"/>
      <point x="-11" y="0"/>
      <point x="0" y="0" type="curve" smooth="yes"/>
      <point x="16" y="0"/>
      <point x="16" y="1"/>
      <point x="19" y="24" type="curve" smooth="yes"/>
      <point x="20" y="33"/>
      <point x="17" y="34"/>
      <point x="7" y="34" type="curve" smooth="yes"/>
      <point x="-7" y="34"/>
      <point x="-8" y="33"/>
    </contour>
  </outline>
</glyph>
<glyph name="slash" format="2">
  <advance width="190"/>
  <unicode hex="002F"/>
  <outline>
    <contour>
      <point x="-66" y="-210" type="line"/>
      <point x="-48" y="-210" type="line"/>
      <point x="253" y="740" type="line"/>
      <point x="235" y="740" type="line"/>
    </contour>
  </outline>
</glyph>
<glyph name="two" format="2">
  <advance width="250"/>
  <unicode hex="0032"/>
  <outline>
    <contour>
      <point x="-8" y="17" type="curve"/>
      <point x="-6" y="0" type="line"/>
      <point x="186" y="0" type="line"/>
      <point x="189" y="19" type="line"/>
      <point x="14" y="19" type="line"/>
      <point x="107" y="190"/>
      <point x="248" y="427"/>
      <point x="248" y="608" type="curve" smooth="yes"/>
      <point x="248" y="670"/>
      <point x="225" y="710"/>
      <point x="177" y="710" type="curve" smooth="yes"/>
      <point x="140" y="710"/>
      <point x="111" y="694"/>
      <point x="82" y="657" type="curve"/>
      <point x="92" y="644" type="line"/>
      <point x="126" y="680"/>
      <point x="143" y="691"/>
      <point x="174" y="691" type="curve" smooth="yes"/>
      <point x="211" y="691"/>
      <point x="229" y="657"/>
      <point x="229" y="601" type="curve" smooth="yes"/>
      <point x="228" y="440"/>
      <point x="98" y="209"/>
    </contour>
  </outline>
</glyph>
<glyph name="eight" format="2">
  <advance width="250"/>
  <unicode hex="0038"/>
  <outline>
    <contour>
      <point x="89" y="-10" type="curve" smooth="yes"/>
      <point x="177" y="-10"/>
      <point x="221" y="87"/>
      <point x="221" y="188" type="curve" smooth="yes"/>
      <point x="221" y="344"/>
      <point x="82" y="381"/>
      <point x="82" y="527" type="curve" smooth="yes"/>
      <point x="82" y="622"/>
      <point x="114" y="691"/>
      <point x="178" y="691" type="curve" smooth="yes"/>
      <point x="226" y="691"/>
      <point x="245" y="653"/>
      <point x="245" y="591" type="curve" smooth="yes"/>
      <point x="245" y="498"/>
      <point x="213" y="417"/>
      <point x="134" y="365" type="curve"/>
      <point x="145" y="354" type="line"/>
      <point x="227" y="405"/>
      <point x="264" y="491"/>
      <point x="264" y="591" type="curve" smooth="yes"/>
      <point x="264" y="664"/>
      <point x="240" y="710"/>
      <point x="179" y="710" type="curve" smooth="yes"/>
      <point x="101" y="710"/>
      <point x="63" y="629"/>
      <point x="63" y="521" type="curve" smooth="yes"/>
      <point x="63" y="373"/>
      <point x="202" y="340"/>
      <point x="202" y="186" type="curve" smooth="yes"/>
      <point x="202" y="95"/>
      <point x="164" y="9"/>
      <point x="90" y="9" type="curve" smooth="yes"/>
      <point x="36" y="9"/>
      <point x="12" y="47"/>
      <point x="12" y="120" type="curve" smooth="yes"/>
      <point x="12" y="223"/>
      <point x="45" y="323"/>
      <point x="134" y="373" type="curve"/>
      <point x="122" y="387" type="line"/>
      <point x="29" y="330"/>
      <point x="-8" y="229"/>
      <point x="-8" y="115" type="curve" smooth="yes"/>
      <point x="-8" y="33"/>
      <point x="21" y="-10"/>
    </contour>
  </outline>
</glyph>
<glyph name="less" format="2">
  <advance width="341"/>
  <unicode hex="003C"/>
  <outline>
    <contour>
      <point x="272" y="89" type="line"/>
      <point x="275" y="111" type="line"/>
      <point x="57" y="289" type="line"/>
      <point x="332" y="468" type="line"/>
      <point x="335" y="492" type="line"/>
      <point x="45" y="303" type="line"/>
      <point x="41" y="279" type="line"/>
    </contour>
  </outline>
</glyph>
<glyph name="greater" format="2">
  <advance width="341"/>
  <unicode hex="003E"/>
  <outline>
    <contour>
      <point x="302" y="276" type="line"/>
      <point x="306" y="300" type="line"/>
      <point x="74" y="490" type="line"/>
      <point x="71" y="468" type="line"/>
      <point x="290" y="290" type="line"/>
      <point x="15" y="112" type="line"/>
      <point x="11" y="87" type="line"/>
    </contour>
  </outline>
</glyph>
<glyph name="B" format="2">
  <advance width="260"/>
  <unicode hex="0042"/>
  <outline>
    <contour>
      <point x="-2" y="-6" type="line"/>
      <point x="20" y="-9"/>
      <point x="40" y="-10"/>
      <point x="60" y="-10" type="curve" smooth="yes"/>
      <point x="189" y="-10"/>
      <point x="228" y="135"/>
      <point x="228" y="236" type="curve" smooth="yes"/>
      <point x="228" y="306"/>
      <point x="201" y="343"/>
      <point x="161" y="356" type="curve"/>
      <point x="239" y="387"/>
      <point x="269" y="516"/>
      <point x="269" y="599" type="curve" smooth="yes"/>
      <point x="269" y="674"/>
      <point x="239" y="710"/>
      <point x="171" y="710" type="curve" smooth="yes"/>
      <point x="153" y="710"/>
      <point x="133" y="708"/>
      <point x="110" y="704" type="curve"/>
    </contour>
    <contour>
      <point x="76" y="364" type="line"/>
      <point x="127" y="688" type="line"/>
      <point x="143" y="691"/>
      <point x="158" y="692"/>
      <point x="171" y="692" type="curve" smooth="yes"/>
      <point x="224" y="692"/>
      <point x="250" y="663"/>
      <point x="250" y="591" type="curve" smooth="yes"/>
      <point x="250" y="504"/>
      <point x="206" y="364"/>
      <point x="125" y="364" type="curve" smooth="yes"/>
    </contour>
    <contour>
      <point x="73" y="345" type="line"/>
      <point x="135" y="345" type="line" smooth="yes"/>
      <point x="178" y="345"/>
      <point x="209" y="305"/>
      <point x="209" y="233" type="curve" smooth="yes"/>
      <point x="209" y="132"/>
      <point x="173" y="9"/>
      <point x="61" y="9" type="curve" smooth="yes"/>
      <point x="48" y="9"/>
      <point x="36" y="10"/>
      <point x="20" y="12" type="curve"/>
    </contour>
  </outline>
</glyph>
<glyph name="G" format="2">
  <advance width="258"/>
  <unicode hex="0047"/>
  <anchor x="126" y="0" name="bottom"/>
  <anchor x="228" y="700" name="top"/>
  <outline>
    <contour>
      <point x="135" y="-10" type="curve" smooth="yes"/>
      <point x="151" y="-10"/>
      <point x="169" y="-7"/>
      <point x="181" y="-3" type="curve"/>
      <point x="235" y="339" type="line"/>
      <point x="143" y="339" type="line"/>
      <point x="140" y="320" type="line"/>
      <point x="213" y="320" type="line"/>
      <point x="164" y="12" type="line"/>
      <point x="157" y="10"/>
      <point x="147" y="9"/>
      <point x="138" y="9" type="curve" smooth="yes"/>
      <point x="74" y="9"/>
      <point x="46" y="56"/>
      <point x="46" y="167" type="curve" smooth="yes"/>
      <point x="46" y="459"/>
      <point x="126" y="691"/>
      <point x="230" y="691" type="curve" smooth="yes"/>
      <point x="246" y="691"/>
      <point x="262" y="688"/>
      <point x="282" y="682" type="curve"/>
      <point x="289" y="700" type="line"/>
      <point x="276" y="705"/>
      <point x="255" y="710"/>
      <point x="233" y="710" type="curve" smooth="yes"/>
      <point x="112" y="710"/>
      <point x="27" y="482"/>
      <point x="27" y="166" type="curve" smooth="yes"/>
      <point x="27" y="42"/>
      <point x="58" y="-10"/>
    </contour>
  </outline>
</glyph>
<glyph name="L" format="2">
  <advance width="201"/>
  <unicode hex="004C"/>
  <anchor x="75" y="0" name="bottom"/>
  <anchor x="101" y="350" name="center"/>
  <anchor x="118" y="700" name="top"/>
  <anchor x="203" y="700" name="topright"/>
  <outline>
    <contour>
      <point x="-2" y="0" type="line"/>
      <point x="151" y="0" type="line"/>
      <point x="154" y="19" type="line"/>
      <point x="20" y="19" type="line"/>
      <point x="128" y="700" type="line"/>
      <point x="109" y="700" type="line"/>
    </contour>
  </outline>
</glyph>
<glyph name="N" format="2">
  <advance width="292"/>
  <unicode hex="004E"/>
  <anchor x="111" y="0" name="bottom"/>
  <anchor x="213" y="700" name="top"/>
  <outline>
    <contour>
      <point x="-1" y="0" type="line"/>
      <point x="18" y="0" type="line"/>
      <point x="120" y="654" type="line"/>
      <point x="184" y="0" type="line"/>
      <point x="206" y="0" type="line"/>
      <point x="317" y="700" type="line"/>
      <point x="298" y="700" type="line"/>
      <point x="197" y="49" type="line"/>
      <point x="133" y="700" type="line"/>
      <point x="109" y="700" type="line"/>
    </contour>
  </outline>
</glyph>
<glyph name="O" format="2">
  <advance width="296"/>
  <unicode hex="004F"/>
  <note>
8
</note>
  <anchor x="105" y="0" name="bottom"/>
  <anchor x="161" y="350" name="center"/>
  <anchor x="137" y="0" name="ogonek"/>
  <anchor x="221" y="700" name="top"/>
  <anchor x="88" y="700" name="topleft"/>
  <anchor x="263" y="700" name="topright"/>
  <outline>
    <contour>
      <point x="104" y="-10" type="curve" smooth="yes"/>
      <point x="219" y="-10"/>
      <point x="300" y="311"/>
      <point x="300" y="568" type="curve" smooth="yes"/>
      <point x="300" y="674"/>
      <point x="275" y="710"/>
      <point x="216" y="710" type="curve" smooth="yes"/>
      <point x="101" y="710"/>
      <point x="20" y="389"/>
      <point x="20" y="132" type="curve" smooth="yes"/>
      <point x="20" y="26"/>
      <point x="45" y="-10"/>
    </contour>
    <contour>
      <point x="105" y="8" type="curve" smooth="yes"/>
      <point x="57" y="8"/>
      <point x="39" y="36"/>
      <point x="39" y="132" type="curve" smooth="yes"/>
      <point x="39" y="383"/>
      <point x="121" y="692"/>
      <point x="215" y="692" type="curve" smooth="yes"/>
      <point x="263" y="692"/>
      <point x="281" y="664"/>
      <point x="281" y="568" type="curve" smooth="yes"/>
      <point x="281" y="317"/>
      <point x="199" y="8"/>
    </contour>
  </outline>
</glyph>
<glyph name="P" format="2">
  <advance width="244"/>
  <unicode hex="0050"/>
  <outline>
    <contour>
      <point x="-1" y="0" type="line"/>
      <point x="18" y="0" type="line"/>
      <point x="65" y="295" type="line"/>
      <point x="70" y="294"/>
      <point x="78" y="294"/>
      <point x="112" y="294" type="curve" smooth="yes"/>
      <point x="207" y="294"/>
      <point x="268" y="417"/>
      <point x="268" y="588" type="curve" smooth="yes"/>
      <point x="268" y="677"/>
      <point x="238" y="710"/>
      <point x="173" y="710" type="curve" smooth="yes"/>
      <point x="154" y="710"/>
      <point x="133" y="708"/>
      <point x="110" y="704" type="curve"/>
    </contour>
    <contour>
      <point x="127" y="687" type="line"/>
      <point x="140" y="690"/>
      <point x="153" y="691"/>
      <point x="170" y="691" type="curve" smooth="yes"/>
      <point x="225" y="691"/>
      <point x="249" y="665"/>
      <point x="249" y="583" type="curve" smooth="yes"/>
      <point x="249" y="432"/>
      <point x="194" y="313"/>
      <point x="112" y="313" type="curve" smooth="yes"/>
      <point x="98" y="313"/>
      <point x="83" y="314"/>
      <point x="68" y="315" type="curve"/>
    </contour>
  </outline>
</glyph>
<glyph name="Q" format="2">
  <advance width="296"/>
  <unicode hex="0051"/>
  <note>
14
</note>
  <outline>
    <contour>
      <point x="200" y="-180" type="curve" smooth="yes"/>
      <point x="213" y="-180"/>
      <point x="230" y="-179"/>
      <point x="246" y="-173" type="curve"/>
      <point x="242" y="-156" type="line"/>
      <point x="230" y="-160"/>
      <point x="215" y="-162"/>
      <point x="202" y="-162" type="curve" smooth="yes"/>
      <point x="160" y="-162"/>
      <point x="120" y="-138"/>
      <point x="121" y="0" type="curve"/>
      <point x="103" y="-2" type="line"/>
      <point x="102" y="-139"/>
      <point x="144" y="-180"/>
    </contour>
    <component base="O"/>
  </outline>
</glyph>
<glyph name="S" format="2">
  <advance width="228"/>
  <unicode hex="0053"/>
  <anchor x="55" y="0" name="bottom"/>
  <anchor x="191" y="700" name="top"/>
  <outline>
    <contour>
      <point x="253" y="696" type="line"/>
      <point x="238" y="705"/>
      <point x="217" y="710"/>
      <point x="194" y="710" type="curve" smooth="yes"/>
      <point x="120" y="710"/>
      <point x="70" y="644"/>
      <point x="70" y="530" type="curve" smooth="yes"/>
      <point x="70" y="408"/>
      <point x="165" y="294"/>
      <point x="165" y="167" type="curve" smooth="yes"/>
      <point x="165" y="76"/>
      <point x="118" y="10"/>
      <point x="52" y="10" type="curve" smooth="yes"/>
      <point x="23" y="10"/>
      <point x="4" y="14"/>
      <point x="-13" y="24" type="curve"/>
      <point x="-24" y="6" type="line"/>
      <point x="-9" y="-4"/>
      <point x="19" y="-10"/>
      <point x="48" y="-10" type="curve" smooth="yes"/>
      <point x="129" y="-10"/>
      <point x="185" y="64"/>
      <point x="185" y="172" type="curve" smooth="yes"/>
      <point x="185" y="293"/>
      <point x="90" y="405"/>
      <point x="90" y="532" type="curve" smooth="yes"/>
      <point x="90" y="631"/>
      <point x="133" y="692"/>
      <point x="191" y="692" type="curve" smooth="yes"/>
      <point x="214" y="692"/>
      <point x="226" y="689"/>
      <point x="243" y="680" type="curve"/>
    </contour>
  </outline>
</glyph>
<glyph name="V" format="2">
  <advance width="251"/>
  <unicode hex="0056"/>
  <outline>
    <contour>
      <point x="93" y="0" type="line"/>
      <point x="250" y="476"/>
      <point x="290" y="586"/>
      <point x="290" y="660" type="curve" smooth="yes"/>
      <point x="290" y="674"/>
      <point x="289" y="685"/>
      <point x="286" y="700" type="curve"/>
      <point x="268" y="700" type="line"/>
      <point x="270" y="686"/>
      <point x="271" y="676"/>
      <point x="271" y="665" type="curve" smooth="yes"/>
      <point x="271" y="589"/>
      <point x="232" y="481"/>
      <point x="89" y="49" type="curve"/>
      <point x="95" y="700" type="line"/>
      <point x="75" y="700" type="line"/>
      <point x="71" y="0" type="line"/>
    </contour>
  </outline>
</glyph>
<glyph name="X" format="2">
  <advance width="277"/>
  <unicode hex="0058"/>
  <outline>
    <contour>
      <point x="218" y="-6" type="line"/>
      <point x="237" y="-1" type="line"/>
      <point x="159" y="347" type="line"/>
      <point x="250" y="493"/>
      <point x="305" y="584"/>
      <point x="305" y="700" type="curve"/>
      <point x="286" y="700" type="line"/>
      <point x="285" y="588"/>
      <point x="256" y="544"/>
      <point x="154" y="372" type="curve"/>
      <point x="79" y="706" type="line"/>
      <point x="62" y="700" type="line"/>
      <point x="139" y="351" type="line"/>
      <point x="57" y="220"/>
      <point x="-6" y="110"/>
      <point x="-3" y="0" type="curve"/>
      <point x="15" y="0" type="line"/>
      <point x="12" y="100"/>
      <point x="69" y="211"/>
      <point x="145" y="326" type="curve"/>
    </contour>
  </outline>
</glyph>
<glyph name="bracketright" format="2">
  <advance width="162"/>
  <unicode hex="005D"/>
  <outline>
    <contour>
      <point x="-66" y="-192" type="line"/>
      <point x="-69" y="-210" type="line"/>
      <point x="34" y="-210" type="line"/>
      <point x="185" y="740" type="line"/>
      <point x="81" y="740" type="line"/>
      <point x="78" y="722" type="line"/>
      <point x="163" y="722" type="line"/>
      <point x="18" y="-192" type="line"/>
    </contour>
  </outline>
</glyph>
<glyph name="asciicircum" format="2">
  <advance width="339"/>
  <unicode hex="005E"/>
  <outline>
    <contour>
      <point x="34" y="279" type="line"/>
      <point x="53" y="279" type="line"/>
      <point x="234" y="688" type="line"/>
      <point x="288" y="279" type="line"/>
      <point x="307" y="279" type="line"/>
      <point x="247" y="710" type="line"/>
      <point x="227" y="710" type="line"/>
    </contour>
  </outline>
</glyph>
<glyph name="underscore" format="2">
  <advance width="548"/>
  <unicode hex="005F"/>
  <outline>
    <contour>
      <point x="-65" y="-136" type="line"/>
      <point x="483" y="-136" type="line"/>
      <point x="486" y="-116" type="line"/>
      <point x="-62" y="-116" type="line"/>
    </contour>
  </outline>
</glyph>
<glyph name="b" format="2">
  <advance width="258"/>
  <unicode hex="0062"/>
  <note>
12
</note>
  <outline>
    <contour>
      <point x="140" y="740" type="line"/>
      <point x="121" y="740" type="line"/>
      <point x="5" y="4" type="line"/>
      <point x="27" y="-6"/>
      <point x="44" y="-10"/>
      <point x="64" y="-10" type="curve" smooth="yes"/>
      <point x="179" y="-10"/>
      <point x="240" y="211"/>
      <point x="240" y="395" type="curve" smooth="yes"/>
      <point x="240" y="497"/>
      <point x="216" y="540"/>
      <point x="164" y="540" type="curve" smooth="yes"/>
      <point x="143" y="540"/>
      <point x="125" y="533"/>
      <point x="105" y="523" type="curve"/>
    </contour>
    <contour>
      <point x="162" y="522" type="curve" smooth="yes"/>
      <point x="208" y="522"/>
      <point x="221" y="467"/>
      <point x="221" y="392" type="curve" smooth="yes"/>
      <point x="221" y="214"/>
      <point x="163" y="8"/>
      <point x="62" y="8" type="curve" smooth="yes"/>
      <point x="49" y="8"/>
      <point x="36" y="11"/>
      <point x="26" y="17" type="curve"/>
      <point x="102" y="502" type="line"/>
      <point x="117" y="513"/>
      <point x="145" y="522"/>
    </contour>
  </outline>
</glyph>
<glyph name="e" format="2">
  <advance width="229"/>
  <unicode hex="0065"/>
  <note>
14 points
</note>
  <anchor x="109" y="0" name="bottom"/>
  <anchor x="166" y="0" name="ogonek"/>
  <anchor x="182" y="532" name="top"/>
  <outline>
    <contour>
      <point x="39" y="262" type="curve"/>
      <point x="36" y="244" type="line"/>
      <point x="62" y="250"/>
      <point x="91" y="260"/>
      <point x="118" y="275" type="curve" smooth="yes"/>
      <point x="193" y="317"/>
      <point x="249" y="390"/>
      <point x="249" y="472" type="curve" smooth="yes"/>
      <point x="249" y="512"/>
      <point x="232" y="540"/>
      <point x="192" y="540" type="curve" smooth="yes"/>
      <point x="95" y="540"/>
      <point x="20" y="386"/>
      <point x="20" y="163" type="curve" smooth="yes"/>
      <point x="20" y="51"/>
      <point x="48" y="-10"/>
      <point x="111" y="-10" type="curve" smooth="yes"/>
      <point x="135" y="-10"/>
      <point x="166" y="-3"/>
      <point x="185" y="9" type="curve"/>
      <point x="179" y="24" type="line"/>
      <point x="155" y="12"/>
      <point x="134" y="7"/>
      <point x="112" y="7" type="curve" smooth="yes"/>
      <point x="64" y="7"/>
      <point x="38" y="66"/>
      <point x="38" y="164" type="curve" smooth="yes"/>
      <point x="38" y="368"/>
      <point x="110" y="523"/>
      <point x="189" y="523" type="curve" smooth="yes"/>
      <point x="215" y="523"/>
      <point x="231" y="504"/>
      <point x="231" y="468" type="curve" smooth="yes"/>
      <point x="231" y="400"/>
      <point x="183" y="332"/>
      <point x="118" y="294" type="curve" smooth="yes"/>
      <point x="92" y="279"/>
      <point x="66" y="268"/>
    </contour>
  </outline>
</glyph>
<glyph name="i" format="2">
  <advance width="115"/>
  <unicode hex="0069"/>
  <note>
Ajuster pts sur points
8
</note>
  <anchor x="13" y="0" name="bottom"/>
  <anchor x="23" y="0" name="ogonek"/>
  <anchor x="97" y="530" name="top"/>
  <outline>
    <contour>
      <point x="5" y="0" type="line"/>
      <point x="23" y="0" type="line"/>
      <point x="107" y="530" type="line"/>
      <point x="88" y="530" type="line"/>
    </contour>
    <contour>
      <point x="127" y="710" type="curve" smooth="yes"/>
      <point x="113" y="710"/>
      <point x="113" y="708"/>
      <point x="110" y="684" type="curve" smooth="yes"/>
      <point x="109" y="676"/>
      <point x="114" y="676"/>
      <point x="120" y="676" type="curve" smooth="yes"/>
      <point x="134" y="676"/>
      <point x="134" y="678"/>
      <point x="137" y="702" type="curve" smooth="yes"/>
      <point x="138" y="710"/>
      <point x="133" y="710"/>
    </contour>
  </outline>
</glyph>
<glyph name="n" format="2">
  <advance width="258"/>
  <unicode hex="006E"/>
  <note>
16
</note>
  <anchor x="98" y="0" name="bottom"/>
  <anchor x="168" y="530" name="top"/>
  <outline>
    <contour>
      <point x="87" y="530" type="line"/>
      <point x="3" y="0" type="line"/>
      <point x="22" y="0" type="line"/>
      <point x="100" y="496" type="line"/>
      <point x="120" y="511"/>
      <point x="153" y="523"/>
      <point x="172" y="523" type="curve" smooth="yes"/>
      <point x="211" y="523"/>
      <point x="221" y="498"/>
      <point x="221" y="468" type="curve" smooth="yes"/>
      <point x="221" y="444"/>
      <point x="157" y="65"/>
      <point x="157" y="28" type="curve" smooth="yes"/>
      <point x="157" y="3"/>
      <point x="174" y="-10"/>
      <point x="194" y="-10" type="curve" smooth="yes"/>
      <point x="204" y="-10"/>
      <point x="214" y="-9"/>
      <point x="228" y="-2" type="curve"/>
      <point x="224" y="13" type="line"/>
      <point x="212" y="8"/>
      <point x="205" y="7"/>
      <point x="199" y="7" type="curve" smooth="yes"/>
      <point x="180" y="7"/>
      <point x="175" y="16"/>
      <point x="175" y="31" type="curve" smooth="yes"/>
      <point x="175" y="62"/>
      <point x="241" y="445"/>
      <point x="241" y="471" type="curve" smooth="yes"/>
      <point x="241" y="510"/>
      <point x="224" y="540"/>
      <point x="180" y="540" type="curve" smooth="yes"/>
      <point x="155" y="540"/>
      <point x="124" y="528"/>
      <point x="103" y="515" type="curve"/>
      <point x="106" y="530" type="line"/>
    </contour>
  </outline>
</glyph>
<glyph name="r" format="2">
  <advance width="173"/>
  <unicode hex="0072"/>
  <anchor x="12" y="0" name="bottom"/>
  <anchor x="150" y="530" name="top"/>
  <outline>
    <contour>
      <point x="106" y="530" type="line"/>
      <point x="87" y="530" type="line"/>
      <point x="3" y="0" type="line"/>
      <point x="22" y="0" type="line"/>
      <point x="96" y="470" type="line"/>
      <point x="128" y="507"/>
      <point x="155" y="522"/>
      <point x="182" y="522" type="curve" smooth="yes"/>
      <point x="194" y="522"/>
      <point x="205" y="520"/>
      <point x="217" y="516" type="curve"/>
      <point x="224" y="533" type="line"/>
      <point x="212" y="538"/>
      <point x="199" y="540"/>
      <point x="185" y="540" type="curve" smooth="yes"/>
      <point x="155" y="540"/>
      <point x="123" y="523"/>
      <point x="100" y="497" type="curve"/>
    </contour>
  </outline>
</glyph>
<glyph name="u" format="2">
  <advance width="258"/>
  <unicode hex="0075"/>
  <note>
15
</note>
  <anchor x="88" y="0" name="bottom"/>
  <anchor x="228" y="0" name="ogonek"/>
  <anchor x="167" y="530" name="top"/>
  <anchor x="249" y="530" name="topright"/>
  <outline>
    <contour>
      <point x="72" y="-10" type="curve" smooth="yes"/>
      <point x="99" y="-10"/>
      <point x="125" y="0"/>
      <point x="154" y="20" type="curve"/>
      <point x="157" y="-1"/>
      <point x="171" y="-10"/>
      <point x="190" y="-10" type="curve" smooth="yes"/>
      <point x="198" y="-10"/>
      <point x="216" y="-6"/>
      <point x="228" y="0" type="curve"/>
      <point x="223" y="14" type="line"/>
      <point x="211" y="9"/>
      <point x="199" y="6"/>
      <point x="192" y="6" type="curve" smooth="yes"/>
      <point x="175" y="6"/>
      <point x="171" y="16"/>
      <point x="171" y="27" type="curve" smooth="yes"/>
      <point x="171" y="38"/>
      <point x="174" y="59"/>
      <point x="249" y="530" type="curve"/>
      <point x="230" y="530" type="line"/>
      <point x="153" y="38" type="line"/>
      <point x="126" y="17"/>
      <point x="99" y="7"/>
      <point x="76" y="7" type="curve" smooth="yes"/>
      <point x="47" y="7"/>
      <point x="31" y="29"/>
      <point x="31" y="56" type="curve" smooth="yes"/>
      <point x="31" y="70"/>
      <point x="32" y="76"/>
      <point x="103" y="530" type="curve"/>
      <point x="84" y="530" type="line"/>
      <point x="36" y="214"/>
      <point x="12" y="92"/>
      <point x="12" y="50" type="curve" smooth="yes"/>
      <point x="12" y="13"/>
      <point x="36" y="-10"/>
    </contour>
  </outline>
</glyph>
<glyph name="w" format="2">
  <advance width="388"/>
  <unicode hex="0077"/>
  <note>
15
</note>
  <anchor x="164" y="0" name="bottom"/>
  <anchor x="229" y="530" name="top"/>
  <outline>
    <contour>
      <point x="264" y="0" type="line"/>
      <point x="371" y="379"/>
      <point x="389" y="411"/>
      <point x="398" y="530" type="curve"/>
      <point x="379" y="530" type="line"/>
      <point x="368" y="407"/>
      <point x="354" y="375"/>
      <point x="258" y="36" type="curve"/>
      <point x="237" y="471" type="line"/>
      <point x="215" y="471" type="line"/>
      <point x="173" y="325"/>
      <point x="132" y="179"/>
      <point x="90" y="33" type="curve"/>
      <point x="68" y="530" type="line"/>
      <point x="50" y="530" type="line"/>
      <point x="74" y="0" type="line"/>
      <point x="96" y="0" type="line"/>
      <point x="138" y="145"/>
      <point x="181" y="291"/>
      <point x="223" y="436" type="curve"/>
      <point x="242" y="0" type="line"/>
    </contour>
  </outline>
</glyph>
<glyph name="x" format="2">
  <advance width="218"/>
  <unicode hex="0078"/>
  <outline>
    <contour>
      <point x="207" y="530" type="line"/>
      <point x="207" y="465"/>
      <point x="184" y="381"/>
      <point x="116" y="283" type="curve"/>
      <point x="76" y="534" type="line"/>
      <point x="59" y="530" type="line"/>
      <point x="101" y="267" type="line"/>
      <point x="25" y="160"/>
      <point x="-12" y="71"/>
      <point x="-12" y="0" type="curve"/>
      <point x="5" y="0" type="line"/>
      <point x="6" y="73"/>
      <point x="42" y="151"/>
      <point x="105" y="244" type="curve"/>
      <point x="144" y="-2" type="line"/>
      <point x="161" y="1" type="line"/>
      <point x="120" y="261" type="line"/>
      <point x="196" y="361"/>
      <point x="226" y="461"/>
      <point x="226" y="530" type="curve"/>
    </contour>
  </outline>
</glyph>
<glyph name="braceleft" format="2">
  <advance width="185"/>
  <unicode hex="007B"/>
  <outline>
    <contour>
      <point x="9" y="-125" type="curve" smooth="yes"/>
      <point x="9" y="-174"/>
      <point x="26" y="-210"/>
      <point x="62" y="-210" type="curve" smooth="yes"/>
      <point x="80" y="-210" type="line"/>
      <point x="83" y="-190" type="line"/>
      <point x="65" y="-190" type="line" smooth="yes"/>
      <point x="39" y="-190"/>
      <point x="27" y="-163"/>
      <point x="27" y="-124" type="curve" smooth="yes"/>
      <point x="27" y="-3"/>
      <point x="102" y="104"/>
      <point x="102" y="216" type="curve" smooth="yes"/>
      <point x="102" y="241"/>
      <point x="100" y="265"/>
      <point x="79" y="274" type="curve"/>
      <point x="120" y="278"/>
      <point x="135" y="358"/>
      <point x="135" y="408" type="curve" smooth="yes"/>
      <point x="135" y="460"/>
      <point x="133" y="489"/>
      <point x="133" y="558" type="curve" smooth="yes"/>
      <point x="133" y="637"/>
      <point x="155" y="720"/>
      <point x="212" y="720" type="curve" smooth="yes"/>
      <point x="226" y="720" type="line"/>
      <point x="229" y="740" type="line"/>
      <point x="216" y="740" type="line" smooth="yes"/>
      <point x="140" y="740"/>
      <point x="115" y="642"/>
      <point x="115" y="549" type="curve" smooth="yes"/>
      <point x="115" y="486"/>
      <point x="117" y="455"/>
      <point x="117" y="422" type="curve" smooth="yes"/>
      <point x="117" y="369"/>
      <point x="108" y="285"/>
      <point x="65" y="285" type="curve" smooth="yes"/>
      <point x="52" y="285" type="line"/>
      <point x="49" y="266" type="line"/>
      <point x="60" y="266" type="line" smooth="yes"/>
      <point x="81" y="266"/>
      <point x="85" y="244"/>
      <point x="85" y="219" type="curve" smooth="yes"/>
      <point x="85" y="98"/>
      <point x="9" y="10"/>
    </contour>
  </outline>
</glyph>
<glyph name="braceright" format="2">
  <advance width="185"/>
  <unicode hex="007D"/>
  <outline>
    <contour>
      <point x="173" y="655" type="curve" smooth="yes"/>
      <point x="173" y="704"/>
      <point x="156" y="740"/>
      <point x="120" y="740" type="curve" smooth="yes"/>
      <point x="102" y="740" type="line"/>
      <point x="99" y="720" type="line"/>
      <point x="117" y="720" type="line" smooth="yes"/>
      <point x="143" y="720"/>
      <point x="155" y="693"/>
      <point x="155" y="654" type="curve" smooth="yes"/>
      <point x="155" y="533"/>
      <point x="80" y="435"/>
      <point x="80" y="323" type="curve" smooth="yes"/>
      <point x="80" y="298"/>
      <point x="82" y="274"/>
      <point x="103" y="265" type="curve"/>
      <point x="62" y="261"/>
      <point x="47" y="181"/>
      <point x="47" y="131" type="curve" smooth="yes"/>
      <point x="47" y="79"/>
      <point x="49" y="41"/>
      <point x="49" y="-28" type="curve" smooth="yes"/>
      <point x="49" y="-107"/>
      <point x="27" y="-190"/>
      <point x="-30" y="-190" type="curve" smooth="yes"/>
      <point x="-44" y="-190" type="line"/>
      <point x="-47" y="-210" type="line"/>
      <point x="-34" y="-210" type="line" smooth="yes"/>
      <point x="42" y="-210"/>
      <point x="67" y="-112"/>
      <point x="67" y="-19" type="curve" smooth="yes"/>
      <point x="67" y="44"/>
      <point x="65" y="84"/>
      <point x="65" y="117" type="curve" smooth="yes"/>
      <point x="65" y="170"/>
      <point x="74" y="254"/>
      <point x="117" y="254" type="curve" smooth="yes"/>
      <point x="130" y="254" type="line"/>
      <point x="133" y="273" type="line"/>
      <point x="122" y="273" type="line" smooth="yes"/>
      <point x="101" y="273"/>
      <point x="97" y="295"/>
      <point x="97" y="320" type="curve" smooth="yes"/>
      <point x="97" y="441"/>
      <point x="173" y="520"/>
    </contour>
  </outline>
</glyph>
<glyph name="currency" format="2">
  <advance width="376"/>
  <unicode hex="00A4"/>
  <outline>
    <contour>
      <point x="21" y="113" type="line"/>
      <point x="101" y="188" type="line"/>
      <point x="118" y="168"/>
      <point x="143" y="157"/>
      <point x="173" y="157" type="curve" smooth="yes"/>
      <point x="203" y="157"/>
      <point x="232" y="168"/>
      <point x="256" y="188" type="curve"/>
      <point x="312" y="113" type="line"/>
      <point x="328" y="127" type="line"/>
      <point x="271" y="202" type="line"/>
      <point x="298" y="230"/>
      <point x="316" y="270"/>
      <point x="316" y="313" type="curve" smooth="yes"/>
      <point x="316" y="337"/>
      <point x="310" y="358"/>
      <point x="299" y="376" type="curve"/>
      <point x="379" y="451" type="line"/>
      <point x="368" y="465" type="line"/>
      <point x="288" y="390" type="line"/>
      <point x="270" y="410"/>
      <point x="245" y="422"/>
      <point x="215" y="422" type="curve" smooth="yes"/>
      <point x="185" y="422"/>
      <point x="156" y="410"/>
      <point x="132" y="390" type="curve"/>
      <point x="77" y="465" type="line"/>
      <point x="63" y="451" type="line"/>
      <point x="117" y="377" type="line"/>
      <point x="90" y="348"/>
      <point x="73" y="309"/>
      <point x="73" y="266" type="curve" smooth="yes"/>
      <point x="73" y="241"/>
      <point x="79" y="219"/>
      <point x="90" y="201" type="curve"/>
      <point x="12" y="127" type="line"/>
    </contour>
    <contour>
      <point x="177" y="177" type="curve" smooth="yes"/>
      <point x="127" y="177"/>
      <point x="91" y="217"/>
      <point x="91" y="269" type="curve" smooth="yes"/>
      <point x="91" y="341"/>
      <point x="151" y="402"/>
      <point x="212" y="402" type="curve" smooth="yes"/>
      <point x="263" y="402"/>
      <point x="298" y="362"/>
      <point x="298" y="309" type="curve" smooth="yes"/>
      <point x="298" y="238"/>
      <point x="239" y="177"/>
    </contour>
  </outline>
</glyph>
<glyph name="ordfeminine" format="2">
  <advance width="193"/>
  <unicode hex="00AA"/>
  <outline>
    <contour>
      <point x="40" y="302" type="line"/>
      <point x="171" y="302" type="line"/>
      <point x="174" y="318" type="line"/>
      <point x="43" y="318" type="line"/>
    </contour>
    <contour>
      <point x="200" y="664" type="curve"/>
      <point x="191" y="670"/>
      <point x="177" y="674"/>
      <point x="166" y="674" type="curve" smooth="yes"/>
      <point x="108" y="674"/>
      <point x="62" y="580"/>
      <point x="62" y="445" type="curve" smooth="yes"/>
      <point x="62" y="379"/>
      <point x="86" y="364"/>
      <point x="112" y="364" type="curve" smooth="yes"/>
      <point x="126" y="364"/>
      <point x="134" y="369"/>
      <point x="142" y="375" type="curve"/>
      <point x="145" y="369"/>
      <point x="152" y="364"/>
      <point x="164" y="364" type="curve" smooth="yes"/>
      <point x="171" y="364"/>
      <point x="182" y="367"/>
      <point x="190" y="371" type="curve"/>
      <point x="184" y="385" type="line"/>
      <point x="176" y="381"/>
      <point x="169" y="379"/>
      <point x="166" y="379" type="curve" smooth="yes"/>
      <point x="159" y="379"/>
      <point x="156" y="383"/>
      <point x="156" y="386" type="curve" smooth="yes"/>
      <point x="156" y="393"/>
      <point x="162" y="424"/>
    </contour>
    <contour>
      <point x="79" y="446" type="curve" smooth="yes"/>
      <point x="79" y="555"/>
      <point x="114" y="659"/>
      <point x="166" y="659" type="curve" smooth="yes"/>
      <point x="169" y="659"/>
      <point x="177" y="658"/>
      <point x="182" y="656" type="curve"/>
      <point x="140" y="390" type="line"/>
      <point x="133" y="385"/>
      <point x="122" y="381"/>
      <point x="111" y="381" type="curve" smooth="yes"/>
      <point x="84" y="381"/>
      <point x="79" y="417"/>
    </contour>
  </outline>
</glyph>
<glyph name="uni00B5" format="2">
  <advance width="261"/>
  <unicode hex="00B5"/>
  <outline>
    <contour>
      <point x="-28" y="-210" type="line"/>
      <point x="-10" y="-210" type="line"/>
      <point x="26" y="17" type="line"/>
      <point x="35" y="-2"/>
      <point x="53" y="-10"/>
      <point x="75" y="-10" type="curve" smooth="yes"/>
      <point x="102" y="-10"/>
      <point x="128" y="0"/>
      <point x="157" y="20" type="curve"/>
      <point x="160" y="-1"/>
      <point x="174" y="-10"/>
      <point x="193" y="-10" type="curve" smooth="yes"/>
      <point x="201" y="-10"/>
      <point x="219" y="-6"/>
      <point x="231" y="0" type="curve"/>
      <point x="226" y="14" type="line"/>
      <point x="214" y="9"/>
      <point x="202" y="6"/>
      <point x="195" y="6" type="curve" smooth="yes"/>
      <point x="178" y="6"/>
      <point x="174" y="16"/>
      <point x="174" y="27" type="curve" smooth="yes"/>
      <point x="174" y="38"/>
      <point x="177" y="59"/>
      <point x="252" y="530" type="curve"/>
      <point x="233" y="530" type="line"/>
      <point x="156" y="38" type="line"/>
      <point x="129" y="17"/>
      <point x="94" y="7"/>
      <point x="77" y="7" type="curve" smooth="yes"/>
      <point x="48" y="7"/>
      <point x="33" y="24"/>
      <point x="33" y="51" type="curve" smooth="yes"/>
      <point x="33" y="69"/>
      <point x="56" y="212"/>
      <point x="106" y="530" type="curve"/>
      <point x="87" y="530" type="line"/>
    </contour>
  </outline>
</glyph>
<glyph name="periodcentered" format="2">
  <advance width="90"/>
  <unicode hex="00B7"/>
  <outline>
    <contour>
      <point x="33" y="287" type="curve" smooth="yes"/>
      <point x="31" y="273"/>
      <point x="32" y="270"/>
      <point x="44" y="270" type="curve" smooth="yes"/>
      <point x="56" y="270"/>
      <point x="57" y="271"/>
      <point x="59" y="287" type="curve" smooth="yes"/>
      <point x="61" y="300"/>
      <point x="61" y="304"/>
      <point x="49" y="304" type="curve" smooth="yes"/>
      <point x="37" y="304"/>
      <point x="35" y="303"/>
    </contour>
  </outline>
</glyph>
<glyph name="uni00B9" format="2">
  <advance width="205"/>
  <unicode hex="00B9"/>
  <outline>
    <contour>
      <point x="46" y="370" type="line"/>
      <point x="191" y="370" type="line"/>
      <point x="193" y="387" type="line"/>
      <point x="132" y="387" type="line"/>
      <point x="193" y="770" type="line"/>
      <point x="182" y="770" type="line"/>
      <point x="99" y="701" type="line"/>
      <point x="107" y="687" type="line"/>
      <point x="171" y="741" type="line"/>
      <point x="115" y="387" type="line"/>
      <point x="49" y="387" type="line"/>
    </contour>
  </outline>
</glyph>
<glyph name="ordmasculine" format="2">
  <advance width="190"/>
  <unicode hex="00BA"/>
  <outline>
    <contour>
      <point x="41" y="302" type="line"/>
      <point x="152" y="302" type="line"/>
      <point x="154" y="318" type="line"/>
      <point x="43" y="318" type="line"/>
    </contour>
    <contour>
      <point x="159" y="676" type="curve" smooth="yes"/>
      <point x="114" y="676"/>
      <point x="68" y="570"/>
      <point x="68" y="423" type="curve" smooth="yes"/>
      <point x="68" y="381"/>
      <point x="81" y="365"/>
      <point x="109" y="365" type="curve" smooth="yes"/>
      <point x="154" y="365"/>
      <point x="200" y="471"/>
      <point x="200" y="618" type="curve" smooth="yes"/>
      <point x="200" y="660"/>
      <point x="187" y="676"/>
    </contour>
    <contour>
      <point x="159" y="659" type="curve" smooth="yes"/>
      <point x="175" y="659"/>
      <point x="183" y="648"/>
      <point x="183" y="617" type="curve" smooth="yes"/>
      <point x="183" y="479"/>
      <point x="142" y="382"/>
      <point x="109" y="382" type="curve" smooth="yes"/>
      <point x="93" y="382"/>
      <point x="85" y="393"/>
      <point x="85" y="424" type="curve" smooth="yes"/>
      <point x="85" y="562"/>
      <point x="126" y="659"/>
    </contour>
  </outline>
</glyph>
<glyph name="AE" format="2">
  <advance width="385"/>
  <unicode hex="00C6"/>
  <anchor x="165" y="0" name="bottom"/>
  <anchor x="284" y="700" name="top"/>
  <outline>
    <contour>
      <point x="155" y="0" type="line"/>
      <point x="330" y="0" type="line"/>
      <point x="333" y="19" type="line"/>
      <point x="177" y="19" type="line"/>
      <point x="226" y="334" type="line"/>
      <point x="360" y="334" type="line"/>
      <point x="363" y="353" type="line"/>
      <point x="229" y="353" type="line"/>
      <point x="281" y="681" type="line"/>
      <point x="428" y="681" type="line"/>
      <point x="432" y="700" type="line"/>
      <point x="253" y="700" type="line"/>
      <point x="-36" y="0" type="line"/>
      <point x="-15" y="0" type="line"/>
      <point x="121" y="334" type="line"/>
      <point x="207" y="334" type="line"/>
    </contour>
    <contour>
      <point x="129" y="353" type="line"/>
      <point x="261" y="678" type="line"/>
      <point x="210" y="353" type="line"/>
    </contour>
  </outline>
</glyph>
<glyph name="Oslash" format="2">
  <advance width="296"/>
  <unicode hex="00D8"/>
  <anchor x="211" y="700" name="top"/>
  <outline>
    <contour>
      <point x="316" y="710" type="line"/>
      <point x="297" y="710" type="line"/>
      <point x="277" y="661" type="line"/>
      <point x="275" y="661" type="line"/>
      <point x="34" y="64" type="line"/>
      <point x="32" y="64" type="line"/>
      <point x="2" y="-10" type="line"/>
      <point x="21" y="-10" type="line"/>
      <point x="42" y="42" type="line"/>
      <point x="44" y="42" type="line"/>
      <point x="284" y="636" type="line"/>
      <point x="286" y="636" type="line"/>
    </contour>
    <contour>
      <point x="104" y="-10" type="curve" smooth="yes"/>
      <point x="219" y="-10"/>
      <point x="300" y="311"/>
      <point x="300" y="568" type="curve" smooth="yes"/>
      <point x="300" y="674"/>
      <point x="275" y="710"/>
      <point x="216" y="710" type="curve" smooth="yes"/>
      <point x="101" y="710"/>
      <point x="20" y="389"/>
      <point x="20" y="132" type="curve" smooth="yes"/>
      <point x="20" y="26"/>
      <point x="45" y="-10"/>
    </contour>
    <contour>
      <point x="105" y="8" type="curve" smooth="yes"/>
      <point x="57" y="8"/>
      <point x="39" y="36"/>
      <point x="39" y="132" type="curve" smooth="yes"/>
      <point x="39" y="383"/>
      <point x="121" y="692"/>
      <point x="215" y="692" type="curve" smooth="yes"/>
      <point x="263" y="692"/>
      <point x="281" y="664"/>
      <point x="281" y="568" type="curve" smooth="yes"/>
      <point x="281" y="317"/>
      <point x="199" y="8"/>
    </contour>
  </outline>
</glyph>
<glyph name="Thorn" format="2">
  <advance width="244"/>
  <unicode hex="00DE"/>
  <outline>
    <contour>
      <point x="-1" y="0" type="line"/>
      <point x="18" y="0" type="line"/>
      <point x="48" y="187" type="line"/>
      <point x="57" y="186"/>
      <point x="79" y="186"/>
      <point x="95" y="186" type="curve" smooth="yes"/>
      <point x="188" y="186"/>
      <point x="251" y="304"/>
      <point x="251" y="480" type="curve" smooth="yes"/>
      <point x="251" y="567"/>
      <point x="223" y="602"/>
      <point x="156" y="602" type="curve" smooth="yes"/>
      <point x="142" y="602"/>
      <point x="127" y="601"/>
      <point x="112" y="599" type="curve"/>
      <point x="128" y="700" type="line"/>
      <point x="109" y="700" type="line"/>
    </contour>
    <contour>
      <point x="93" y="205" type="curve" smooth="yes"/>
      <point x="69" y="205"/>
      <point x="59" y="206"/>
      <point x="51" y="207" type="curve"/>
      <point x="110" y="579" type="line"/>
      <point x="126" y="582"/>
      <point x="140" y="583"/>
      <point x="153" y="583" type="curve" smooth="yes"/>
      <point x="207" y="583"/>
      <point x="232" y="558"/>
      <point x="232" y="475" type="curve" smooth="yes"/>
      <point x="232" y="320"/>
      <point x="177" y="205"/>
    </contour>
  </outline>
</glyph>
<glyph name="ae" format="2">
  <advance width="402"/>
  <unicode hex="00E6"/>
  <anchor x="174" y="0" name="bottom"/>
  <anchor x="246" y="530" name="top"/>
  <outline>
    <contour>
      <point x="93.0" y="-10.0" type="curve" smooth="yes"/>
      <point x="116.0" y="-10.0"/>
      <point x="133.0" y="-2.0"/>
      <point x="147.0" y="9.0" type="curve"/>
      <point x="144.0" y="-8.0" type="line"/>
      <point x="162.0" y="-8.0" type="line"/>
      <point x="184.0" y="126.0" type="line"/>
      <point x="189.0" y="41.0"/>
      <point x="224.0" y="-10.0"/>
      <point x="283.0" y="-10.0" type="curve" smooth="yes"/>
      <point x="312.0" y="-10.0"/>
      <point x="340.0" y="-3.0"/>
      <point x="359.0" y="9.0" type="curve"/>
      <point x="352.0" y="25.0" type="line"/>
      <point x="328.0" y="13.0"/>
      <point x="308.0" y="7.0"/>
      <point x="286.0" y="7.0" type="curve" smooth="yes"/>
      <point x="232.0" y="7.0"/>
      <point x="199.0" y="67.0"/>
      <point x="199.0" y="165.0" type="curve" smooth="yes"/>
      <point x="199.0" y="371.0"/>
      <point x="264.0" y="523.0"/>
      <point x="348.0" y="523.0" type="curve" smooth="yes"/>
      <point x="383.0" y="523.0"/>
      <point x="396.0" y="499.0"/>
      <point x="396.0" y="462.0" type="curve" smooth="yes"/>
      <point x="396.0" y="399.0"/>
      <point x="350.0" y="333.0"/>
      <point x="285.0" y="295.0" type="curve" smooth="yes"/>
      <point x="257.0" y="278.0"/>
      <point x="225.0" y="267.0"/>
      <point x="191.0" y="261.0" type="curve"/>
      <point x="190.0" y="243.0" type="line"/>
      <point x="221.0" y="249.0"/>
      <point x="256.0" y="259.0"/>
      <point x="285.0" y="276.0" type="curve" smooth="yes"/>
      <point x="360.0" y="317.0"/>
      <point x="414.0" y="387.0"/>
      <point x="414.0" y="464.0" type="curve" smooth="yes"/>
      <point x="414.0" y="512.0"/>
      <point x="391.0" y="540.0"/>
      <point x="350.0" y="540.0" type="curve" smooth="yes"/>
      <point x="304.0" y="540.0"/>
      <point x="263.0" y="506.0"/>
      <point x="231.0" y="438.0" type="curve"/>
      <point x="248.0" y="540.0" type="line"/>
      <point x="231.0" y="540.0" type="line"/>
      <point x="229.0" y="529.0" type="line"/>
      <point x="218.0" y="537.0"/>
      <point x="204.0" y="540.0"/>
      <point x="193.0" y="540.0" type="curve" smooth="yes"/>
      <point x="91.0" y="540.0"/>
      <point x="17.0" y="377.0"/>
      <point x="17.0" y="135.0" type="curve" smooth="yes"/>
      <point x="17.0" y="39.0"/>
      <point x="43.0" y="-10.0"/>
    </contour>
    <contour>
      <point x="92.0" y="8.0" type="curve" smooth="yes"/>
      <point x="57.0" y="8.0"/>
      <point x="36.0" y="56.0"/>
      <point x="36.0" y="137.0" type="curve" smooth="yes"/>
      <point x="36.0" y="345.0"/>
      <point x="96.0" y="523.0"/>
      <point x="191.0" y="523.0" type="curve" smooth="yes"/>
      <point x="203.0" y="523.0"/>
      <point x="217.0" y="520.0"/>
      <point x="226.0" y="509.0" type="curve"/>
      <point x="150.0" y="29.0" type="line"/>
      <point x="135.0" y="17.0"/>
      <point x="113.0" y="8.0"/>
    </contour>
  </outline>
</glyph>
<glyph name="eth" format="2">
  <advance width="251"/>
  <unicode hex="00F0"/>
  <outline>
    <contour>
      <point x="244" y="490" type="curve"/>
      <point x="249" y="510" type="line"/>
      <point x="236" y="526"/>
      <point x="212" y="534"/>
      <point x="186" y="534" type="curve" smooth="yes"/>
      <point x="61" y="534"/>
      <point x="13" y="282"/>
      <point x="13" y="108" type="curve" smooth="yes"/>
      <point x="13" y="23"/>
      <point x="36" y="-10"/>
      <point x="89" y="-10" type="curve" smooth="yes"/>
      <point x="158" y="-10"/>
      <point x="190" y="63"/>
      <point x="228" y="308" type="curve" smooth="yes"/>
      <point x="244" y="414"/>
      <point x="254" y="495"/>
      <point x="254" y="556" type="curve" smooth="yes"/>
      <point x="254" y="665"/>
      <point x="226" y="710"/>
      <point x="151" y="710" type="curve" smooth="yes"/>
      <point x="137" y="710"/>
      <point x="115" y="708"/>
      <point x="96" y="703" type="curve"/>
      <point x="99" y="686" type="line"/>
      <point x="116" y="690"/>
      <point x="132" y="693"/>
      <point x="151" y="693" type="curve" smooth="yes"/>
      <point x="210" y="693"/>
      <point x="236" y="656"/>
      <point x="236" y="555" type="curve" smooth="yes"/>
      <point x="236" y="498"/>
      <point x="227" y="414"/>
      <point x="210" y="307" type="curve" smooth="yes"/>
      <point x="174" y="80"/>
      <point x="145" y="7"/>
      <point x="90" y="7" type="curve" smooth="yes"/>
      <point x="49" y="7"/>
      <point x="31" y="36"/>
      <point x="31" y="106" type="curve" smooth="yes"/>
      <point x="31" y="261"/>
      <point x="74" y="517"/>
      <point x="186" y="517" type="curve" smooth="yes"/>
      <point x="206" y="517"/>
      <point x="229" y="513"/>
    </contour>
    <contour>
      <point x="117" y="566" type="line"/>
      <point x="228" y="651" type="line"/>
      <point x="230" y="651" type="line"/>
      <point x="315" y="716" type="line"/>
      <point x="289" y="716" type="line"/>
      <point x="223" y="666" type="line"/>
      <point x="221" y="666" type="line"/>
      <point x="90" y="566" type="line"/>
    </contour>
  </outline>
</glyph>
<glyph name="Dcroat" format="2">
  <advance width="291"/>
  <unicode hex="0110"/>
  <outline>
    <contour>
      <point x="22" y="353" type="line"/>
      <point x="173" y="353" type="line"/>
      <point x="176" y="370" type="line"/>
      <point x="25" y="370" type="line"/>
    </contour>
    <component base="D" xOffset="7"/>
  </outline>
</glyph>
<glyph name="Hbar" format="2">
  <advance width="301"/>
  <unicode hex="0126"/>
  <outline>
    <contour>
      <point x="42" y="502" type="line"/>
      <point x="331" y="502" type="line"/>
      <point x="333" y="517" type="line"/>
      <point x="44" y="517" type="line"/>
    </contour>
    <contour>
      <point x="0" y="0" type="line"/>
      <point x="20" y="0" type="line"/>
      <point x="66" y="291" type="line"/>
      <point x="237" y="291" type="line"/>
      <point x="191" y="0" type="line"/>
      <point x="210" y="0" type="line"/>
      <point x="321" y="700" type="line"/>
      <point x="302" y="700" type="line"/>
      <point x="240" y="310" type="line"/>
      <point x="68" y="310" type="line"/>
      <point x="130" y="700" type="line"/>
      <point x="110" y="700" type="line"/>
    </contour>
  </outline>
</glyph>
<glyph name="hbar" format="2">
  <advance width="260"/>
  <unicode hex="0127"/>
  <outline>
    <contour>
      <point x="57" y="621" type="line"/>
      <point x="197" y="621" type="line"/>
      <point x="200" y="636" type="line"/>
      <point x="60" y="636" type="line"/>
    </contour>
    <component base="h"/>
  </outline>
</glyph>
<glyph name="Idotaccent" format="2">
  <advance width="108"/>
  <unicode hex="0130"/>
  <outline>
    <contour>
      <point x="144" y="841" type="curve" smooth="yes"/>
      <point x="130" y="841"/>
      <point x="130" y="839"/>
      <point x="127" y="815" type="curve" smooth="yes"/>
      <point x="126" y="807"/>
      <point x="131" y="807"/>
      <point x="137" y="807" type="curve" smooth="yes"/>
      <point x="151" y="807"/>
      <point x="151" y="809"/>
      <point x="154" y="833" type="curve" smooth="yes"/>
      <point x="155" y="841"/>
      <point x="150" y="841"/>
    </contour>
    <contour>
      <point x="-1" y="0" type="line"/>
      <point x="18" y="0" type="line"/>
      <point x="129" y="700" type="line"/>
      <point x="109" y="700" type="line"/>
    </contour>
  </outline>
</glyph>
<glyph name="dotlessi" format="2">
  <advance width="113"/>
  <unicode hex="0131"/>
  <anchor x="12" y="0" name="bottom"/>
  <anchor x="22" y="0" name="ogonek"/>
  <anchor x="96" y="530" name="top"/>
  <outline>
    <contour>
      <point x="22" y="0" type="line"/>
      <point x="106" y="530" type="line"/>
      <point x="87" y="530" type="line"/>
      <point x="4" y="0" type="line"/>
    </contour>
  </outline>
</glyph>
<glyph name="kgreenlandic" format="2">
  <advance width="246"/>
  <unicode hex="0138"/>
  <anchor x="87" y="0" name="bottom"/>
  <anchor x="165" y="530" name="top"/>
  <outline>
    <contour>
      <point x="3" y="0" type="line"/>
      <point x="21" y="0" type="line"/>
      <point x="105" y="530" type="line"/>
      <point x="87" y="530" type="line"/>
    </contour>
    <contour>
      <point x="208" y="-10" type="curve" smooth="yes"/>
      <point x="214" y="-10"/>
      <point x="220" y="-9"/>
      <point x="227" y="-6" type="curve"/>
      <point x="224" y="10" type="line"/>
      <point x="218" y="8"/>
      <point x="213" y="7"/>
      <point x="209" y="7" type="curve" smooth="yes"/>
      <point x="183" y="7"/>
      <point x="162" y="41"/>
      <point x="124" y="161" type="curve" smooth="yes"/>
      <point x="70" y="333" type="line"/>
      <point x="58" y="312" type="line"/>
      <point x="116" y="128" type="line" smooth="yes"/>
      <point x="150" y="19"/>
      <point x="173" y="-10"/>
    </contour>
    <contour>
      <point x="90" y="245" type="line"/>
      <point x="160" y="304"/>
      <point x="226" y="411"/>
      <point x="267" y="532" type="curve"/>
      <point x="250" y="539" type="line"/>
      <point x="206" y="414"/>
      <point x="154" y="326"/>
      <point x="85" y="264" type="curve"/>
    </contour>
  </outline>
</glyph>
<glyph name="Ldot" format="2">
  <advance width="201"/>
  <unicode hex="013F"/>
  <outline>
    <contour>
      <point x="150" y="357" type="curve" smooth="yes"/>
      <point x="148" y="343"/>
      <point x="149" y="340"/>
      <point x="161" y="340" type="curve" smooth="yes"/>
      <point x="173" y="340"/>
      <point x="174" y="341"/>
      <point x="176" y="357" type="curve" smooth="yes"/>
      <point x="178" y="370"/>
      <point x="178" y="374"/>
      <point x="166" y="374" type="curve" smooth="yes"/>
      <point x="154" y="374"/>
      <point x="152" y="373"/>
    </contour>
    <contour>
      <point x="-2" y="0" type="line"/>
      <point x="151" y="0" type="line"/>
      <point x="154" y="19" type="line"/>
      <point x="20" y="19" type="line"/>
      <point x="128" y="700" type="line"/>
      <point x="109" y="700" type="line"/>
    </contour>
  </outline>
</glyph>
<glyph name="ldot" format="2">
  <advance width="163"/>
  <unicode hex="0140"/>
  <outline>
    <contour>
      <point x="141" y="357" type="curve" smooth="yes"/>
      <point x="139" y="343"/>
      <point x="140" y="340"/>
      <point x="152" y="340" type="curve" smooth="yes"/>
      <point x="164" y="340"/>
      <point x="165" y="341"/>
      <point x="167" y="357" type="curve" smooth="yes"/>
      <point x="169" y="370"/>
      <point x="169" y="374"/>
      <point x="157" y="374" type="curve" smooth="yes"/>
      <point x="145" y="374"/>
      <point x="143" y="373"/>
    </contour>
    <contour>
      <point x="121" y="740" type="line"/>
      <point x="12" y="52" type="line" smooth="yes"/>
      <point x="11" y="44"/>
      <point x="10" y="36"/>
      <point x="10" y="29" type="curve" smooth="yes"/>
      <point x="10" y="4"/>
      <point x="21" y="-10"/>
      <point x="51" y="-10" type="curve" smooth="yes"/>
      <point x="63" y="-10"/>
      <point x="79" y="-7"/>
      <point x="92" y="-2" type="curve"/>
      <point x="88" y="13" type="line"/>
      <point x="73" y="8"/>
      <point x="62" y="6"/>
      <point x="54" y="6" type="curve" smooth="yes"/>
      <point x="34" y="6"/>
      <point x="28" y="13"/>
      <point x="28" y="25" type="curve" smooth="yes"/>
      <point x="28" y="36"/>
      <point x="31" y="50"/>
      <point x="35" y="76" type="curve" smooth="yes"/>
      <point x="140" y="740" type="line"/>
    </contour>
  </outline>
</glyph>
<glyph name="lslash" format="2">
  <advance width="121"/>
  <unicode hex="0142"/>
  <outline>
    <contour>
      <point x="-3" y="194" type="line"/>
      <point x="138" y="347" type="line"/>
      <point x="142" y="375" type="line"/>
      <point x="1" y="222" type="line"/>
    </contour>
    <contour>
      <point x="121" y="740" type="line"/>
      <point x="12" y="52" type="line" smooth="yes"/>
      <point x="11" y="44"/>
      <point x="10" y="36"/>
      <point x="10" y="29" type="curve" smooth="yes"/>
      <point x="10" y="4"/>
      <point x="21" y="-10"/>
      <point x="51" y="-10" type="curve" smooth="yes"/>
      <point x="63" y="-10"/>
      <point x="79" y="-7"/>
      <point x="92" y="-2" type="curve"/>
      <point x="88" y="13" type="line"/>
      <point x="73" y="8"/>
      <point x="62" y="6"/>
      <point x="54" y="6" type="curve" smooth="yes"/>
      <point x="34" y="6"/>
      <point x="28" y="13"/>
      <point x="28" y="25" type="curve" smooth="yes"/>
      <point x="28" y="36"/>
      <point x="31" y="50"/>
      <point x="35" y="76" type="curve" smooth="yes"/>
      <point x="140" y="740" type="line"/>
    </contour>
  </outline>
</glyph>
<glyph name="eng" format="2">
  <advance width="258"/>
  <unicode hex="014B"/>
  <outline>
    <contour>
      <point x="156" y="-71" type="curve" smooth="yes"/>
      <point x="241" y="475"/>
      <point x="241" y="480"/>
      <point x="241" y="484" type="curve" smooth="yes"/>
      <point x="241" y="516"/>
      <point x="220" y="540"/>
      <point x="181" y="540" type="curve" smooth="yes"/>
      <point x="156" y="540"/>
      <point x="124" y="528"/>
      <point x="103" y="515" type="curve"/>
      <point x="106" y="530" type="line"/>
      <point x="87" y="530" type="line"/>
      <point x="3" y="0" type="line"/>
      <point x="21" y="0" type="line"/>
      <point x="100" y="496" type="line"/>
      <point x="120" y="511"/>
      <point x="154" y="523"/>
      <point x="173" y="523" type="curve" smooth="yes"/>
      <point x="207" y="523"/>
      <point x="222" y="508"/>
      <point x="222" y="479" type="curve" smooth="yes"/>
      <point x="222" y="475"/>
      <point x="222" y="471"/>
      <point x="138" y="-66" type="curve" smooth="yes"/>
      <point x="125" y="-148"/>
      <point x="103" y="-203"/>
      <point x="45" y="-203" type="curve" smooth="yes"/>
      <point x="35" y="-203"/>
      <point x="28" y="-202"/>
      <point x="18" y="-200" type="curve"/>
      <point x="13" y="-217" type="line"/>
      <point x="23" y="-219"/>
      <point x="34" y="-220"/>
      <point x="47" y="-220" type="curve" smooth="yes"/>
      <point x="110" y="-220"/>
      <point x="141" y="-168"/>
    </contour>
  </outline>
</glyph>
<glyph name="oe" format="2">
  <advance width="417"/>
  <unicode hex="0153"/>
  <outline>
    <contour>
      <point x="85" y="-10" type="curve" smooth="yes"/>
      <point x="137" y="-10"/>
      <point x="173" y="62"/>
      <point x="195" y="153" type="curve"/>
      <point x="199" y="46"/>
      <point x="235" y="-10"/>
      <point x="297" y="-10" type="curve" smooth="yes"/>
      <point x="326" y="-10"/>
      <point x="354" y="-3"/>
      <point x="373" y="9" type="curve"/>
      <point x="366" y="25" type="line"/>
      <point x="342" y="13"/>
      <point x="322" y="7"/>
      <point x="300" y="7" type="curve" smooth="yes"/>
      <point x="246" y="7"/>
      <point x="213" y="66"/>
      <point x="213" y="164" type="curve" smooth="yes"/>
      <point x="213" y="370"/>
      <point x="278" y="523"/>
      <point x="362" y="523" type="curve" smooth="yes"/>
      <point x="397" y="523"/>
      <point x="410" y="499"/>
      <point x="410" y="461" type="curve" smooth="yes"/>
      <point x="410" y="398"/>
      <point x="364" y="332"/>
      <point x="299" y="294" type="curve" smooth="yes"/>
      <point x="273" y="279"/>
      <point x="245" y="268"/>
      <point x="215" y="262" type="curve"/>
      <point x="212" y="244" type="line"/>
      <point x="241" y="250"/>
      <point x="272" y="260"/>
      <point x="299" y="275" type="curve" smooth="yes"/>
      <point x="374" y="317"/>
      <point x="428" y="387"/>
      <point x="428" y="464" type="curve" smooth="yes"/>
      <point x="428" y="512"/>
      <point x="405" y="540"/>
      <point x="364" y="540" type="curve" smooth="yes"/>
      <point x="310" y="540"/>
      <point x="263" y="492"/>
      <point x="233" y="410" type="curve"/>
      <point x="235" y="503"/>
      <point x="223" y="539"/>
      <point x="161" y="539" type="curve" smooth="yes"/>
      <point x="48" y="539"/>
      <point x="13" y="212"/>
      <point x="13" y="96" type="curve" smooth="yes"/>
      <point x="13" y="6"/>
      <point x="38" y="-10"/>
    </contour>
    <contour>
      <point x="85" y="7" type="curve" smooth="yes"/>
      <point x="52" y="7"/>
      <point x="31" y="20"/>
      <point x="31" y="94" type="curve" smooth="yes"/>
      <point x="31" y="188"/>
      <point x="68" y="522"/>
      <point x="161" y="522" type="curve" smooth="yes"/>
      <point x="194" y="522"/>
      <point x="215" y="509"/>
      <point x="215" y="435" type="curve" smooth="yes"/>
      <point x="215" y="341"/>
      <point x="178" y="7"/>
    </contour>
  </outline>
</glyph>
<glyph name="uni0162" format="2">
  <advance width="218"/>
  <unicode hex="0162"/>
  <anchor x="65" y="0" name="_bottom"/>
  <anchor x="25" y="-220" name="bottom"/>
  <outline>
    <contour>
      <point x="-6" y="-210" type="line"/>
      <point x="4" y="-218"/>
      <point x="16" y="-220"/>
      <point x="25" y="-220" type="curve" smooth="yes"/>
      <point x="68" y="-220"/>
      <point x="85" y="-162"/>
      <point x="85" y="-109" type="curve" smooth="yes"/>
      <point x="85" y="-73"/>
      <point x="80" y="-34"/>
      <point x="73" y="0" type="curve"/>
      <point x="55" y="0" type="line"/>
      <point x="62" y="-40"/>
      <point x="67" y="-77"/>
      <point x="67" y="-108" type="curve" smooth="yes"/>
      <point x="67" y="-167"/>
      <point x="50" y="-203"/>
      <point x="25" y="-203" type="curve" smooth="yes"/>
      <point x="17" y="-203"/>
      <point x="9" y="-200"/>
      <point x="2" y="-195" type="curve"/>
    </contour>
    <contour>
      <point x="281" y="681" type="line"/>
      <point x="284" y="700" type="line"/>
      <point x="72" y="700" type="line"/>
      <point x="69" y="681" type="line"/>
      <point x="165" y="681" type="line"/>
      <point x="57" y="0" type="line"/>
      <point x="76" y="0" type="line"/>
      <point x="184" y="681" type="line"/>
    </contour>
  </outline>
</glyph>
<glyph name="tbar" format="2">
  <advance width="163"/>
  <unicode hex="0167"/>
  <outline>
    <contour>
      <point x="15" y="315" type="line"/>
      <point x="178" y="315" type="line"/>
      <point x="181" y="333" type="line"/>
      <point x="18" y="333" type="line"/>
    </contour>
    <contour>
      <point x="127" y="14" type="line"/>
      <point x="115" y="11"/>
      <point x="103" y="9"/>
      <point x="93" y="9" type="curve" smooth="yes"/>
      <point x="57" y="9"/>
      <point x="41" y="27"/>
      <point x="41" y="67" type="curve" smooth="yes"/>
      <point x="41" y="79"/>
      <point x="43" y="92"/>
      <point x="45" y="108" type="curve" smooth="yes"/>
      <point x="109" y="511" type="line"/>
      <point x="211" y="511" type="line"/>
      <point x="214" y="530" type="line"/>
      <point x="112" y="530" type="line"/>
      <point x="133" y="665" type="line"/>
      <point x="119" y="665" type="line"/>
      <point x="93" y="530" type="line"/>
      <point x="42" y="524" type="line"/>
      <point x="40" y="511" type="line"/>
      <point x="90" y="511" type="line"/>
      <point x="26" y="108" type="line" smooth="yes"/>
      <point x="23" y="91"/>
      <point x="22" y="75"/>
      <point x="22" y="61" type="curve" smooth="yes"/>
      <point x="22" y="19"/>
      <point x="37" y="-10"/>
      <point x="90" y="-10" type="curve" smooth="yes"/>
      <point x="102" y="-10"/>
      <point x="116" y="-8"/>
      <point x="132" y="-3" type="curve"/>
    </contour>
  </outline>
</glyph>
<glyph name="uogonek" format="2">
  <advance width="266"/>
  <unicode hex="0173"/>
  <outline>
    <contour>
      <point x="171" y="-220" type="curve" smooth="yes"/>
      <point x="185" y="-220"/>
      <point x="197" y="-215"/>
      <point x="204" y="-208" type="curve"/>
      <point x="199" y="-195" type="line"/>
      <point x="193" y="-199"/>
      <point x="185" y="-203"/>
      <point x="175" y="-203" type="curve" smooth="yes"/>
      <point x="163" y="-203"/>
      <point x="155" y="-192"/>
      <point x="155" y="-172" type="curve" smooth="yes"/>
      <point x="155" y="-130"/>
      <point x="184" y="-66"/>
      <point x="235" y="0" type="curve"/>
      <point x="230" y="14" type="line"/>
      <point x="218" y="9"/>
      <point x="206" y="6"/>
      <point x="199" y="6" type="curve" smooth="yes"/>
      <point x="182" y="6"/>
      <point x="178" y="16"/>
      <point x="178" y="27" type="curve" smooth="yes"/>
      <point x="178" y="38"/>
      <point x="181" y="59"/>
      <point x="256" y="530" type="curve"/>
      <point x="237" y="530" type="line"/>
      <point x="160" y="38" type="line"/>
      <point x="133" y="17"/>
      <point x="98" y="7"/>
      <point x="81" y="7" type="curve" smooth="yes"/>
      <point x="52" y="7"/>
      <point x="37" y="24"/>
      <point x="37" y="51" type="curve" smooth="yes"/>
      <point x="37" y="65"/>
      <point x="39" y="76"/>
      <point x="110" y="530" type="curve"/>
      <point x="91" y="530" type="line"/>
      <point x="40" y="214"/>
      <point x="19" y="90"/>
      <point x="19" y="48" type="curve" smooth="yes"/>
      <point x="19" y="11"/>
      <point x="43" y="-10"/>
      <point x="79" y="-10" type="curve" smooth="yes"/>
      <point x="106" y="-10"/>
      <point x="132" y="0"/>
      <point x="161" y="20" type="curve"/>
      <point x="164" y="-1"/>
      <point x="178" y="-10"/>
      <point x="197" y="-10" type="curve" smooth="yes"/>
      <point x="201" y="-10"/>
      <point x="206" y="-9"/>
      <point x="212" y="-8" type="curve"/>
      <point x="167" y="-71"/>
      <point x="137" y="-127"/>
      <point x="137" y="-177" type="curve" smooth="yes"/>
      <point x="137" y="-201"/>
      <point x="150" y="-220"/>
    </contour>
  </outline>
</glyph>
<glyph name="uni018F" format="2">
  <advance width="282"/>
  <unicode hex="018F"/>
  <outline>
    <contour>
      <point x="79" y="-10" type="curve" smooth="yes"/>
      <point x="188" y="-10"/>
      <point x="281" y="241"/>
      <point x="281" y="535" type="curve" smooth="yes"/>
      <point x="281" y="671"/>
      <point x="243" y="710"/>
      <point x="179" y="710" type="curve" smooth="yes"/>
      <point x="142" y="710"/>
      <point x="100" y="699"/>
      <point x="66" y="679" type="curve"/>
      <point x="74" y="663" type="line"/>
      <point x="107" y="680"/>
      <point x="137" y="692"/>
      <point x="174" y="692" type="curve" smooth="yes"/>
      <point x="248" y="692"/>
      <point x="262" y="634"/>
      <point x="262" y="524" type="curve" smooth="yes"/>
      <point x="262" y="251"/>
      <point x="176" y="8"/>
      <point x="80" y="8" type="curve" smooth="yes"/>
      <point x="38" y="8"/>
      <point x="14" y="42"/>
      <point x="14" y="102" type="curve" smooth="yes"/>
      <point x="14" y="244"/>
      <point x="90" y="349"/>
      <point x="216" y="349" type="curve" smooth="yes"/>
      <point x="227" y="349"/>
      <point x="240" y="348"/>
      <point x="254" y="347" type="curve"/>
      <point x="256" y="365" type="line"/>
      <point x="245" y="367"/>
      <point x="235" y="367"/>
      <point x="224" y="367" type="curve" smooth="yes"/>
      <point x="80" y="367"/>
      <point x="-5" y="256"/>
      <point x="-5" y="99" type="curve" smooth="yes"/>
      <point x="-5" y="31"/>
      <point x="27" y="-10"/>
    </contour>
  </outline>
</glyph>
<glyph name="uni0259" format="2">
  <advance width="251"/>
  <unicode hex="0259"/>
  <outline>
    <contour>
      <point x="217" y="276" type="curve"/>
      <point x="217" y="293" type="line"/>
      <point x="185" y="287"/>
      <point x="148" y="277"/>
      <point x="118" y="259" type="curve" smooth="yes"/>
      <point x="43" y="217"/>
      <point x="-11" y="148"/>
      <point x="-11" y="67" type="curve" smooth="yes"/>
      <point x="-11" y="20"/>
      <point x="12" y="-10"/>
      <point x="57" y="-10" type="curve" smooth="yes"/>
      <point x="157" y="-10"/>
      <point x="229" y="165"/>
      <point x="229" y="388" type="curve" smooth="yes"/>
      <point x="229" y="509"/>
      <point x="186" y="540"/>
      <point x="135" y="540" type="curve" smooth="yes"/>
      <point x="100" y="540"/>
      <point x="74" y="531"/>
      <point x="58" y="521" type="curve"/>
      <point x="65" y="505" type="line"/>
      <point x="85" y="515"/>
      <point x="104" y="523"/>
      <point x="130" y="523" type="curve" smooth="yes"/>
      <point x="172" y="523"/>
      <point x="212" y="497"/>
      <point x="212" y="388" type="curve" smooth="yes"/>
      <point x="212" y="182"/>
      <point x="143" y="7"/>
      <point x="59" y="7" type="curve" smooth="yes"/>
      <point x="20" y="7"/>
      <point x="7" y="33"/>
      <point x="7" y="70" type="curve" smooth="yes"/>
      <point x="7" y="137"/>
      <point x="53" y="203"/>
      <point x="118" y="241" type="curve" smooth="yes"/>
      <point x="147" y="259"/>
      <point x="181" y="270"/>
    </contour>
  </outline>
</glyph>
<glyph name="gravecomb" format="2">
  <unicode hex="0300"/>
  <anchor x="-80" y="530" name="_top"/>
  <anchor x="-87" y="710" name="top"/>
  <outline>
    <contour>
      <point x="-75" y="596" type="line"/>
      <point x="-59" y="596" type="line"/>
      <point x="-100" y="790" type="line"/>
      <point x="-120" y="790" type="line"/>
    </contour>
  </outline>
</glyph>
<glyph name="tildecomb" format="2">
  <unicode hex="0303"/>
  <anchor x="-80" y="530" name="_top"/>
  <anchor x="-66" y="614" name="top"/>
  <outline>
    <contour>
      <point x="-142" y="604" type="curve"/>
      <point x="-127" y="604" type="line"/>
      <point x="-127" y="607"/>
      <point x="-127" y="611"/>
      <point x="-127" y="614" type="curve" smooth="yes"/>
      <point x="-127" y="663"/>
      <point x="-111" y="697"/>
      <point x="-91" y="697" type="curve" smooth="yes"/>
      <point x="-56" y="697"/>
      <point x="-75" y="604"/>
      <point x="-32" y="604" type="curve" smooth="yes"/>
      <point x="3" y="604"/>
      <point x="23" y="652"/>
      <point x="23" y="715" type="curve" smooth="yes"/>
      <point x="23" y="717"/>
      <point x="23" y="718"/>
      <point x="23" y="720" type="curve"/>
      <point x="8" y="720" type="line"/>
      <point x="8" y="717"/>
      <point x="8" y="715"/>
      <point x="8" y="712" type="curve" smooth="yes"/>
      <point x="8" y="686"/>
      <point x="0" y="622"/>
      <point x="-29" y="622" type="curve" smooth="yes"/>
      <point x="-60" y="622"/>
      <point x="-39" y="713"/>
      <point x="-88" y="713" type="curve" smooth="yes"/>
      <point x="-121" y="713"/>
      <point x="-142" y="673"/>
      <point x="-142" y="617" type="curve" smooth="yes"/>
      <point x="-142" y="613"/>
      <point x="-142" y="608"/>
    </contour>
  </outline>
</glyph>
<glyph name="uni0304" format="2">
  <unicode hex="0304"/>
  <anchor x="-80" y="530" name="_top"/>
  <anchor x="-52" y="705" name="top"/>
  <outline>
    <contour>
      <point x="-121" y="685" type="line"/>
      <point x="11" y="685" type="line"/>
      <point x="14" y="705" type="line"/>
      <point x="-118" y="705" type="line"/>
    </contour>
  </outline>
</glyph>
<glyph name="uni0306" format="2">
  <unicode hex="0306"/>
  <anchor x="-80" y="530" name="_top"/>
  <anchor x="-54" y="696" name="top"/>
  <outline>
    <contour>
      <point x="-68" y="604" type="curve" smooth="yes"/>
      <point x="-14" y="604"/>
      <point x="14" y="641"/>
      <point x="25" y="725" type="curve"/>
      <point x="9" y="725" type="line"/>
      <point x="1" y="659"/>
      <point x="-26" y="621"/>
      <point x="-65" y="621" type="curve" smooth="yes"/>
      <point x="-97" y="621"/>
      <point x="-112" y="642"/>
      <point x="-112" y="685" type="curve" smooth="yes"/>
      <point x="-112" y="701"/>
      <point x="-111" y="713"/>
      <point x="-108" y="725" type="curve"/>
      <point x="-123" y="725" type="line"/>
      <point x="-126" y="714"/>
      <point x="-128" y="695"/>
      <point x="-128" y="678" type="curve" smooth="yes"/>
      <point x="-128" y="627"/>
      <point x="-109" y="604"/>
    </contour>
  </outline>
</glyph>
<glyph name="hookabovecomb" format="2">
  <unicode hex="0309"/>
  <anchor x="-80" y="530" name="_top"/>
  <anchor x="-34" y="794" name="top"/>
  <outline>
    <contour>
      <point x="-69" y="608" type="line"/>
      <point x="-17" y="657"/>
      <point x="5" y="699"/>
      <point x="5" y="740" type="curve" smooth="yes"/>
      <point x="5" y="775"/>
      <point x="-14" y="794"/>
      <point x="-40" y="794" type="curve" smooth="yes"/>
      <point x="-58" y="794"/>
      <point x="-77" y="787"/>
      <point x="-93" y="765" type="curve"/>
      <point x="-81" y="755" type="line"/>
      <point x="-68" y="772"/>
      <point x="-55" y="777"/>
      <point x="-42" y="777" type="curve" smooth="yes"/>
      <point x="-25" y="777"/>
      <point x="-13" y="762"/>
      <point x="-13" y="738" type="curve" smooth="yes"/>
      <point x="-13" y="704"/>
      <point x="-32" y="662"/>
      <point x="-80" y="618" type="curve"/>
    </contour>
  </outline>
</glyph>
<glyph name="uni030A" format="2">
  <unicode hex="030A"/>
  <anchor x="-80" y="530" name="_top"/>
  <anchor x="-47" y="739" name="top"/>
  <outline>
    <contour>
      <point x="-65" y="617" type="curve" smooth="yes"/>
      <point x="-30" y="617"/>
      <point x="-1" y="653"/>
      <point x="-1" y="714" type="curve" smooth="yes"/>
      <point x="-1" y="754"/>
      <point x="-16" y="773"/>
      <point x="-42" y="773" type="curve" smooth="yes"/>
      <point x="-78" y="773"/>
      <point x="-106" y="736"/>
      <point x="-106" y="673" type="curve" smooth="yes"/>
      <point x="-106" y="635"/>
      <point x="-91" y="617"/>
    </contour>
    <contour>
      <point x="-62" y="634" type="curve" smooth="yes"/>
      <point x="-79" y="634"/>
      <point x="-88" y="647"/>
      <point x="-88" y="669" type="curve" smooth="yes"/>
      <point x="-88" y="722"/>
      <point x="-70" y="756"/>
      <point x="-45" y="756" type="curve" smooth="yes"/>
      <point x="-28" y="756"/>
      <point x="-19" y="742"/>
      <point x="-19" y="719" type="curve" smooth="yes"/>
      <point x="-19" y="667"/>
      <point x="-38" y="634"/>
    </contour>
  </outline>
</glyph>
<glyph name="uni030F" format="2">
  <unicode hex="030F"/>
  <anchor x="-80" y="530" name="_top"/>
  <anchor x="-80" y="790" name="top"/>
  <outline>
    <contour>
      <point x="-109" y="596" type="line"/>
      <point x="-93" y="596" type="line"/>
      <point x="-124" y="790" type="line"/>
      <point x="-144" y="790" type="line"/>
    </contour>
    <contour>
      <point x="-41" y="596" type="line"/>
      <point x="-25" y="596" type="line"/>
      <point x="-56" y="790" type="line"/>
      <point x="-76" y="790" type="line"/>
    </contour>
  </outline>
</glyph>
<glyph name="uni0312" format="2">
  <unicode hex="0312"/>
  <anchor x="-80" y="530" name="_top"/>
  <outline>
    <contour>
      <point x="-59" y="595" type="line"/>
      <point x="-61" y="605"/>
      <point x="-61" y="616"/>
      <point x="-61" y="627" type="curve" smooth="yes"/>
      <point x="-61" y="678"/>
      <point x="-45" y="738"/>
      <point x="-20" y="790" type="curve"/>
      <point x="-36" y="790" type="line"/>
      <point x="-62" y="739"/>
      <point x="-78" y="675"/>
      <point x="-78" y="625" type="curve" smooth="yes"/>
      <point x="-78" y="614"/>
      <point x="-78" y="604"/>
      <point x="-76" y="595" type="curve"/>
    </contour>
  </outline>
</glyph>
<glyph name="uni031B" format="2">
  <unicode hex="031B"/>
  <anchor x="-38" y="530" name="_topright"/>
  <anchor x="81" y="685" name="topright"/>
  <outline>
    <contour>
      <point x="-45" y="513" type="line"/>
      <point x="-38" y="513" type="line" smooth="yes"/>
      <point x="23" y="513"/>
      <point x="56" y="592"/>
      <point x="34" y="684" type="curve"/>
      <point x="15" y="681" type="line"/>
      <point x="36" y="600"/>
      <point x="11" y="530"/>
      <point x="-38" y="530" type="curve" smooth="yes"/>
      <point x="-48" y="530" type="line"/>
    </contour>
  </outline>
</glyph>
<glyph name="uni0327" format="2">
  <unicode hex="0327"/>
  <anchor x="-166" y="0" name="_bottom"/>
  <anchor x="-206" y="-220" name="bottom"/>
  <outline>
    <contour>
      <point x="-237" y="-210" type="line"/>
      <point x="-227" y="-218"/>
      <point x="-215" y="-220"/>
      <point x="-206" y="-220" type="curve" smooth="yes"/>
      <point x="-163" y="-220"/>
      <point x="-146" y="-162"/>
      <point x="-146" y="-109" type="curve" smooth="yes"/>
      <point x="-146" y="-73"/>
      <point x="-151" y="-34"/>
      <point x="-159" y="0" type="curve"/>
      <point x="-177" y="0" type="line"/>
      <point x="-169" y="-40"/>
      <point x="-164" y="-77"/>
      <point x="-164" y="-108" type="curve" smooth="yes"/>
      <point x="-164" y="-167"/>
      <point x="-181" y="-203"/>
      <point x="-206" y="-203" type="curve" smooth="yes"/>
      <point x="-214" y="-203"/>
      <point x="-222" y="-200"/>
      <point x="-229" y="-195" type="curve"/>
    </contour>
  </outline>
</glyph>
<glyph name="uni0335" format="2">
  <unicode hex="0335"/>
  <anchor x="-41" y="350" name="_center"/>
  <outline>
    <contour>
      <point x="-137" y="340" type="line"/>
      <point x="51" y="340" type="line"/>
      <point x="55" y="360" type="line"/>
      <point x="-133" y="360" type="line"/>
    </contour>
  </outline>
</glyph>
<glyph name="quoteleft" format="2">
  <advance width="102"/>
  <unicode hex="2018"/>
  <outline>
    <contour>
      <point x="52" y="430" type="curve"/>
      <point x="69" y="430" type="line"/>
      <point x="80" y="530"/>
      <point x="107" y="618"/>
      <point x="157" y="700" type="curve"/>
      <point x="140" y="700" type="line"/>
      <point x="93" y="629"/>
      <point x="60" y="524"/>
    </contour>
  </outline>
</glyph>
<glyph name="quoteright" format="2">
  <advance width="102"/>
  <unicode hex="2019"/>
  <outline>
    <contour>
      <point x="142" y="700" type="curve"/>
      <point x="125" y="700" type="line"/>
      <point x="114" y="600"/>
      <point x="87" y="512"/>
      <point x="37" y="430" type="curve"/>
      <point x="54" y="430" type="line"/>
      <point x="101" y="501"/>
      <point x="134" y="606"/>
    </contour>
  </outline>
</glyph>
<glyph name="bullet" format="2">
  <advance width="200"/>
  <unicode hex="2022"/>
  <outline>
    <contour>
      <point x="94" y="242" type="curve" smooth="yes"/>
      <point x="133" y="242"/>
      <point x="174" y="282"/>
      <point x="174" y="328" type="curve" smooth="yes"/>
      <point x="174" y="363"/>
      <point x="150" y="390"/>
      <point x="117" y="390" type="curve" smooth="yes"/>
      <point x="76" y="390"/>
      <point x="38" y="349"/>
      <point x="38" y="302" type="curve" smooth="yes"/>
      <point x="38" y="268"/>
      <point x="61" y="242"/>
    </contour>
  </outline>
</glyph>
<glyph name="guilsinglleft" format="2">
  <advance width="114"/>
  <unicode hex="2039"/>
  <outline>
    <contour>
      <point x="47" y="62" type="line"/>
      <point x="64" y="69" type="line"/>
      <point x="38" y="270" type="line"/>
      <point x="127" y="471" type="line"/>
      <point x="112" y="478" type="line"/>
      <point x="19" y="273" type="line"/>
      <point x="18" y="267" type="line"/>
    </contour>
  </outline>
</glyph>
<glyph name="uni2052" format="2">
  <advance width="250"/>
  <unicode hex="2052"/>
  <outline>
    <contour>
      <point x="-34" y="4" type="line"/>
      <point x="-18" y="-3" type="line"/>
      <point x="308" y="696" type="line"/>
      <point x="292" y="703" type="line"/>
    </contour>
    <component base="period" xOffset="103" yOffset="666"/>
    <component base="period" xOffset="164"/>
  </outline>
</glyph>
<glyph name="uni2075" format="2">
  <advance width="197"/>
  <unicode hex="2075"/>
  <outline>
    <contour>
      <point x="59" y="397" type="line"/>
      <point x="69" y="376"/>
      <point x="86" y="364"/>
      <point x="105" y="364" type="curve" smooth="yes"/>
      <point x="155" y="364"/>
      <point x="194" y="431"/>
      <point x="194" y="518" type="curve" smooth="yes"/>
      <point x="194" y="564"/>
      <point x="177" y="589"/>
      <point x="145" y="589" type="curve" smooth="yes"/>
      <point x="120" y="589" type="line"/>
      <point x="152" y="754" type="line"/>
      <point x="221" y="754" type="line"/>
      <point x="223" y="770" type="line"/>
      <point x="139" y="770" type="line"/>
      <point x="101" y="581" type="line"/>
      <point x="107" y="573" type="line"/>
      <point x="144" y="573" type="line" smooth="yes"/>
      <point x="166" y="573"/>
      <point x="177" y="555"/>
      <point x="177" y="516" type="curve" smooth="yes"/>
      <point x="177" y="441"/>
      <point x="146" y="381"/>
      <point x="107" y="381" type="curve" smooth="yes"/>
      <point x="91" y="381"/>
      <point x="80" y="394"/>
      <point x="74" y="404" type="curve"/>
    </contour>
  </outline>
</glyph>
<glyph name="uni2078" format="2">
  <advance width="226"/>
  <unicode hex="2078"/>
  <outline>
    <contour>
      <point x="137" y="364" type="curve" smooth="yes"/>
      <point x="173" y="364"/>
      <point x="207" y="401"/>
      <point x="207" y="469" type="curve" smooth="yes"/>
      <point x="207" y="585"/>
      <point x="135" y="581"/>
      <point x="135" y="674" type="curve" smooth="yes"/>
      <point x="135" y="701"/>
      <point x="147" y="758"/>
      <point x="186" y="758" type="curve" smooth="yes"/>
      <point x="206" y="758"/>
      <point x="220" y="744"/>
      <point x="220" y="710" type="curve" smooth="yes"/>
      <point x="220" y="664"/>
      <point x="205" y="610"/>
      <point x="162" y="582" type="curve"/>
      <point x="172" y="571" type="line"/>
      <point x="218" y="599"/>
      <point x="236" y="663"/>
      <point x="236" y="710" type="curve" smooth="yes"/>
      <point x="236" y="752"/>
      <point x="219" y="774"/>
      <point x="187" y="774" type="curve" smooth="yes"/>
      <point x="135" y="774"/>
      <point x="118" y="708"/>
      <point x="118" y="668" type="curve" smooth="yes"/>
      <point x="118" y="583"/>
      <point x="190" y="565"/>
      <point x="190" y="469" type="curve" smooth="yes"/>
      <point x="190" y="410"/>
      <point x="168" y="381"/>
      <point x="138" y="381" type="curve" smooth="yes"/>
      <point x="116" y="381"/>
      <point x="94" y="395"/>
      <point x="94" y="445" type="curve" smooth="yes"/>
      <point x="94" y="490"/>
      <point x="108" y="547"/>
      <point x="154" y="578" type="curve"/>
      <point x="146" y="590" type="line"/>
      <point x="92" y="554"/>
      <point x="77" y="491"/>
      <point x="77" y="442" type="curve" smooth="yes"/>
      <point x="77" y="387"/>
      <point x="102" y="364"/>
    </contour>
  </outline>
</glyph>
<glyph name="uni207E" format="2">
  <advance width="109"/>
  <unicode hex="207E"/>
  <outline>
    <contour>
      <point x="132" y="718" type="curve" smooth="yes"/>
      <point x="132" y="785"/>
      <point x="120" y="828"/>
      <point x="97" y="837" type="curve"/>
      <point x="95" y="817" type="line"/>
      <point x="108" y="806"/>
      <point x="116" y="774"/>
      <point x="116" y="723" type="curve" smooth="yes"/>
      <point x="116" y="612"/>
      <point x="72" y="350"/>
      <point x="12" y="302" type="curve"/>
      <point x="10" y="279" type="line"/>
      <point x="84" y="314"/>
      <point x="132" y="590"/>
    </contour>
  </outline>
</glyph>
<glyph name="n.superior" format="2">
  <advance width="175"/>
  <unicode hex="207F"/>
  <outline>
    <contour>
      <point x="165" y="364" type="curve" smooth="yes"/>
      <point x="172" y="364"/>
      <point x="177" y="365"/>
      <point x="187" y="370" type="curve"/>
      <point x="185" y="384" type="line"/>
      <point x="175" y="381"/>
      <point x="170" y="380"/>
      <point x="168" y="380" type="curve" smooth="yes"/>
      <point x="159" y="380"/>
      <point x="156" y="384"/>
      <point x="156" y="391" type="curve" smooth="yes"/>
      <point x="156" y="407"/>
      <point x="194" y="621"/>
      <point x="194" y="635" type="curve" smooth="yes"/>
      <point x="194" y="660"/>
      <point x="184" y="677"/>
      <point x="157" y="677" type="curve" smooth="yes"/>
      <point x="144" y="677"/>
      <point x="130" y="672"/>
      <point x="118" y="666" type="curve"/>
      <point x="118" y="672" type="line"/>
      <point x="101" y="672" type="line"/>
      <point x="54" y="370" type="line"/>
      <point x="71" y="370" type="line"/>
      <point x="115" y="648" type="line"/>
      <point x="125" y="655"/>
      <point x="143" y="662"/>
      <point x="152" y="662" type="curve" smooth="yes"/>
      <point x="173" y="662"/>
      <point x="177" y="649"/>
      <point x="177" y="634" type="curve" smooth="yes"/>
      <point x="177" y="614"/>
      <point x="140" y="409"/>
      <point x="140" y="389" type="curve" smooth="yes"/>
      <point x="140" y="373"/>
      <point x="152" y="364"/>
    </contour>
  </outline>
</glyph>
<glyph name="colonmonetary" format="2">
  <advance width="250"/>
  <unicode hex="20A1"/>
  <outline>
    <contour>
      <point x="154" y="-10" type="curve" smooth="yes"/>
      <point x="177" y="-10"/>
      <point x="195" y="-7"/>
      <point x="208" y="-2" type="curve"/>
      <point x="203" y="15" type="line"/>
      <point x="190" y="11"/>
      <point x="174" y="9"/>
      <point x="155" y="9" type="curve" smooth="yes"/>
      <point x="91" y="9"/>
      <point x="63" y="56"/>
      <point x="63" y="167" type="curve" smooth="yes"/>
      <point x="63" y="459"/>
      <point x="143" y="691"/>
      <point x="247" y="691" type="curve" smooth="yes"/>
      <point x="263" y="691"/>
      <point x="279" y="688"/>
      <point x="299" y="682" type="curve"/>
      <point x="306" y="700" type="line"/>
      <point x="292" y="707"/>
      <point x="272" y="710"/>
      <point x="250" y="710" type="curve" smooth="yes"/>
      <point x="130" y="710"/>
      <point x="44" y="482"/>
      <point x="44" y="166" type="curve" smooth="yes"/>
      <point x="44" y="42"/>
      <point x="75" y="-10"/>
    </contour>
    <contour>
      <point x="227" y="703" type="line"/>
      <point x="245" y="697" type="line"/>
      <point x="268" y="805" type="line"/>
      <point x="250" y="805" type="line"/>
    </contour>
    <contour>
      <point x="273" y="703" type="line"/>
      <point x="291" y="697" type="line"/>
      <point x="314" y="805" type="line"/>
      <point x="296" y="805" type="line"/>
    </contour>
    <contour>
      <point x="76" y="-105" type="line"/>
      <point x="94" y="-105" type="line"/>
      <point x="118" y="7" type="line"/>
      <point x="100" y="6" type="line"/>
    </contour>
    <contour>
      <point x="122" y="-105" type="line"/>
      <point x="140" y="-105" type="line"/>
      <point x="163" y="3" type="line"/>
      <point x="145" y="2" type="line"/>
    </contour>
  </outline>
</glyph>
<glyph name="lira" format="2">
  <advance width="250"/>
  <unicode hex="20A4"/>
  <outline>
    <contour>
      <point x="18" y="0" type="line"/>
      <point x="172" y="0" type="line"/>
      <point x="175" y="20" type="line"/>
      <point x="43" y="20" type="line"/>
      <point x="96" y="99"/>
      <point x="135" y="176"/>
      <point x="135" y="294" type="curve" smooth="yes"/>
      <point x="135" y="358"/>
      <point x="120" y="408"/>
      <point x="120" y="472" type="curve" smooth="yes"/>
      <point x="120" y="633"/>
      <point x="181" y="690"/>
      <point x="219" y="690" type="curve" smooth="yes"/>
      <point x="240" y="690"/>
      <point x="256" y="685"/>
      <point x="272" y="675" type="curve"/>
      <point x="282" y="693" type="line"/>
      <point x="268" y="703"/>
      <point x="249" y="710"/>
      <point x="230" y="710" type="curve" smooth="yes"/>
      <point x="160" y="710"/>
      <point x="102" y="639"/>
      <point x="102" y="478" type="curve" smooth="yes"/>
      <point x="102" y="392"/>
      <point x="116" y="365"/>
      <point x="116" y="288" type="curve" smooth="yes"/>
      <point x="116" y="170"/>
      <point x="73" y="98"/>
      <point x="18" y="20" type="curve"/>
    </contour>
    <contour>
      <point x="44" y="291" type="line"/>
      <point x="204" y="291" type="line"/>
      <point x="207" y="310" type="line"/>
      <point x="47" y="310" type="line"/>
    </contour>
    <contour>
      <point x="60" y="391" type="line"/>
      <point x="220" y="391" type="line"/>
      <point x="223" y="410" type="line"/>
      <point x="63" y="410" type="line"/>
    </contour>
  </outline>
</glyph>
<glyph name="uni20A6" format="2">
  <advance width="250"/>
  <unicode hex="20A6"/>
  <outline>
    <contour>
      <point x="-2" y="0" type="line"/>
      <point x="17" y="0" type="line"/>
      <point x="121" y="668" type="line"/>
      <point x="136" y="0" type="line"/>
      <point x="164" y="0" type="line"/>
      <point x="275" y="700" type="line"/>
      <point x="256" y="700" type="line"/>
      <point x="152" y="31" type="line"/>
      <point x="137" y="700" type="line"/>
      <point x="108" y="700" type="line"/>
    </contour>
    <contour>
      <point x="14" y="341" type="line"/>
      <point x="58" y="341" type="line"/>
      <point x="61" y="360" type="line"/>
      <point x="17" y="360" type="line"/>
    </contour>
    <contour>
      <point x="212" y="341" type="line"/>
      <point x="256" y="341" type="line"/>
      <point x="259" y="360" type="line"/>
      <point x="215" y="360" type="line"/>
    </contour>
  </outline>
</glyph>
<glyph name="uni20A9" format="2">
  <advance width="250"/>
  <unicode hex="20A9"/>
  <outline>
    <contour>
      <point x="13" y="0" type="line"/>
      <point x="36" y="0" type="line"/>
      <point x="184" y="647" type="line"/>
      <point x="127" y="0" type="line"/>
      <point x="150" y="0" type="line"/>
      <point x="309" y="701" type="line"/>
      <point x="291" y="702" type="line"/>
      <point x="149" y="65" type="line"/>
      <point x="205" y="700" type="line"/>
      <point x="180" y="700" type="line"/>
      <point x="35" y="65" type="line"/>
      <point x="95" y="702" type="line"/>
      <point x="75" y="700" type="line"/>
    </contour>
    <contour>
      <point x="13" y="338" type="line"/>
      <point x="49" y="338" type="line"/>
      <point x="52" y="356" type="line"/>
      <point x="16" y="356" type="line"/>
    </contour>
    <contour>
      <point x="221" y="338" type="line"/>
      <point x="257" y="338" type="line"/>
      <point x="260" y="356" type="line"/>
      <point x="224" y="356" type="line"/>
    </contour>
  </outline>
</glyph>
<glyph name="uni20AD" format="2">
  <advance width="250"/>
  <unicode hex="20AD"/>
  <outline>
    <contour>
      <point x="196" y="-9" type="curve" smooth="yes"/>
      <point x="200" y="-9"/>
      <point x="204" y="-8"/>
      <point x="208" y="-6" type="curve"/>
      <point x="204" y="13" type="line"/>
      <point x="202" y="12"/>
      <point x="200" y="11"/>
      <point x="196" y="11" type="curve" smooth="yes"/>
      <point x="184" y="11"/>
      <point x="173" y="23"/>
      <point x="154" y="113" type="curve" smooth="yes"/>
      <point x="104" y="347" type="line"/>
      <point x="236" y="347" type="line"/>
      <point x="239" y="366" type="line"/>
      <point x="111" y="366" type="line"/>
      <point x="167" y="436"/>
      <point x="254" y="558"/>
      <point x="300" y="698" type="curve"/>
      <point x="283" y="702" type="line"/>
      <point x="236" y="554"/>
      <point x="147" y="435"/>
      <point x="87" y="365" type="curve"/>
      <point x="140" y="700" type="line"/>
      <point x="120" y="700" type="line"/>
      <point x="68" y="366" type="line"/>
      <point x="20" y="366" type="line"/>
      <point x="17" y="347" type="line"/>
      <point x="65" y="347" type="line"/>
      <point x="10" y="0" type="line"/>
      <point x="29" y="0" type="line"/>
      <point x="84" y="348" type="line"/>
      <point x="137" y="107" type="line" smooth="yes"/>
      <point x="158" y="14"/>
      <point x="169" y="-9"/>
    </contour>
  </outline>
</glyph>
<glyph name="uni20B1" format="2">
  <advance width="250"/>
  <unicode hex="20B1"/>
  <outline>
    <contour>
      <point x="-2" y="0" type="line"/>
      <point x="17" y="0" type="line"/>
      <point x="64" y="295" type="line"/>
      <point x="72" y="294"/>
      <point x="81" y="294"/>
      <point x="106" y="294" type="curve" smooth="yes"/>
      <point x="193" y="294"/>
      <point x="250" y="416"/>
      <point x="250" y="587" type="curve" smooth="yes"/>
      <point x="250" y="676"/>
      <point x="219" y="710"/>
      <point x="172" y="710" type="curve" smooth="yes"/>
      <point x="153" y="710"/>
      <point x="132" y="708"/>
      <point x="109" y="704" type="curve"/>
    </contour>
    <contour>
      <point x="126" y="687" type="line"/>
      <point x="139" y="690"/>
      <point x="154" y="691"/>
      <point x="171" y="691" type="curve" smooth="yes"/>
      <point x="208" y="691"/>
      <point x="231" y="666"/>
      <point x="231" y="584" type="curve" smooth="yes"/>
      <point x="231" y="433"/>
      <point x="179" y="313"/>
      <point x="106" y="313" type="curve" smooth="yes"/>
      <point x="95" y="313"/>
      <point x="80" y="314"/>
      <point x="67" y="315" type="curve"/>
    </contour>
    <contour>
      <point x="45" y="530" type="line"/>
      <point x="95" y="530" type="line"/>
      <point x="98" y="549" type="line"/>
      <point x="48" y="549" type="line"/>
    </contour>
    <contour>
      <point x="238" y="530" type="line"/>
      <point x="285" y="530" type="line"/>
      <point x="288" y="549" type="line"/>
      <point x="241" y="549" type="line"/>
    </contour>
    <contour>
      <point x="32" y="446" type="line"/>
      <point x="82" y="446" type="line"/>
      <point x="85" y="465" type="line"/>
      <point x="35" y="465" type="line"/>
    </contour>
    <contour>
      <point x="225" y="446" type="line"/>
      <point x="272" y="446" type="line"/>
      <point x="275" y="465" type="line"/>
      <point x="228" y="465" type="line"/>
    </contour>
  </outline>
</glyph>
<glyph name="uni20BC" format="2">
  <advance width="250"/>
  <unicode hex="20BC"/>
  <outline>
    <contour>
      <point x="-18" y="0" type="curve"/>
      <point x="1" y="0" type="line"/>
      <point x="62" y="362"/>
      <point x="100" y="641"/>
      <point x="181" y="641" type="curve" smooth="yes"/>
      <point x="212" y="641"/>
      <point x="227" y="624"/>
      <point x="227" y="543" type="curve" smooth="yes"/>
      <point x="227" y="457"/>
      <point x="193" y="169"/>
      <point x="161" y="0" type="curve"/>
      <point x="180" y="0" type="line"/>
      <point x="212" y="183"/>
      <point x="243" y="454"/>
      <point x="243" y="539" type="curve" smooth="yes"/>
      <point x="243" y="639"/>
      <point x="223" y="660"/>
      <point x="183" y="660" type="curve" smooth="yes"/>
      <point x="79" y="660"/>
      <point x="42" y="351"/>
    </contour>
    <contour>
      <point x="85" y="88" type="line"/>
      <point x="103" y="88" type="line"/>
      <point x="202" y="710" type="line"/>
      <point x="184" y="710" type="line"/>
    </contour>
  </outline>
</glyph>
<glyph name="estimated" format="2">
  <advance width="833"/>
  <unicode hex="212E"/>
  <outline>
    <contour>
      <point x="185" y="114" type="curve"/>
      <point x="185" y="339" type="line"/>
      <point x="790" y="339" type="line"/>
      <point x="790" y="343"/>
      <point x="790" y="346"/>
      <point x="790" y="350" type="curve" smooth="yes"/>
      <point x="790" y="548"/>
      <point x="628" y="710"/>
      <point x="430" y="710" type="curve" smooth="yes"/>
      <point x="231" y="710"/>
      <point x="70" y="548"/>
      <point x="70" y="350" type="curve" smooth="yes"/>
      <point x="70" y="151"/>
      <point x="231" y="-10"/>
      <point x="430" y="-10" type="curve" smooth="yes"/>
      <point x="583" y="-10"/>
      <point x="708" y="84"/>
      <point x="762" y="212" type="curve"/>
      <point x="740" y="212" type="line"/>
      <point x="688" y="95"/>
      <point x="572" y="10"/>
      <point x="430" y="10" type="curve" smooth="yes"/>
      <point x="333" y="10"/>
      <point x="247" y="50"/>
    </contour>
    <contour>
      <point x="185" y="359" type="line"/>
      <point x="185" y="585" type="line"/>
      <point x="247" y="649"/>
      <point x="333" y="690"/>
      <point x="430" y="690" type="curve" smooth="yes"/>
      <point x="532" y="690"/>
      <point x="623" y="644"/>
      <point x="686" y="573" type="curve"/>
      <point x="686" y="359" type="line"/>
    </contour>
  </outline>
</glyph>
<glyph name="summation" format="2">
  <advance width="221"/>
  <unicode hex="2211"/>
  <outline>
    <contour>
      <point x="-50" y="-210" type="line"/>
      <point x="117" y="-210" type="line"/>
      <point x="120" y="-192" type="line"/>
      <point x="-26" y="-192" type="line"/>
      <point x="169" y="287" type="line"/>
      <point x="170" y="293" type="line"/>
      <point x="113" y="682" type="line"/>
      <point x="255" y="682" type="line"/>
      <point x="256" y="700" type="line"/>
      <point x="95" y="700" type="line"/>
      <point x="95" y="682" type="line"/>
      <point x="152" y="292" type="line"/>
      <point x="-47" y="-192" type="line"/>
    </contour>
  </outline>
</glyph>
<glyph name="minus" format="2">
  <advance width="340"/>
  <unicode hex="2212"/>
  <outline>
    <contour>
      <point x="40" y="279" type="line"/>
      <point x="302" y="279" type="line"/>
      <point x="305" y="298" type="line"/>
      <point x="43" y="298" type="line"/>
    </contour>
  </outline>
</glyph>
<glyph name="radical" format="2">
  <advance width="272"/>
  <unicode hex="221A"/>
  <outline>
    <contour>
      <point x="60" y="512" type="line"/>
      <point x="115" y="512" type="line"/>
      <point x="91" y="-10" type="line"/>
      <point x="107" y="-10" type="line"/>
      <point x="325" y="750" type="line"/>
      <point x="305" y="750" type="line"/>
      <point x="110" y="64" type="line"/>
      <point x="135" y="530" type="line"/>
      <point x="62" y="530" type="line"/>
    </contour>
  </outline>
</glyph>
<glyph name="infinity" format="2">
  <advance width="483"/>
  <unicode hex="221E"/>
  <outline>
    <contour>
      <point x="112" y="209" type="curve" smooth="yes"/>
      <point x="163" y="209"/>
      <point x="210" y="266"/>
      <point x="252" y="336" type="curve"/>
      <point x="277" y="243"/>
      <point x="300" y="209"/>
      <point x="346" y="209" type="curve" smooth="yes"/>
      <point x="410" y="209"/>
      <point x="476" y="276"/>
      <point x="476" y="399" type="curve" smooth="yes"/>
      <point x="476" y="462"/>
      <point x="446" y="501"/>
      <point x="399" y="501" type="curve" smooth="yes"/>
      <point x="348" y="501"/>
      <point x="301" y="441"/>
      <point x="258" y="373" type="curve"/>
      <point x="233" y="463"/>
      <point x="211" y="501"/>
      <point x="163" y="501" type="curve" smooth="yes"/>
      <point x="98" y="501"/>
      <point x="33" y="434"/>
      <point x="33" y="316" type="curve" smooth="yes"/>
      <point x="33" y="248"/>
      <point x="62" y="209"/>
    </contour>
    <contour>
      <point x="110" y="226" type="curve" smooth="yes"/>
      <point x="76" y="226"/>
      <point x="50" y="257"/>
      <point x="50" y="321" type="curve" smooth="yes"/>
      <point x="50" y="426"/>
      <point x="108" y="484"/>
      <point x="158" y="484" type="curve" smooth="yes"/>
      <point x="201" y="484"/>
      <point x="221" y="451"/>
      <point x="246" y="356" type="curve"/>
      <point x="194" y="274"/>
      <point x="154" y="226"/>
    </contour>
    <contour>
      <point x="396" y="485" type="curve" smooth="yes"/>
      <point x="434" y="485"/>
      <point x="460" y="453"/>
      <point x="460" y="395" type="curve" smooth="yes"/>
      <point x="460" y="288"/>
      <point x="402" y="224"/>
      <point x="350" y="224" type="curve" smooth="yes"/>
      <point x="311" y="224"/>
      <point x="290" y="256"/>
      <point x="263" y="353" type="curve"/>
      <point x="314" y="435"/>
      <point x="361" y="485"/>
    </contour>
  </outline>
</glyph>
<glyph name="integral" format="2">
  <advance width="269"/>
  <unicode hex="222B"/>
  <outline>
    <contour>
      <point x="-35" y="-220" type="curve" smooth="yes"/>
      <point x="52" y="-220"/>
      <point x="82" y="-110"/>
      <point x="107" y="46" type="curve" smooth="yes"/>
      <point x="176" y="486" type="line" smooth="yes"/>
      <point x="204" y="662"/>
      <point x="238" y="731"/>
      <point x="297" y="731" type="curve" smooth="yes"/>
      <point x="309" y="731"/>
      <point x="320" y="730"/>
      <point x="333" y="725" type="curve"/>
      <point x="339" y="743" type="line"/>
      <point x="325" y="748"/>
      <point x="312" y="750"/>
      <point x="300" y="750" type="curve" smooth="yes"/>
      <point x="227" y="750"/>
      <point x="189" y="679"/>
      <point x="158" y="484" type="curve" smooth="yes"/>
      <point x="88" y="44" type="line" smooth="yes"/>
      <point x="54" y="-166"/>
      <point x="17" y="-201"/>
      <point x="-32" y="-201" type="curve" smooth="yes"/>
      <point x="-44" y="-201"/>
      <point x="-54" y="-200"/>
      <point x="-67" y="-195" type="curve"/>
      <point x="-73" y="-213" type="line"/>
      <point x="-59" y="-218"/>
      <point x="-46" y="-220"/>
    </contour>
  </outline>
</glyph>
<glyph name="notequal" format="2">
  <advance width="340"/>
  <unicode hex="2260"/>
  <outline>
    <contour>
      <point x="74" y="97" type="line"/>
      <point x="120" y="177" type="line"/>
      <point x="286" y="177" type="line"/>
      <point x="289" y="197" type="line"/>
      <point x="131" y="197" type="line"/>
      <point x="238" y="384" type="line"/>
      <point x="318" y="384" type="line"/>
      <point x="321" y="404" type="line"/>
      <point x="250" y="404" type="line"/>
      <point x="285" y="465" type="line"/>
      <point x="267" y="475" type="line"/>
      <point x="226" y="404" type="line"/>
      <point x="59" y="404" type="line"/>
      <point x="56" y="384" type="line"/>
      <point x="215" y="384" type="line"/>
      <point x="108" y="197" type="line"/>
      <point x="27" y="197" type="line"/>
      <point x="24" y="177" type="line"/>
      <point x="97" y="177" type="line"/>
      <point x="57" y="107" type="line"/>
    </contour>
  </outline>
</glyph>
<glyph name="lessequal" format="2">
  <advance width="308"/>
  <unicode hex="2264"/>
  <outline>
    <contour>
      <point x="257" y="106" type="line"/>
      <point x="260" y="127" type="line"/>
      <point x="42" y="298" type="line"/>
      <point x="317" y="477" type="line"/>
      <point x="320" y="500" type="line"/>
      <point x="30" y="311" type="line"/>
      <point x="26" y="287" type="line"/>
    </contour>
    <contour>
      <point x="-9" y="74" type="line"/>
      <point x="253" y="74" type="line"/>
      <point x="256" y="92" type="line"/>
      <point x="-5" y="92" type="line"/>
    </contour>
  </outline>
</glyph>
<glyph name="greaterequal" format="2">
  <advance width="308"/>
  <unicode hex="2265"/>
  <outline>
    <contour>
      <point x="289" y="286" type="line"/>
      <point x="293" y="310" type="line"/>
      <point x="59" y="500" type="line"/>
      <point x="56" y="479" type="line"/>
      <point x="275" y="300" type="line"/>
      <point x="0" y="130" type="line"/>
      <point x="-3" y="107" type="line"/>
    </contour>
    <contour>
      <point x="258" y="92" type="line"/>
      <point x="-5" y="92" type="line"/>
      <point x="-8" y="74" type="line"/>
      <point x="255" y="74" type="line"/>
    </contour>
  </outline>
</glyph>
<glyph name="filledbox" format="2">
  <advance width="347"/>
  <unicode hex="25A0"/>
  <outline>
    <contour>
      <point x="75" y="208" type="line"/>
      <point x="284" y="208" type="line"/>
      <point x="284" y="417" type="line"/>
      <point x="75" y="417" type="line"/>
    </contour>
  </outline>
</glyph>
<glyph name="uni25A1" format="2">
  <advance width="347"/>
  <unicode hex="25A1"/>
  <outline>
    <contour>
      <point x="75" y="208" type="line"/>
      <point x="284" y="208" type="line"/>
      <point x="284" y="417" type="line"/>
      <point x="75" y="417" type="line"/>
    </contour>
    <contour>
      <point x="95" y="228" type="line"/>
      <point x="95" y="397" type="line"/>
      <point x="264" y="397" type="line"/>
      <point x="264" y="228" type="line"/>
    </contour>
  </outline>
</glyph>
<glyph name="triagup" format="2">
  <advance width="347"/>
  <unicode hex="25B2"/>
  <outline>
    <contour>
      <point x="62" y="171" type="line"/>
      <point x="297" y="171" type="line"/>
      <point x="180" y="428" type="line"/>
    </contour>
  </outline>
</glyph>
<glyph name="uni25B7" format="2">
  <advance width="347"/>
  <unicode hex="25B7"/>
  <outline>
    <contour>
      <point x="66" y="182" type="line"/>
      <point x="323" y="299" type="line"/>
      <point x="66" y="417" type="line"/>
    </contour>
    <contour>
      <point x="86" y="213" type="line"/>
      <point x="86" y="386" type="line"/>
      <point x="276" y="299" type="line"/>
    </contour>
  </outline>
</glyph>
<glyph name="triagdn" format="2">
  <advance width="347"/>
  <unicode hex="25BC"/>
  <outline>
    <contour>
      <point x="180" y="171" type="line"/>
      <point x="297" y="428" type="line"/>
      <point x="62" y="428" type="line"/>
    </contour>
  </outline>
</glyph>
<glyph name="uni25BD" format="2">
  <advance width="347"/>
  <unicode hex="25BD"/>
  <outline>
    <contour>
      <point x="180" y="171" type="line"/>
      <point x="297" y="428" type="line"/>
      <point x="62" y="428" type="line"/>
    </contour>
    <contour>
      <point x="179" y="218" type="line"/>
      <point x="93" y="408" type="line"/>
      <point x="266" y="408" type="line"/>
    </contour>
  </outline>
</glyph>
<glyph name="uni25C0" format="2">
  <advance width="347"/>
  <unicode hex="25C0"/>
  <outline>
    <contour>
      <point x="36" y="299" type="line"/>
      <point x="293" y="182" type="line"/>
      <point x="293" y="417" type="line"/>
    </contour>
  </outline>
</glyph>
<glyph name="uni25C7" format="2">
  <advance width="347"/>
  <unicode hex="25C7"/>
  <outline>
    <contour>
      <point x="32" y="313" type="line"/>
      <point x="179" y="165" type="line"/>
      <point x="327" y="313" type="line"/>
      <point x="179" y="460" type="line"/>
    </contour>
    <contour>
      <point x="60" y="313" type="line"/>
      <point x="179" y="432" type="line"/>
      <point x="299" y="313" type="line"/>
      <point x="179" y="193" type="line"/>
    </contour>
  </outline>
</glyph>
<glyph name="lozenge" format="2">
  <advance width="300"/>
  <unicode hex="25CA"/>
  <outline>
    <contour>
      <point x="156" y="688" type="line"/>
      <point x="266" y="350" type="line"/>
      <point x="156" y="12" type="line"/>
      <point x="46" y="350" type="line"/>
    </contour>
    <contour>
      <point x="166" y="710" type="line"/>
      <point x="146" y="710" type="line"/>
      <point x="25" y="350" type="line"/>
      <point x="146" y="-10" type="line"/>
      <point x="166" y="-10" type="line"/>
      <point x="287" y="350" type="line"/>
    </contour>
  </outline>
</glyph>
<glyph name="uni2661" format="2">
  <advance width="764"/>
  <unicode hex="2661"/>
  <outline>
    <contour>
      <point x="407" y="0" type="curve"/>
      <point x="417" y="0" type="line"/>
      <point x="478" y="187"/>
      <point x="759" y="242"/>
      <point x="759" y="463" type="curve" smooth="yes"/>
      <point x="759" y="587"/>
      <point x="676" y="650"/>
      <point x="580" y="650" type="curve" smooth="yes"/>
      <point x="511" y="650"/>
      <point x="445" y="617"/>
      <point x="412" y="531" type="curve"/>
      <point x="379" y="617"/>
      <point x="313" y="650"/>
      <point x="244" y="650" type="curve" smooth="yes"/>
      <point x="148" y="650"/>
      <point x="65" y="587"/>
      <point x="65" y="463" type="curve" smooth="yes"/>
      <point x="65" y="242"/>
      <point x="346" y="187"/>
    </contour>
    <contour>
      <point x="412" y="39" type="curve"/>
      <point x="332" y="207"/>
      <point x="85" y="265"/>
      <point x="85" y="463" type="curve" smooth="yes"/>
      <point x="85" y="575"/>
      <point x="159" y="632"/>
      <point x="244" y="632" type="curve" smooth="yes"/>
      <point x="311" y="632"/>
      <point x="376" y="594"/>
      <point x="406" y="491" type="curve"/>
      <point x="418" y="491" type="line"/>
      <point x="448" y="594"/>
      <point x="513" y="632"/>
      <point x="580" y="632" type="curve" smooth="yes"/>
      <point x="665" y="632"/>
      <point x="739" y="575"/>
      <point x="739" y="463" type="curve" smooth="yes"/>
      <point x="739" y="265"/>
      <point x="492" y="207"/>
    </contour>
  </outline>
</glyph>
<glyph name="uni2780" format="2">
  <advance width="310"/>
  <unicode hex="2780"/>
  <outline>
    <contour>
      <point x="95" y="160" type="line"/>
      <point x="246" y="160" type="line"/>
      <point x="246" y="177" type="line"/>
      <point x="183" y="177" type="line"/>
      <point x="183" y="556" type="line"/>
      <point x="173" y="556" type="line"/>
      <point x="95" y="488" type="line"/>
      <point x="103" y="473" type="line"/>
      <point x="164" y="528" type="line"/>
      <point x="164" y="177" type="line"/>
      <point x="95" y="177" type="line"/>
    </contour>
    <contour>
      <point x="167" y="-10" type="curve" smooth="yes"/>
      <point x="244" y="-10"/>
      <point x="277" y="70"/>
      <point x="277" y="350" type="curve" smooth="yes"/>
      <point x="277" y="631"/>
      <point x="244" y="710"/>
      <point x="167" y="710" type="curve" smooth="yes"/>
      <point x="90" y="710"/>
      <point x="57" y="631"/>
      <point x="57" y="350" type="curve" smooth="yes"/>
      <point x="57" y="70"/>
      <point x="90" y="-10"/>
    </contour>
    <contour>
      <point x="167" y="693" type="curve" smooth="yes"/>
      <point x="230" y="693"/>
      <point x="260" y="615"/>
      <point x="260" y="350" type="curve" smooth="yes"/>
      <point x="260" y="86"/>
      <point x="230" y="7"/>
      <point x="167" y="7" type="curve" smooth="yes"/>
      <point x="104" y="7"/>
      <point x="74" y="86"/>
      <point x="74" y="350" type="curve" smooth="yes"/>
      <point x="74" y="615"/>
      <point x="104" y="693"/>
    </contour>
  </outline>
</glyph>
<glyph name="uni2782" format="2">
  <advance width="310"/>
  <unicode hex="2782"/>
  <outline>
    <contour>
      <point x="103" y="172" type="line"/>
      <point x="117" y="156"/>
      <point x="135" y="148"/>
      <point x="157" y="148" type="curve" smooth="yes"/>
      <point x="204" y="148"/>
      <point x="231" y="193"/>
      <point x="231" y="267" type="curve" smooth="yes"/>
      <point x="231" y="317"/>
      <point x="214" y="351"/>
      <point x="189" y="363" type="curve"/>
      <point x="214" y="380"/>
      <point x="222" y="411"/>
      <point x="222" y="457" type="curve" smooth="yes"/>
      <point x="222" y="522"/>
      <point x="195" y="558"/>
      <point x="158" y="558" type="curve" smooth="yes"/>
      <point x="140" y="558"/>
      <point x="123" y="551"/>
      <point x="111" y="538" type="curve"/>
      <point x="118" y="527" type="line"/>
      <point x="128" y="537"/>
      <point x="139" y="541"/>
      <point x="156" y="541" type="curve" smooth="yes"/>
      <point x="184" y="541"/>
      <point x="205" y="511"/>
      <point x="205" y="455" type="curve" smooth="yes"/>
      <point x="205" y="408"/>
      <point x="196" y="371"/>
      <point x="159" y="371" type="curve" smooth="yes"/>
      <point x="138" y="371" type="line"/>
      <point x="138" y="355" type="line"/>
      <point x="159" y="355" type="line" smooth="yes"/>
      <point x="193" y="355"/>
      <point x="212" y="321"/>
      <point x="212" y="267" type="curve" smooth="yes"/>
      <point x="212" y="202"/>
      <point x="192" y="165"/>
      <point x="158" y="165" type="curve" smooth="yes"/>
      <point x="137" y="165"/>
      <point x="124" y="173"/>
      <point x="112" y="184" type="curve"/>
    </contour>
    <contour>
      <point x="57" y="350" type="curve" smooth="yes"/>
      <point x="57" y="70"/>
      <point x="90" y="-10"/>
      <point x="167" y="-10" type="curve" smooth="yes"/>
      <point x="244" y="-10"/>
      <point x="277" y="70"/>
      <point x="277" y="350" type="curve" smooth="yes"/>
      <point x="277" y="631"/>
      <point x="244" y="710"/>
      <point x="167" y="710" type="curve" smooth="yes"/>
      <point x="90" y="710"/>
      <point x="57" y="631"/>
    </contour>
    <contour>
      <point x="74" y="350" type="curve" smooth="yes"/>
      <point x="74" y="615"/>
      <point x="104" y="693"/>
      <point x="167" y="693" type="curve" smooth="yes"/>
      <point x="230" y="693"/>
      <point x="260" y="615"/>
      <point x="260" y="350" type="curve" smooth="yes"/>
      <point x="260" y="86"/>
      <point x="230" y="7"/>
      <point x="167" y="7" type="curve" smooth="yes"/>
      <point x="104" y="7"/>
      <point x="74" y="86"/>
    </contour>
  </outline>
</glyph>
<glyph name="uni2783" format="2">
  <advance width="310"/>
  <unicode hex="2783"/>
  <outline>
    <contour>
      <point x="101" y="265" type="line"/>
      <point x="183" y="265" type="line"/>
      <point x="183" y="160" type="line"/>
      <point x="201" y="160" type="line"/>
      <point x="201" y="265" type="line"/>
      <point x="234" y="265" type="line"/>
      <point x="234" y="281" type="line"/>
      <point x="201" y="281" type="line"/>
      <point x="201" y="557" type="line"/>
      <point x="182" y="559" type="line"/>
      <point x="94" y="280" type="line"/>
    </contour>
    <contour>
      <point x="111" y="281" type="line"/>
      <point x="183" y="510" type="line"/>
      <point x="183" y="281" type="line"/>
    </contour>
    <contour>
      <point x="57" y="350" type="curve" smooth="yes"/>
      <point x="57" y="70"/>
      <point x="90" y="-10"/>
      <point x="167" y="-10" type="curve" smooth="yes"/>
      <point x="244" y="-10"/>
      <point x="277" y="70"/>
      <point x="277" y="350" type="curve" smooth="yes"/>
      <point x="277" y="631"/>
      <point x="244" y="710"/>
      <point x="167" y="710" type="curve" smooth="yes"/>
      <point x="90" y="710"/>
      <point x="57" y="631"/>
    </contour>
    <contour>
      <point x="74" y="350" type="curve" smooth="yes"/>
      <point x="74" y="615"/>
      <point x="104" y="693"/>
      <point x="167" y="693" type="curve" smooth="yes"/>
      <point x="230" y="693"/>
      <point x="260" y="615"/>
      <point x="260" y="350" type="curve" smooth="yes"/>
      <point x="260" y="86"/>
      <point x="230" y="7"/>
      <point x="167" y="7" type="curve" smooth="yes"/>
      <point x="104" y="7"/>
      <point x="74" y="86"/>
    </contour>
  </outline>
</glyph>
<glyph name="uni2784" format="2">
  <advance width="310"/>
  <unicode hex="2784"/>
  <outline>
    <contour>
      <point x="105" y="174" type="line"/>
      <point x="118" y="156"/>
      <point x="137" y="147"/>
      <point x="157" y="147" type="curve" smooth="yes"/>
      <point x="203" y="147"/>
      <point x="232" y="188"/>
      <point x="232" y="262" type="curve" smooth="yes"/>
      <point x="232" y="324"/>
      <point x="210" y="368"/>
      <point x="165" y="368" type="curve" smooth="yes"/>
      <point x="136" y="368" type="line"/>
      <point x="143" y="531" type="line"/>
      <point x="216" y="531" type="line"/>
      <point x="216" y="548" type="line"/>
      <point x="127" y="548" type="line"/>
      <point x="117" y="358" type="line"/>
      <point x="123" y="352" type="line"/>
      <point x="162" y="352" type="line" smooth="yes"/>
      <point x="196" y="352"/>
      <point x="213" y="314"/>
      <point x="213" y="262" type="curve" smooth="yes"/>
      <point x="213" y="198"/>
      <point x="191" y="164"/>
      <point x="156" y="164" type="curve" smooth="yes"/>
      <point x="137" y="164"/>
      <point x="124" y="174"/>
      <point x="115" y="185" type="curve"/>
    </contour>
    <contour>
      <point x="57" y="350" type="curve" smooth="yes"/>
      <point x="57" y="70"/>
      <point x="90" y="-10"/>
      <point x="167" y="-10" type="curve" smooth="yes"/>
      <point x="244" y="-10"/>
      <point x="277" y="70"/>
      <point x="277" y="350" type="curve" smooth="yes"/>
      <point x="277" y="631"/>
      <point x="244" y="710"/>
      <point x="167" y="710" type="curve" smooth="yes"/>
      <point x="90" y="710"/>
      <point x="57" y="631"/>
    </contour>
    <contour>
      <point x="74" y="350" type="curve" smooth="yes"/>
      <point x="74" y="615"/>
      <point x="104" y="693"/>
      <point x="167" y="693" type="curve" smooth="yes"/>
      <point x="230" y="693"/>
      <point x="260" y="615"/>
      <point x="260" y="350" type="curve" smooth="yes"/>
      <point x="260" y="86"/>
      <point x="230" y="7"/>
      <point x="167" y="7" type="curve" smooth="yes"/>
      <point x="104" y="7"/>
      <point x="74" y="86"/>
    </contour>
  </outline>
</glyph>
<glyph name="uni2786" format="2">
  <advance width="310"/>
  <unicode hex="2786"/>
  <outline>
    <contour>
      <point x="148" y="160" type="curve"/>
      <point x="164" y="160" type="line"/>
      <point x="164" y="252"/>
      <point x="172" y="314"/>
      <point x="194" y="398" type="curve" smooth="yes"/>
      <point x="231" y="536" type="line"/>
      <point x="231" y="550" type="line"/>
      <point x="103" y="550" type="line"/>
      <point x="103" y="533" type="line"/>
      <point x="214" y="533" type="line"/>
      <point x="180" y="406" type="line" smooth="yes"/>
      <point x="156" y="319"/>
      <point x="148" y="256"/>
    </contour>
    <contour>
      <point x="167" y="-10" type="curve" smooth="yes"/>
      <point x="244" y="-10"/>
      <point x="277" y="70"/>
      <point x="277" y="350" type="curve" smooth="yes"/>
      <point x="277" y="631"/>
      <point x="244" y="710"/>
      <point x="167" y="710" type="curve" smooth="yes"/>
      <point x="90" y="710"/>
      <point x="57" y="631"/>
      <point x="57" y="350" type="curve" smooth="yes"/>
      <point x="57" y="70"/>
      <point x="90" y="-10"/>
    </contour>
    <contour>
      <point x="167" y="693" type="curve" smooth="yes"/>
      <point x="230" y="693"/>
      <point x="260" y="615"/>
      <point x="260" y="350" type="curve" smooth="yes"/>
      <point x="260" y="86"/>
      <point x="230" y="7"/>
      <point x="167" y="7" type="curve" smooth="yes"/>
      <point x="104" y="7"/>
      <point x="74" y="86"/>
      <point x="74" y="350" type="curve" smooth="yes"/>
      <point x="74" y="615"/>
      <point x="104" y="693"/>
    </contour>
  </outline>
</glyph>
<glyph name="uni2787" format="2">
  <advance width="310"/>
  <unicode hex="2787"/>
  <outline>
    <contour>
      <point x="168" y="149" type="curve" smooth="yes"/>
      <point x="210" y="149"/>
      <point x="235" y="185"/>
      <point x="235" y="245" type="curve" smooth="yes"/>
      <point x="235" y="381"/>
      <point x="126" y="350"/>
      <point x="126" y="465" type="curve" smooth="yes"/>
      <point x="126" y="514"/>
      <point x="142" y="543"/>
      <point x="169" y="543" type="curve" smooth="yes"/>
      <point x="197" y="543"/>
      <point x="212" y="515"/>
      <point x="212" y="463" type="curve" smooth="yes"/>
      <point x="212" y="419"/>
      <point x="199" y="388"/>
      <point x="165" y="360" type="curve"/>
      <point x="175" y="351" type="line"/>
      <point x="213" y="383"/>
      <point x="228" y="417"/>
      <point x="228" y="465" type="curve" smooth="yes"/>
      <point x="228" y="522"/>
      <point x="205" y="559"/>
      <point x="169" y="559" type="curve" smooth="yes"/>
      <point x="131" y="559"/>
      <point x="109" y="523"/>
      <point x="109" y="460" type="curve" smooth="yes"/>
      <point x="109" y="343"/>
      <point x="218" y="372"/>
      <point x="218" y="245" type="curve" smooth="yes"/>
      <point x="218" y="193"/>
      <point x="200" y="164"/>
      <point x="169" y="164" type="curve" smooth="yes"/>
      <point x="137" y="164"/>
      <point x="119" y="196"/>
      <point x="119" y="253" type="curve" smooth="yes"/>
      <point x="119" y="305"/>
      <point x="135" y="342"/>
      <point x="169" y="366" type="curve"/>
      <point x="159" y="376" type="line"/>
      <point x="119" y="346"/>
      <point x="101" y="305"/>
      <point x="101" y="251" type="curve" smooth="yes"/>
      <point x="101" y="185"/>
      <point x="125" y="149"/>
    </contour>
    <contour>
      <point x="167" y="-10" type="curve" smooth="yes"/>
      <point x="244" y="-10"/>
      <point x="277" y="70"/>
      <point x="277" y="350" type="curve" smooth="yes"/>
      <point x="277" y="631"/>
      <point x="244" y="710"/>
      <point x="167" y="710" type="curve" smooth="yes"/>
      <point x="90" y="710"/>
      <point x="57" y="631"/>
      <point x="57" y="350" type="curve" smooth="yes"/>
      <point x="57" y="70"/>
      <point x="90" y="-10"/>
    </contour>
    <contour>
      <point x="167" y="693" type="curve" smooth="yes"/>
      <point x="230" y="693"/>
      <point x="260" y="615"/>
      <point x="260" y="350" type="curve" smooth="yes"/>
      <point x="260" y="86"/>
      <point x="230" y="7"/>
      <point x="167" y="7" type="curve" smooth="yes"/>
      <point x="104" y="7"/>
      <point x="74" y="86"/>
      <point x="74" y="350" type="curve" smooth="yes"/>
      <point x="74" y="615"/>
      <point x="104" y="693"/>
    </contour>
  </outline>
</glyph>
<glyph name="uni2788" format="2">
  <advance width="310"/>
  <unicode hex="2788"/>
  <outline>
    <contour>
      <point x="214" y="368" type="curve"/>
      <point x="214" y="200"/>
      <point x="189" y="163"/>
      <point x="157" y="163" type="curve" smooth="yes"/>
      <point x="144" y="163"/>
      <point x="131" y="170"/>
      <point x="119" y="180" type="curve"/>
      <point x="111" y="167" type="line"/>
      <point x="125" y="155"/>
      <point x="141" y="148"/>
      <point x="156" y="148" type="curve" smooth="yes"/>
      <point x="199" y="148"/>
      <point x="232" y="186"/>
      <point x="232" y="369" type="curve" smooth="yes"/>
      <point x="232" y="514"/>
      <point x="208" y="559"/>
      <point x="166" y="559" type="curve" smooth="yes"/>
      <point x="125" y="559"/>
      <point x="102" y="511"/>
      <point x="102" y="439" type="curve" smooth="yes"/>
      <point x="102" y="368"/>
      <point x="124" y="325"/>
      <point x="165" y="325" type="curve" smooth="yes"/>
      <point x="185" y="325"/>
      <point x="207" y="346"/>
    </contour>
    <contour>
      <point x="165" y="341" type="curve" smooth="yes"/>
      <point x="137" y="341"/>
      <point x="119" y="377"/>
      <point x="119" y="441" type="curve" smooth="yes"/>
      <point x="119" y="514"/>
      <point x="142" y="544"/>
      <point x="167" y="544" type="curve" smooth="yes"/>
      <point x="194" y="544"/>
      <point x="211" y="506"/>
      <point x="214" y="402" type="curve"/>
      <point x="205" y="363"/>
      <point x="185" y="341"/>
    </contour>
    <contour>
      <point x="167" y="-10" type="curve" smooth="yes"/>
      <point x="244" y="-10"/>
      <point x="277" y="70"/>
      <point x="277" y="350" type="curve" smooth="yes"/>
      <point x="277" y="631"/>
      <point x="244" y="710"/>
      <point x="167" y="710" type="curve" smooth="yes"/>
      <point x="90" y="710"/>
      <point x="57" y="631"/>
      <point x="57" y="350" type="curve" smooth="yes"/>
      <point x="57" y="70"/>
      <point x="90" y="-10"/>
    </contour>
    <contour>
      <point x="167" y="693" type="curve" smooth="yes"/>
      <point x="230" y="693"/>
      <point x="260" y="615"/>
      <point x="260" y="350" type="curve" smooth="yes"/>
      <point x="260" y="86"/>
      <point x="230" y="7"/>
      <point x="167" y="7" type="curve" smooth="yes"/>
      <point x="104" y="7"/>
      <point x="74" y="86"/>
      <point x="74" y="350" type="curve" smooth="yes"/>
      <point x="74" y="615"/>
      <point x="104" y="693"/>
    </contour>
  </outline>
</glyph>
<glyph name="uni278C" format="2">
  <advance width="310"/>
  <unicode hex="278C"/>
  <outline>
    <contour>
      <point x="167" y="-10" type="curve" smooth="yes"/>
      <point x="244" y="-10"/>
      <point x="277" y="70"/>
      <point x="277" y="350" type="curve" smooth="yes"/>
      <point x="277" y="631"/>
      <point x="244" y="710"/>
      <point x="167" y="710" type="curve" smooth="yes"/>
      <point x="90" y="710"/>
      <point x="57" y="631"/>
      <point x="57" y="350" type="curve" smooth="yes"/>
      <point x="57" y="70"/>
      <point x="90" y="-10"/>
    </contour>
    <contour>
      <point x="157" y="148" type="curve" smooth="yes"/>
      <point x="135" y="148"/>
      <point x="117" y="156"/>
      <point x="103" y="172" type="curve"/>
      <point x="112" y="184" type="line"/>
      <point x="124" y="173"/>
      <point x="137" y="165"/>
      <point x="158" y="165" type="curve" smooth="yes"/>
      <point x="192" y="165"/>
      <point x="212" y="202"/>
      <point x="212" y="267" type="curve" smooth="yes"/>
      <point x="212" y="321"/>
      <point x="193" y="355"/>
      <point x="159" y="355" type="curve" smooth="yes"/>
      <point x="138" y="355" type="line"/>
      <point x="138" y="371" type="line"/>
      <point x="159" y="371" type="line" smooth="yes"/>
      <point x="196" y="371"/>
      <point x="205" y="408"/>
      <point x="205" y="455" type="curve" smooth="yes"/>
      <point x="205" y="511"/>
      <point x="184" y="541"/>
      <point x="156" y="541" type="curve" smooth="yes"/>
      <point x="139" y="541"/>
      <point x="128" y="537"/>
      <point x="118" y="527" type="curve"/>
      <point x="111" y="538" type="line"/>
      <point x="123" y="551"/>
      <point x="140" y="558"/>
      <point x="158" y="558" type="curve" smooth="yes"/>
      <point x="195" y="558"/>
      <point x="222" y="522"/>
      <point x="222" y="457" type="curve" smooth="yes"/>
      <point x="222" y="411"/>
      <point x="214" y="380"/>
      <point x="189" y="363" type="curve"/>
      <point x="214" y="351"/>
      <point x="231" y="317"/>
      <point x="231" y="267" type="curve" smooth="yes"/>
      <point x="231" y="193"/>
      <point x="204" y="148"/>
    </contour>
  </outline>
</glyph>
<glyph name="uni278F" format="2">
  <advance width="310"/>
  <unicode hex="278F"/>
  <outline>
    <contour>
      <point x="167" y="-10" type="curve" smooth="yes"/>
      <point x="244" y="-10"/>
      <point x="277" y="70"/>
      <point x="277" y="350" type="curve" smooth="yes"/>
      <point x="277" y="631"/>
      <point x="244" y="710"/>
      <point x="167" y="710" type="curve" smooth="yes"/>
      <point x="90" y="710"/>
      <point x="57" y="631"/>
      <point x="57" y="350" type="curve" smooth="yes"/>
      <point x="57" y="70"/>
      <point x="90" y="-10"/>
    </contour>
    <contour>
      <point x="166" y="163" type="curve" smooth="yes"/>
      <point x="195" y="163"/>
      <point x="213" y="202"/>
      <point x="213" y="266" type="curve" smooth="yes"/>
      <point x="213" y="328"/>
      <point x="196" y="366"/>
      <point x="170" y="366" type="curve" smooth="yes"/>
      <point x="148" y="366"/>
      <point x="127" y="343"/>
      <point x="119" y="305" type="curve"/>
      <point x="122" y="206"/>
      <point x="136" y="163"/>
    </contour>
    <contour>
      <point x="167" y="148" type="curve" smooth="yes"/>
      <point x="121" y="148"/>
      <point x="101" y="205"/>
      <point x="101" y="338" type="curve" smooth="yes"/>
      <point x="101" y="491"/>
      <point x="124" y="558"/>
      <point x="177" y="558" type="curve" smooth="yes"/>
      <point x="191" y="558"/>
      <point x="208" y="551"/>
      <point x="221" y="539" type="curve"/>
      <point x="213" y="526" type="line"/>
      <point x="202" y="536"/>
      <point x="188" y="543"/>
      <point x="176" y="543" type="curve" smooth="yes"/>
      <point x="136" y="543"/>
      <point x="119" y="481"/>
      <point x="118" y="338" type="curve"/>
      <point x="125" y="359"/>
      <point x="147" y="381"/>
      <point x="172" y="381" type="curve" smooth="yes"/>
      <point x="208" y="381"/>
      <point x="231" y="337"/>
      <point x="231" y="268" type="curve" smooth="yes"/>
      <point x="231" y="194"/>
      <point x="207" y="148"/>
    </contour>
  </outline>
</glyph>
<glyph name="uni27E8" format="2">
  <advance width="161"/>
  <unicode hex="27E8"/>
  <outline>
    <contour>
      <point x="56" y="347" type="line"/>
      <point x="75" y="-3" type="line"/>
      <point x="93" y="0" type="line"/>
      <point x="74" y="350" type="line"/>
      <point x="203" y="699" type="line"/>
      <point x="187" y="703" type="line"/>
      <point x="56" y="353" type="line"/>
    </contour>
  </outline>
</glyph>
<glyph name="fl" format="2">
  <advance width="272"/>
  <unicode hex="FB02"/>
  <outline>
    <contour>
      <point x="-79" y="-220" type="curve" smooth="yes"/>
      <point x="-18" y="-220"/>
      <point x="13" y="-167"/>
      <point x="28" y="-71" type="curve" smooth="yes"/>
      <point x="113" y="465" type="line"/>
      <point x="185" y="465" type="line"/>
      <point x="188" y="484" type="line"/>
      <point x="116" y="484" type="line"/>
      <point x="144" y="662"/>
      <point x="179" y="731"/>
      <point x="242" y="731" type="curve" smooth="yes"/>
      <point x="250" y="731"/>
      <point x="257" y="730"/>
      <point x="265" y="729" type="curve"/>
      <point x="159" y="52" type="line" smooth="yes"/>
      <point x="157" y="39"/>
      <point x="156" y="30"/>
      <point x="156" y="20" type="curve" smooth="yes"/>
      <point x="156" y="4"/>
      <point x="168" y="-10"/>
      <point x="197" y="-10" type="curve" smooth="yes"/>
      <point x="211" y="-10"/>
      <point x="228" y="-7"/>
      <point x="243" y="-2" type="curve"/>
      <point x="239" y="13" type="line"/>
      <point x="222" y="8"/>
      <point x="209" y="6"/>
      <point x="200" y="6" type="curve" smooth="yes"/>
      <point x="179" y="6"/>
      <point x="174" y="13"/>
      <point x="174" y="22" type="curve" smooth="yes"/>
      <point x="174" y="30"/>
      <point x="182" y="76"/>
      <point x="182" y="76" type="curve"/>
      <point x="287" y="740" type="line"/>
      <point x="271" y="747"/>
      <point x="257" y="750"/>
      <point x="245" y="750" type="curve" smooth="yes"/>
      <point x="168" y="750"/>
      <point x="127" y="677"/>
      <point x="97" y="484" type="curve"/>
      <point x="39" y="478" type="line"/>
      <point x="37" y="465" type="line"/>
      <point x="94" y="465" type="line"/>
      <point x="10" y="-66" type="line" smooth="yes"/>
      <point x="-3" y="-148"/>
      <point x="-25" y="-203"/>
      <point x="-81" y="-203" type="curve" smooth="yes"/>
      <point x="-96" y="-203"/>
      <point x="-107" y="-201"/>
      <point x="-123" y="-196" type="curve"/>
      <point x="-127" y="-213" type="line"/>
      <point x="-113" y="-218"/>
      <point x="-98" y="-220"/>
    </contour>
  </outline>
</glyph>
<glyph name="Euro.tosf" format="2">
  <advance width="250"/>
  <outline>
    <contour>
      <point x="60" y="92" type="curve" smooth="yes"/>
      <point x="60" y="18"/>
      <point x="84" y="-10"/>
      <point x="136" y="-10" type="curve" smooth="yes"/>
      <point x="151" y="-10"/>
      <point x="167" y="-8"/>
      <point x="186" y="-3" type="curve"/>
      <point x="186" y="15" type="line"/>
      <point x="168" y="10"/>
      <point x="155" y="9"/>
      <point x="137" y="9" type="curve" smooth="yes"/>
      <point x="100" y="9"/>
      <point x="78" y="27"/>
      <point x="78" y="92" type="curve" smooth="yes"/>
      <point x="78" y="235"/>
      <point x="133" y="524"/>
      <point x="227" y="524" type="curve" smooth="yes"/>
      <point x="242" y="524"/>
      <point x="251" y="522"/>
      <point x="266" y="517" type="curve"/>
      <point x="273" y="533" type="line"/>
      <point x="256" y="539"/>
      <point x="241" y="540"/>
      <point x="228" y="540" type="curve" smooth="yes"/>
      <point x="108" y="540"/>
      <point x="60" y="224"/>
    </contour>
    <contour>
      <point x="188" y="324" type="line"/>
      <point x="191" y="342" type="line"/>
      <point x="55" y="342" type="line"/>
      <point x="51" y="324" type="line"/>
    </contour>
    <contour>
      <point x="162" y="185" type="line"/>
      <point x="165" y="203" type="line"/>
      <point x="29" y="203" type="line"/>
      <point x="25" y="185" type="line"/>
    </contour>
  </outline>
</glyph>
<glyph name="T_h.liga" format="2">
  <advance width="450"/>
  <outline>
    <contour>
      <point x="412" y="468" type="curve" smooth="yes"/>
      <point x="412" y="444"/>
      <point x="348" y="65"/>
      <point x="348" y="28" type="curve" smooth="yes"/>
      <point x="348" y="3"/>
      <point x="366" y="-10"/>
      <point x="386" y="-10" type="curve" smooth="yes"/>
      <point x="396" y="-10"/>
      <point x="406" y="-9"/>
      <point x="420" y="-2" type="curve"/>
      <point x="416" y="13" type="line"/>
      <point x="404" y="8"/>
      <point x="397" y="7"/>
      <point x="391" y="7" type="curve" smooth="yes"/>
      <point x="372" y="7"/>
      <point x="366" y="16"/>
      <point x="366" y="31" type="curve" smooth="yes"/>
      <point x="366" y="62"/>
      <point x="432" y="445"/>
      <point x="432" y="471" type="curve" smooth="yes"/>
      <point x="432" y="510"/>
      <point x="416" y="540"/>
      <point x="372" y="540" type="curve" smooth="yes"/>
      <point x="347" y="540"/>
      <point x="316" y="530"/>
      <point x="295" y="517" type="curve"/>
      <point x="324" y="700" type="line"/>
      <point x="72" y="700" type="line"/>
      <point x="69" y="681" type="line"/>
      <point x="165" y="681" type="line"/>
      <point x="57" y="0" type="line"/>
      <point x="76" y="0" type="line"/>
      <point x="184" y="681" type="line"/>
      <point x="302" y="681" type="line"/>
      <point x="195" y="0" type="line"/>
      <point x="213" y="0" type="line"/>
      <point x="291" y="496" type="line"/>
      <point x="311" y="511"/>
      <point x="345" y="522"/>
      <point x="364" y="522" type="curve" smooth="yes"/>
      <point x="403" y="522"/>
      <point x="412" y="498"/>
    </contour>
  </outline>
</glyph>
<glyph name="ae.sc" format="2">
  <advance width="359"/>
  <anchor x="136.444" y="0" name="bottom"/>
  <anchor x="254" y="600" name="top"/>
  <outline>
    <contour>
      <point x="139" y="0" type="line"/>
      <point x="296" y="0" type="line"/>
      <point x="298" y="19" type="line"/>
      <point x="161" y="19" type="line"/>
      <point x="207" y="311" type="line"/>
      <point x="325" y="311" type="line"/>
      <point x="327" y="329" type="line"/>
      <point x="210" y="329" type="line"/>
      <point x="252" y="596" type="line"/>
      <point x="381" y="596" type="line"/>
      <point x="385" y="615" type="line"/>
      <point x="231" y="615" type="line"/>
      <point x="-39" y="0" type="line"/>
      <point x="-19" y="0" type="line"/>
      <point x="66" y="194" type="line"/>
      <point x="169" y="194" type="line"/>
    </contour>
    <contour>
      <point x="227" y="562" type="line"/>
      <point x="172" y="211" type="line"/>
      <point x="73" y="211" type="line"/>
    </contour>
  </outline>
</glyph>
<glyph name="ampersand.sc" format="2">
  <advance width="300"/>
  <outline>
    <contour>
      <point x="94" y="-10" type="curve" smooth="yes"/>
      <point x="176" y="-10"/>
      <point x="246" y="138"/>
      <point x="226" y="257" type="curve"/>
      <point x="209" y="261" type="line"/>
      <point x="230" y="154"/>
      <point x="164" y="7"/>
      <point x="95" y="7" type="curve" smooth="yes"/>
      <point x="50" y="7"/>
      <point x="27" y="40"/>
      <point x="27" y="106" type="curve" smooth="yes"/>
      <point x="27" y="243"/>
      <point x="107" y="350"/>
      <point x="213" y="350" type="curve" smooth="yes"/>
      <point x="222" y="350" type="line"/>
      <point x="224" y="367" type="line"/>
      <point x="217" y="367" type="line" smooth="yes"/>
      <point x="168" y="367"/>
      <point x="141" y="406"/>
      <point x="141" y="479" type="curve" smooth="yes"/>
      <point x="141" y="551"/>
      <point x="181" y="607"/>
      <point x="230" y="607" type="curve" smooth="yes"/>
      <point x="253" y="607"/>
      <point x="269" y="601"/>
      <point x="290" y="584" type="curve"/>
      <point x="300" y="598" type="line"/>
      <point x="282" y="615"/>
      <point x="258" y="624"/>
      <point x="233" y="624" type="curve" smooth="yes"/>
      <point x="171" y="624"/>
      <point x="123" y="560"/>
      <point x="123" y="477" type="curve" smooth="yes"/>
      <point x="123" y="418"/>
      <point x="143" y="376"/>
      <point x="174" y="360" type="curve"/>
      <point x="78" y="337"/>
      <point x="9" y="233"/>
      <point x="9" y="106" type="curve" smooth="yes"/>
      <point x="9" y="31"/>
      <point x="40" y="-10"/>
    </contour>
    <contour>
      <point x="151" y="237" type="line"/>
      <point x="157" y="252"/>
      <point x="165" y="259"/>
      <point x="181" y="259" type="curve" smooth="yes"/>
      <point x="205" y="259"/>
      <point x="219" y="248"/>
      <point x="252" y="248" type="curve" smooth="yes"/>
      <point x="273" y="248"/>
      <point x="287" y="257"/>
      <point x="295" y="274" type="curve"/>
      <point x="281" y="282" type="line"/>
      <point x="275" y="269"/>
      <point x="267" y="264"/>
      <point x="252" y="264" type="curve" smooth="yes"/>
      <point x="231" y="264"/>
      <point x="205" y="275"/>
      <point x="182" y="275" type="curve" smooth="yes"/>
      <point x="160" y="275"/>
      <point x="144" y="264"/>
      <point x="136" y="244" type="curve"/>
    </contour>
  </outline>
</glyph>
<glyph name="braceright.sc" format="2">
  <advance width="172"/>
  <outline>
    <contour>
      <point x="163" y="661" type="curve" smooth="yes"/>
      <point x="163" y="706"/>
      <point x="150" y="740"/>
      <point x="118" y="740" type="curve" smooth="yes"/>
      <point x="102" y="740" type="line"/>
      <point x="99" y="720" type="line"/>
      <point x="115" y="720" type="line" smooth="yes"/>
      <point x="137" y="720"/>
      <point x="145" y="696"/>
      <point x="145" y="663" type="curve" smooth="yes"/>
      <point x="145" y="539"/>
      <point x="77" y="465"/>
      <point x="77" y="359" type="curve" smooth="yes"/>
      <point x="77" y="339"/>
      <point x="81" y="319"/>
      <point x="91" y="307" type="curve"/>
      <point x="50" y="280"/>
      <point x="47" y="188"/>
      <point x="47" y="145" type="curve" smooth="yes"/>
      <point x="47" y="120"/>
      <point x="49" y="96"/>
      <point x="49" y="71" type="curve" smooth="yes"/>
      <point x="49" y="-6"/>
      <point x="30" y="-105"/>
      <point x="-15" y="-105" type="curve" smooth="yes"/>
      <point x="-31" y="-105" type="line"/>
      <point x="-34" y="-125" type="line"/>
      <point x="-18" y="-125" type="line" smooth="yes"/>
      <point x="41" y="-125"/>
      <point x="67" y="-14"/>
      <point x="67" y="71" type="curve" smooth="yes"/>
      <point x="67" y="100"/>
      <point x="65" y="127"/>
      <point x="65" y="156" type="curve" smooth="yes"/>
      <point x="65" y="195"/>
      <point x="74" y="297"/>
      <point x="107" y="297" type="curve" smooth="yes"/>
      <point x="124" y="297" type="line"/>
      <point x="127" y="317" type="line"/>
      <point x="110" y="317" type="line" smooth="yes"/>
      <point x="98" y="317"/>
      <point x="94" y="336"/>
      <point x="94" y="359" type="curve" smooth="yes"/>
      <point x="94" y="465"/>
      <point x="163" y="528"/>
    </contour>
  </outline>
</glyph>
<glyph name="bracketleft.sc" format="2">
  <advance width="172"/>
  <outline>
    <contour>
      <point x="-2" y="-125" type="line"/>
      <point x="101" y="-125" type="line"/>
      <point x="104" y="-107" type="line"/>
      <point x="19" y="-107" type="line"/>
      <point x="150" y="722" type="line"/>
      <point x="235" y="722" type="line"/>
      <point x="238" y="740" type="line"/>
      <point x="134" y="740" type="line"/>
    </contour>
  </outline>
</glyph>
<glyph name="bracketright.sc" format="2">
  <advance width="172"/>
  <outline>
    <contour>
      <point x="-52" y="-107" type="line"/>
      <point x="-55" y="-125" type="line"/>
      <point x="48" y="-125" type="line"/>
      <point x="185" y="740" type="line"/>
      <point x="81" y="740" type="line"/>
      <point x="78" y="722" type="line"/>
      <point x="163" y="722" type="line"/>
      <point x="32" y="-107" type="line"/>
    </contour>
  </outline>
</glyph>
<glyph name="c.superior" format="2">
  <advance width="112"/>
  <outline>
    <contour>
      <point x="51" y="438" type="curve" smooth="yes"/>
      <point x="51" y="390"/>
      <point x="68" y="364"/>
      <point x="99" y="364" type="curve" smooth="yes"/>
      <point x="112" y="364"/>
      <point x="122" y="366"/>
      <point x="129" y="370" type="curve"/>
      <point x="128" y="385" type="line"/>
      <point x="122" y="382"/>
      <point x="111" y="380"/>
      <point x="101" y="380" type="curve" smooth="yes"/>
      <point x="78" y="380"/>
      <point x="68" y="398"/>
      <point x="68" y="440" type="curve" smooth="yes"/>
      <point x="68" y="559"/>
      <point x="103" y="659"/>
      <point x="146" y="659" type="curve" smooth="yes"/>
      <point x="151" y="659"/>
      <point x="159" y="656"/>
      <point x="168" y="654" type="curve"/>
      <point x="174" y="669" type="line"/>
      <point x="164" y="673"/>
      <point x="155" y="675"/>
      <point x="146" y="675" type="curve" smooth="yes"/>
      <point x="93" y="675"/>
      <point x="51" y="571"/>
    </contour>
  </outline>
</glyph>
<glyph name="commasuperior" format="2">
  <advance width="54"/>
  <outline>
    <contour>
      <point x="41" y="390" type="line"/>
      <point x="43" y="380"/>
      <point x="43" y="375"/>
      <point x="43" y="371" type="curve" smooth="yes"/>
      <point x="43" y="334"/>
      <point x="23" y="284"/>
      <point x="-4" y="264" type="curve"/>
      <point x="2" y="249" type="line"/>
      <point x="47" y="283"/>
      <point x="59" y="348"/>
      <point x="59" y="372" type="curve" smooth="yes"/>
      <point x="59" y="377"/>
      <point x="59" y="380"/>
      <point x="57" y="396" type="curve"/>
    </contour>
  </outline>
</glyph>
<glyph name="d.superior" format="2">
  <advance width="163"/>
  <outline>
    <contour>
      <point x="149" y="364" type="curve" smooth="yes"/>
      <point x="159" y="364"/>
      <point x="170" y="367"/>
      <point x="178" y="371" type="curve"/>
      <point x="172" y="385" type="line"/>
      <point x="164" y="381"/>
      <point x="156" y="379"/>
      <point x="155" y="379" type="curve" smooth="yes"/>
      <point x="146" y="379"/>
      <point x="144" y="383"/>
      <point x="144" y="390" type="curve" smooth="yes"/>
      <point x="144" y="394"/>
      <point x="207" y="788"/>
      <point x="207" y="788" type="curve"/>
      <point x="190" y="788" type="line"/>
      <point x="172" y="672" type="line"/>
      <point x="165" y="674"/>
      <point x="156" y="676"/>
      <point x="149" y="676" type="curve" smooth="yes"/>
      <point x="76" y="676"/>
      <point x="51" y="532"/>
      <point x="51" y="438" type="curve" smooth="yes"/>
      <point x="51" y="384"/>
      <point x="70" y="364"/>
      <point x="97" y="364" type="curve" smooth="yes"/>
      <point x="108" y="364"/>
      <point x="121" y="370"/>
      <point x="129" y="376" type="curve"/>
      <point x="132" y="369"/>
      <point x="138" y="364"/>
    </contour>
    <contour>
      <point x="68" y="436" type="curve" smooth="yes"/>
      <point x="68" y="520"/>
      <point x="89" y="661"/>
      <point x="150" y="661" type="curve" smooth="yes"/>
      <point x="158" y="661"/>
      <point x="162" y="660"/>
      <point x="169" y="658" type="curve"/>
      <point x="127" y="392" type="line"/>
      <point x="119" y="386"/>
      <point x="109" y="381"/>
      <point x="97" y="381" type="curve" smooth="yes"/>
      <point x="76" y="381"/>
      <point x="68" y="404"/>
    </contour>
  </outline>
</glyph>
<glyph name="dcroat.sc" format="2">
  <advance width="263"/>
  <outline>
    <contour>
      <point x="9" y="304" type="line"/>
      <point x="160" y="304" type="line"/>
      <point x="163" y="321" type="line"/>
      <point x="12" y="321" type="line"/>
    </contour>
    <component base="d.sc"/>
  </outline>
</glyph>
<glyph name="dividesuperior" format="2">
  <advance width="155"/>
  <outline>
    <contour>
      <point x="89" y="415" type="curve" smooth="yes"/>
      <point x="88" y="409"/>
      <point x="91" y="408"/>
      <point x="96" y="408" type="curve" smooth="yes"/>
      <point x="106" y="408"/>
      <point x="108" y="409"/>
      <point x="110" y="423" type="curve" smooth="yes"/>
      <point x="111" y="429"/>
      <point x="108" y="430"/>
      <point x="102" y="430" type="curve" smooth="yes"/>
      <point x="92" y="430"/>
      <point x="91" y="429"/>
    </contour>
    <contour>
      <point x="125" y="641" type="curve" smooth="yes"/>
      <point x="124" y="635"/>
      <point x="127" y="634"/>
      <point x="132" y="634" type="curve" smooth="yes"/>
      <point x="142" y="634"/>
      <point x="144" y="635"/>
      <point x="146" y="649" type="curve" smooth="yes"/>
      <point x="147" y="655"/>
      <point x="144" y="656"/>
      <point x="138" y="656" type="curve" smooth="yes"/>
      <point x="128" y="656"/>
      <point x="127" y="655"/>
    </contour>
    <contour>
      <point x="39" y="523" type="line"/>
      <point x="194" y="523" type="line"/>
      <point x="196" y="540" type="line"/>
      <point x="42" y="540" type="line"/>
    </contour>
  </outline>
</glyph>
<glyph name="dollar.tosf" format="2">
  <advance width="250"/>
  <outline>
    <contour>
      <point x="191" y="540" type="curve"/>
      <point x="206" y="635" type="line"/>
      <point x="188" y="635" type="line"/>
      <point x="173" y="539" type="line"/>
      <point x="102" y="533"/>
      <point x="71" y="460"/>
      <point x="71" y="403" type="curve" smooth="yes"/>
      <point x="71" y="291"/>
      <point x="166" y="241"/>
      <point x="166" y="139" type="curve" smooth="yes"/>
      <point x="166" y="75"/>
      <point x="130" y="9"/>
      <point x="67" y="9" type="curve" smooth="yes"/>
      <point x="46" y="9"/>
      <point x="26" y="13"/>
      <point x="7" y="23" type="curve"/>
      <point x="-3" y="5" type="line"/>
      <point x="14" y="-4"/>
      <point x="36" y="-9"/>
      <point x="59" y="-10" type="curve"/>
      <point x="44" y="-105" type="line"/>
      <point x="63" y="-105" type="line"/>
      <point x="78" y="-9" type="line"/>
      <point x="154" y="0"/>
      <point x="186" y="79"/>
      <point x="186" y="140" type="curve" smooth="yes"/>
      <point x="186" y="244"/>
      <point x="90" y="307"/>
      <point x="90" y="401" type="curve" smooth="yes"/>
      <point x="90" y="460"/>
      <point x="123" y="520"/>
      <point x="180" y="520" type="curve" smooth="yes"/>
      <point x="201" y="520"/>
      <point x="216" y="513"/>
      <point x="230" y="506" type="curve"/>
      <point x="240" y="524" type="line"/>
      <point x="228" y="532"/>
      <point x="210" y="538"/>
    </contour>
  </outline>
</glyph>
<glyph name="e.sc" format="2">
  <advance width="223"/>
  <anchor x="83" y="0" name="bottom"/>
  <anchor x="160" y="0" name="ogonek"/>
  <anchor x="169" y="600" name="top"/>
  <anchor x="67" y="600" name="topleft"/>
  <outline>
    <contour>
      <point x="3" y="0" type="line"/>
      <point x="160" y="0" type="line"/>
      <point x="162" y="19" type="line"/>
      <point x="25" y="19" type="line"/>
      <point x="71" y="311" type="line"/>
      <point x="189" y="311" type="line"/>
      <point x="191" y="329" type="line"/>
      <point x="74" y="329" type="line"/>
      <point x="116" y="596" type="line"/>
      <point x="245" y="596" type="line"/>
      <point x="249" y="615" type="line"/>
      <point x="100" y="615" type="line"/>
    </contour>
  </outline>
</glyph>
<glyph name="eng.sc" format="2">
  <advance width="279"/>
  <outline>
    <contour>
      <point x="170" y="0" type="line"/>
      <point x="157" y="-83"/>
      <point x="127" y="-109"/>
      <point x="74" y="-109" type="curve" smooth="yes"/>
      <point x="71" y="-109"/>
      <point x="68" y="-109"/>
      <point x="65" y="-109" type="curve"/>
      <point x="62" y="-128" type="line"/>
      <point x="65" y="-128"/>
      <point x="69" y="-128"/>
      <point x="72" y="-128" type="curve" smooth="yes"/>
      <point x="152" y="-128"/>
      <point x="177" y="-75"/>
      <point x="186" y="-18" type="curve" smooth="yes"/>
      <point x="287" y="615" type="line"/>
      <point x="270" y="615" type="line"/>
      <point x="182" y="67" type="line"/>
      <point x="120" y="615" type="line"/>
      <point x="100" y="615" type="line"/>
      <point x="3" y="0" type="line"/>
      <point x="22" y="0" type="line"/>
      <point x="110" y="554" type="line"/>
    </contour>
  </outline>
</glyph>
<glyph name="exclamdown.case" format="2">
  <advance width="113"/>
  <outline>
    <contour>
      <point x="98" y="476" type="line"/>
      <point x="80" y="476" type="line"/>
      <point x="5" y="0" type="line"/>
      <point x="23" y="0" type="line"/>
    </contour>
    <contour>
      <point x="137" y="690" type="curve" smooth="yes"/>
      <point x="138" y="698"/>
      <point x="137" y="700"/>
      <point x="126" y="700" type="curve" smooth="yes"/>
      <point x="110" y="700"/>
      <point x="110" y="699"/>
      <point x="107" y="676" type="curve" smooth="yes"/>
      <point x="106" y="667"/>
      <point x="109" y="666"/>
      <point x="119" y="666" type="curve" smooth="yes"/>
      <point x="133" y="666"/>
      <point x="134" y="667"/>
    </contour>
  </outline>
</glyph>
<glyph name="f.sc" format="2">
  <advance width="209"/>
  <outline>
    <contour>
      <point x="4" y="0" type="line"/>
      <point x="22" y="0" type="line"/>
      <point x="71" y="308" type="line"/>
      <point x="172" y="308" type="line"/>
      <point x="175" y="326" type="line"/>
      <point x="74" y="326" type="line"/>
      <point x="117" y="596" type="line"/>
      <point x="247" y="596" type="line"/>
      <point x="250" y="615" type="line"/>
      <point x="100" y="615" type="line"/>
    </contour>
  </outline>
</glyph>
<glyph name="f_b.liga" format="2">
  <advance width="405"/>
  <outline>
    <contour>
      <point x="-79" y="-220" type="curve" smooth="yes"/>
      <point x="-18" y="-220"/>
      <point x="13" y="-167"/>
      <point x="28" y="-71" type="curve" smooth="yes"/>
      <point x="113" y="465" type="line"/>
      <point x="185" y="465" type="line"/>
      <point x="188" y="484" type="line"/>
      <point x="116" y="484" type="line"/>
      <point x="144" y="662"/>
      <point x="179" y="731"/>
      <point x="242" y="731" type="curve" smooth="yes"/>
      <point x="250" y="731"/>
      <point x="258" y="730"/>
      <point x="266" y="729" type="curve"/>
      <point x="152" y="4" type="line"/>
      <point x="174" y="-6"/>
      <point x="191" y="-10"/>
      <point x="211" y="-10" type="curve" smooth="yes"/>
      <point x="326" y="-10"/>
      <point x="387" y="211"/>
      <point x="387" y="395" type="curve" smooth="yes"/>
      <point x="387" y="497"/>
      <point x="363" y="540"/>
      <point x="311" y="540" type="curve" smooth="yes"/>
      <point x="290" y="540"/>
      <point x="272" y="533"/>
      <point x="252" y="523" type="curve"/>
      <point x="287" y="743" type="line"/>
      <point x="271" y="748"/>
      <point x="257" y="750"/>
      <point x="245" y="750" type="curve" smooth="yes"/>
      <point x="168" y="750"/>
      <point x="127" y="677"/>
      <point x="97" y="484" type="curve"/>
      <point x="39" y="478" type="line"/>
      <point x="37" y="465" type="line"/>
      <point x="94" y="465" type="line"/>
      <point x="10" y="-66" type="line" smooth="yes"/>
      <point x="-3" y="-148"/>
      <point x="-25" y="-203"/>
      <point x="-81" y="-203" type="curve" smooth="yes"/>
      <point x="-96" y="-203"/>
      <point x="-107" y="-201"/>
      <point x="-123" y="-196" type="curve"/>
      <point x="-127" y="-213" type="line"/>
      <point x="-113" y="-218"/>
      <point x="-98" y="-220"/>
    </contour>
    <contour>
      <point x="209" y="8" type="curve" smooth="yes"/>
      <point x="196" y="8"/>
      <point x="183" y="11"/>
      <point x="172" y="17" type="curve"/>
      <point x="249" y="502" type="line"/>
      <point x="264" y="513"/>
      <point x="292" y="522"/>
      <point x="309" y="522" type="curve" smooth="yes"/>
      <point x="355" y="522"/>
      <point x="368" y="467"/>
      <point x="368" y="392" type="curve" smooth="yes"/>
      <point x="368" y="214"/>
      <point x="310" y="8"/>
    </contour>
  </outline>
</glyph>
<glyph name="f_h.liga" format="2">
  <advance width="407"/>
  <outline>
    <contour>
      <point x="-79" y="-220" type="curve" smooth="yes"/>
      <point x="-18" y="-220"/>
      <point x="13" y="-167"/>
      <point x="28" y="-71" type="curve" smooth="yes"/>
      <point x="113" y="465" type="line"/>
      <point x="185" y="465" type="line"/>
      <point x="188" y="484" type="line"/>
      <point x="116" y="484" type="line"/>
      <point x="144" y="662"/>
      <point x="179" y="731"/>
      <point x="242" y="731" type="curve" smooth="yes"/>
      <point x="250" y="731"/>
      <point x="258" y="730"/>
      <point x="266" y="729" type="curve"/>
      <point x="152" y="0" type="line"/>
      <point x="170" y="0" type="line"/>
      <point x="248" y="496" type="line"/>
      <point x="268" y="511"/>
      <point x="302" y="522"/>
      <point x="321" y="522" type="curve" smooth="yes"/>
      <point x="360" y="522"/>
      <point x="369" y="498"/>
      <point x="369" y="468" type="curve" smooth="yes"/>
      <point x="369" y="444"/>
      <point x="305" y="65"/>
      <point x="305" y="28" type="curve" smooth="yes"/>
      <point x="305" y="3"/>
      <point x="323" y="-10"/>
      <point x="343" y="-10" type="curve" smooth="yes"/>
      <point x="353" y="-10"/>
      <point x="363" y="-9"/>
      <point x="377" y="-2" type="curve"/>
      <point x="373" y="13" type="line"/>
      <point x="361" y="8"/>
      <point x="354" y="7"/>
      <point x="348" y="7" type="curve" smooth="yes"/>
      <point x="329" y="7"/>
      <point x="323" y="16"/>
      <point x="323" y="31" type="curve" smooth="yes"/>
      <point x="323" y="62"/>
      <point x="389" y="445"/>
      <point x="389" y="471" type="curve" smooth="yes"/>
      <point x="389" y="510"/>
      <point x="373" y="540"/>
      <point x="329" y="540" type="curve" smooth="yes"/>
      <point x="304" y="540"/>
      <point x="273" y="530"/>
      <point x="252" y="517" type="curve"/>
      <point x="287" y="742" type="line"/>
      <point x="271" y="748"/>
      <point x="257" y="750"/>
      <point x="245" y="750" type="curve" smooth="yes"/>
      <point x="168" y="750"/>
      <point x="127" y="677"/>
      <point x="97" y="484" type="curve"/>
      <point x="39" y="478" type="line"/>
      <point x="37" y="465" type="line"/>
      <point x="94" y="465" type="line"/>
      <point x="10" y="-66" type="line" smooth="yes"/>
      <point x="-3" y="-148"/>
      <point x="-25" y="-203"/>
      <point x="-81" y="-203" type="curve" smooth="yes"/>
      <point x="-96" y="-203"/>
      <point x="-107" y="-201"/>
      <point x="-123" y="-196" type="curve"/>
      <point x="-127" y="-213" type="line"/>
      <point x="-113" y="-218"/>
      <point x="-98" y="-220"/>
    </contour>
  </outline>
</glyph>
<glyph name="f_j.liga" format="2">
  <advance width="265"/>
  <outline>
    <contour>
      <point x="-79" y="-220" type="curve" smooth="yes"/>
      <point x="-18" y="-220"/>
      <point x="13" y="-167"/>
      <point x="28" y="-71" type="curve" smooth="yes"/>
      <point x="113" y="465" type="line"/>
      <point x="226" y="465" type="line"/>
      <point x="142" y="-66" type="line" smooth="yes"/>
      <point x="129" y="-148"/>
      <point x="111" y="-203"/>
      <point x="59" y="-203" type="curve" smooth="yes"/>
      <point x="49" y="-203"/>
      <point x="39" y="-202"/>
      <point x="31" y="-200" type="curve"/>
      <point x="27" y="-216" type="line"/>
      <point x="37" y="-219"/>
      <point x="48" y="-220"/>
      <point x="61" y="-220" type="curve" smooth="yes"/>
      <point x="118" y="-220"/>
      <point x="145" y="-168"/>
      <point x="160" y="-71" type="curve" smooth="yes"/>
      <point x="247" y="484" type="line"/>
      <point x="116" y="484" type="line"/>
      <point x="144" y="662"/>
      <point x="179" y="731"/>
      <point x="242" y="731" type="curve" smooth="yes"/>
      <point x="254" y="731"/>
      <point x="267" y="730"/>
      <point x="280" y="725" type="curve"/>
      <point x="287" y="743" type="line"/>
      <point x="271" y="748"/>
      <point x="257" y="750"/>
      <point x="245" y="750" type="curve" smooth="yes"/>
      <point x="168" y="750"/>
      <point x="127" y="677"/>
      <point x="97" y="484" type="curve"/>
      <point x="39" y="478" type="line"/>
      <point x="37" y="465" type="line"/>
      <point x="94" y="465" type="line"/>
      <point x="10" y="-66" type="line" smooth="yes"/>
      <point x="-3" y="-148"/>
      <point x="-25" y="-203"/>
      <point x="-81" y="-203" type="curve" smooth="yes"/>
      <point x="-96" y="-203"/>
      <point x="-107" y="-201"/>
      <point x="-123" y="-196" type="curve"/>
      <point x="-127" y="-213" type="line"/>
      <point x="-113" y="-218"/>
      <point x="-98" y="-220"/>
    </contour>
  </outline>
</glyph>
<glyph name="f_k.liga" format="2">
  <advance width="393"/>
  <outline>
    <contour>
      <point x="-79" y="-220" type="curve" smooth="yes"/>
      <point x="-18" y="-220"/>
      <point x="13" y="-167"/>
      <point x="28" y="-71" type="curve" smooth="yes"/>
      <point x="113" y="465" type="line"/>
      <point x="185" y="465" type="line"/>
      <point x="188" y="484" type="line"/>
      <point x="116" y="484" type="line"/>
      <point x="144" y="662"/>
      <point x="179" y="731"/>
      <point x="242" y="731" type="curve" smooth="yes"/>
      <point x="250" y="731"/>
      <point x="258" y="730"/>
      <point x="266" y="729" type="curve"/>
      <point x="151" y="0" type="line"/>
      <point x="170" y="0" type="line"/>
      <point x="287" y="743" type="line"/>
      <point x="271" y="748"/>
      <point x="257" y="750"/>
      <point x="245" y="750" type="curve" smooth="yes"/>
      <point x="168" y="750"/>
      <point x="127" y="677"/>
      <point x="97" y="484" type="curve"/>
      <point x="39" y="478" type="line"/>
      <point x="37" y="465" type="line"/>
      <point x="94" y="465" type="line"/>
      <point x="10" y="-66" type="line" smooth="yes"/>
      <point x="-3" y="-148"/>
      <point x="-25" y="-203"/>
      <point x="-81" y="-203" type="curve" smooth="yes"/>
      <point x="-96" y="-203"/>
      <point x="-107" y="-201"/>
      <point x="-123" y="-196" type="curve"/>
      <point x="-127" y="-213" type="line"/>
      <point x="-113" y="-218"/>
      <point x="-98" y="-220"/>
    </contour>
    <contour>
      <point x="355" y="-10" type="curve" smooth="yes"/>
      <point x="361" y="-10"/>
      <point x="367" y="-9"/>
      <point x="374" y="-6" type="curve"/>
      <point x="371" y="10" type="line"/>
      <point x="365" y="8"/>
      <point x="360" y="7"/>
      <point x="356" y="7" type="curve" smooth="yes"/>
      <point x="330" y="7"/>
      <point x="309" y="41"/>
      <point x="271" y="161" type="curve" smooth="yes"/>
      <point x="217" y="333" type="line"/>
      <point x="205" y="312" type="line"/>
      <point x="263" y="128" type="line" smooth="yes"/>
      <point x="297" y="19"/>
      <point x="320" y="-10"/>
    </contour>
    <contour>
      <point x="237" y="245" type="line"/>
      <point x="307" y="304"/>
      <point x="373" y="411"/>
      <point x="414" y="532" type="curve"/>
      <point x="397" y="539" type="line"/>
      <point x="353" y="414"/>
      <point x="301" y="326"/>
      <point x="232" y="264" type="curve"/>
    </contour>
  </outline>
</glyph>
<glyph name="gravecomb.case" format="2">
  <anchor x="-84" y="700" name="_top"/>
  <anchor x="-82" y="885" name="top"/>
  <outline>
    <contour>
      <point x="-84" y="736" type="line"/>
      <point x="-68" y="736" type="line"/>
      <point x="-99" y="885" type="line"/>
      <point x="-119" y="885" type="line"/>
    </contour>
  </outline>
</glyph>
<glyph name="i.sc" format="2">
  <advance width="110"/>
  <anchor x="12" y="0" name="bottom"/>
  <anchor x="20" y="0" name="ogonek"/>
  <anchor x="107" y="600" name="top"/>
  <outline>
    <contour>
      <point x="4" y="0" type="line"/>
      <point x="20" y="0" type="line"/>
      <point x="118" y="616" type="line"/>
      <point x="100" y="616" type="line"/>
    </contour>
  </outline>
</glyph>
<glyph name="i.sc.loclTRK" format="2">
  <advance width="110"/>
  <outline>
    <contour>
      <point x="136" y="781" type="curve" smooth="yes"/>
      <point x="122" y="781"/>
      <point x="122" y="779"/>
      <point x="119" y="755" type="curve" smooth="yes"/>
      <point x="118" y="747"/>
      <point x="123" y="747"/>
      <point x="129" y="747" type="curve" smooth="yes"/>
      <point x="143" y="747"/>
      <point x="143" y="749"/>
      <point x="146" y="773" type="curve" smooth="yes"/>
      <point x="147" y="781"/>
      <point x="142" y="781"/>
    </contour>
    <contour>
      <point x="4" y="0" type="line"/>
      <point x="20" y="0" type="line"/>
      <point x="118" y="616" type="line"/>
      <point x="100" y="616" type="line"/>
    </contour>
  </outline>
</glyph>
<glyph name="i.superior" format="2">
  <advance width="93"/>
  <outline>
    <contour>
      <point x="53" y="370" type="line"/>
      <point x="70" y="370" type="line"/>
      <point x="117" y="670" type="line"/>
      <point x="100" y="670" type="line"/>
    </contour>
    <contour>
      <point x="134" y="768" type="curve" smooth="yes"/>
      <point x="135" y="774"/>
      <point x="132" y="775"/>
      <point x="126" y="775" type="curve" smooth="yes"/>
      <point x="116" y="775"/>
      <point x="115" y="774"/>
      <point x="113" y="760" type="curve" smooth="yes"/>
      <point x="112" y="754"/>
      <point x="115" y="753"/>
      <point x="120" y="753" type="curve" smooth="yes"/>
      <point x="130" y="753"/>
      <point x="132" y="754"/>
    </contour>
  </outline>
</glyph>
<glyph name="k.sc" format="2">
  <advance width="238"/>
  <anchor x="96" y="0" name="bottom"/>
  <anchor x="177" y="600" name="top"/>
  <outline>
    <contour>
      <point x="3" y="0" type="line"/>
      <point x="22" y="0" type="line"/>
      <point x="119" y="615" type="line"/>
      <point x="100" y="615" type="line"/>
    </contour>
    <contour>
      <point x="176" y="-9" type="curve" smooth="yes"/>
      <point x="182" y="-9"/>
      <point x="186" y="-7"/>
      <point x="191" y="-4" type="curve"/>
      <point x="188" y="11" type="line"/>
      <point x="185" y="10"/>
      <point x="183" y="10"/>
      <point x="180" y="10" type="curve" smooth="yes"/>
      <point x="171" y="10"/>
      <point x="167" y="16"/>
      <point x="150" y="77" type="curve" smooth="yes"/>
      <point x="71" y="365" type="line"/>
      <point x="65" y="323" type="line"/>
      <point x="132" y="73" type="line" smooth="yes"/>
      <point x="152" y="-2"/>
      <point x="161" y="-9"/>
    </contour>
    <contour>
      <point x="87" y="259" type="line"/>
      <point x="128" y="318"/>
      <point x="209" y="449"/>
      <point x="261" y="620" type="curve"/>
      <point x="244" y="625" type="line"/>
      <point x="192" y="456"/>
      <point x="121" y="338"/>
      <point x="82" y="280" type="curve"/>
    </contour>
  </outline>
</glyph>
<glyph name="k.superior" format="2">
  <advance width="159"/>
  <outline>
    <contour>
      <point x="53" y="370" type="line"/>
      <point x="68" y="370" type="line"/>
      <point x="136" y="789" type="line"/>
      <point x="119" y="789" type="line"/>
    </contour>
    <contour>
      <point x="171" y="364" type="curve" smooth="yes"/>
      <point x="175" y="364"/>
      <point x="180" y="365"/>
      <point x="185" y="368" type="curve"/>
      <point x="183" y="383" type="line"/>
      <point x="178" y="381"/>
      <point x="174" y="380"/>
      <point x="171" y="380" type="curve" smooth="yes"/>
      <point x="155" y="380"/>
      <point x="142" y="411"/>
      <point x="122" y="481" type="curve" smooth="yes"/>
      <point x="97" y="566" type="line"/>
      <point x="88" y="540" type="line"/>
      <point x="108" y="472" type="line" smooth="yes"/>
      <point x="133" y="388"/>
      <point x="144" y="364"/>
    </contour>
    <contour>
      <point x="108" y="511" type="line"/>
      <point x="146" y="544"/>
      <point x="187" y="606"/>
      <point x="208" y="674" type="curve"/>
      <point x="194" y="678" type="line"/>
      <point x="168" y="605"/>
      <point x="139" y="560"/>
      <point x="104" y="527" type="curve"/>
    </contour>
  </outline>
</glyph>
<glyph name="ldot.sc" format="2">
  <advance width="190"/>
  <outline>
    <contour>
      <point x="141" y="308" type="curve" smooth="yes"/>
      <point x="139" y="294"/>
      <point x="140" y="291"/>
      <point x="152" y="291" type="curve" smooth="yes"/>
      <point x="164" y="291"/>
      <point x="165" y="292"/>
      <point x="167" y="308" type="curve" smooth="yes"/>
      <point x="169" y="321"/>
      <point x="169" y="325"/>
      <point x="157" y="325" type="curve" smooth="yes"/>
      <point x="145" y="325"/>
      <point x="143" y="324"/>
    </contour>
    <contour>
      <point x="3" y="0" type="line"/>
      <point x="137" y="0" type="line"/>
      <point x="141" y="18" type="line"/>
      <point x="25" y="18" type="line"/>
      <point x="119" y="615" type="line"/>
      <point x="100" y="615" type="line"/>
    </contour>
  </outline>
</glyph>
<glyph name="lslash.sc" format="2">
  <advance width="187"/>
  <outline>
    <contour>
      <point x="-10" y="157" type="line"/>
      <point x="32" y="207" type="line"/>
      <point x="0" y="0" type="line"/>
      <point x="134" y="0" type="line"/>
      <point x="138" y="18" type="line"/>
      <point x="22" y="18" type="line"/>
      <point x="56" y="235" type="line"/>
      <point x="166" y="366" type="line"/>
      <point x="170" y="396" type="line"/>
      <point x="61" y="267" type="line"/>
      <point x="116" y="615" type="line"/>
      <point x="97" y="615" type="line"/>
      <point x="37" y="238" type="line"/>
      <point x="-2" y="192" type="line"/>
    </contour>
  </outline>
</glyph>
<glyph name="multiplysuperior" format="2">
  <advance width="156"/>
  <outline>
    <contour>
      <point x="46" y="404" type="line"/>
      <point x="116" y="511" type="line"/>
      <point x="150" y="404" type="line"/>
      <point x="167" y="411" type="line"/>
      <point x="127" y="530" type="line"/>
      <point x="206" y="652" type="line"/>
      <point x="190" y="659" type="line"/>
      <point x="120" y="552" type="line"/>
      <point x="86" y="659" type="line"/>
      <point x="69" y="652" type="line"/>
      <point x="108" y="533" type="line"/>
      <point x="31" y="411" type="line"/>
    </contour>
  </outline>
</glyph>
<glyph name="one.lf" format="2">
  <advance width="193"/>
  <outline>
    <contour>
      <point x="98" y="0" type="line"/>
      <point x="209" y="700" type="line"/>
      <point x="198" y="700" type="line"/>
      <point x="55" y="580" type="line"/>
      <point x="65" y="566" type="line"/>
      <point x="184" y="665" type="line"/>
      <point x="79" y="0" type="line"/>
    </contour>
  </outline>
</glyph>
<glyph name="p.superior" format="2">
  <advance width="164"/>
  <outline>
    <contour>
      <point x="116" y="675" type="line"/>
      <point x="102" y="675" type="line"/>
      <point x="35" y="253" type="line"/>
      <point x="52" y="253" type="line"/>
      <point x="70" y="367" type="line"/>
      <point x="77" y="365"/>
      <point x="83" y="364"/>
      <point x="91" y="364" type="curve" smooth="yes"/>
      <point x="157" y="364"/>
      <point x="193" y="486"/>
      <point x="193" y="590" type="curve" smooth="yes"/>
      <point x="193" y="650"/>
      <point x="178" y="675"/>
      <point x="147" y="675" type="curve" smooth="yes"/>
      <point x="138" y="675"/>
      <point x="125" y="671"/>
      <point x="117" y="667" type="curve"/>
    </contour>
    <contour>
      <point x="115" y="650" type="line"/>
      <point x="123" y="655"/>
      <point x="137" y="660"/>
      <point x="146" y="660" type="curve" smooth="yes"/>
      <point x="170" y="660"/>
      <point x="176" y="629"/>
      <point x="176" y="588" type="curve" smooth="yes"/>
      <point x="176" y="474"/>
      <point x="142" y="381"/>
      <point x="90" y="381" type="curve" smooth="yes"/>
      <point x="83" y="381"/>
      <point x="80" y="381"/>
      <point x="73" y="384" type="curve"/>
    </contour>
  </outline>
</glyph>
<glyph name="parenleft.sc" format="2">
  <advance width="172"/>
  <outline>
    <contour>
      <point x="45" y="67" type="curve" smooth="yes"/>
      <point x="45" y="-33"/>
      <point x="61" y="-101"/>
      <point x="90" y="-126" type="curve"/>
      <point x="102" y="-109" type="line"/>
      <point x="77" y="-88"/>
      <point x="64" y="-31"/>
      <point x="64" y="78" type="curve" smooth="yes"/>
      <point x="64" y="249"/>
      <point x="136" y="668"/>
      <point x="240" y="732" type="curve"/>
      <point x="234" y="750" type="line"/>
      <point x="114" y="677"/>
      <point x="45" y="255"/>
    </contour>
  </outline>
</glyph>
<glyph name="periodsuperior" format="2">
  <advance width="48"/>
  <outline>
    <contour>
      <point x="30" y="374" type="curve" smooth="yes"/>
      <point x="29" y="368"/>
      <point x="32" y="367"/>
      <point x="37" y="367" type="curve" smooth="yes"/>
      <point x="47" y="367"/>
      <point x="49" y="368"/>
      <point x="51" y="382" type="curve" smooth="yes"/>
      <point x="52" y="388"/>
      <point x="49" y="389"/>
      <point x="43" y="389" type="curve" smooth="yes"/>
      <point x="33" y="389"/>
      <point x="32" y="388"/>
    </contour>
  </outline>
</glyph>
<glyph name="q.sc" format="2">
  <advance width="272"/>
  <outline>
    <contour>
      <point x="110" y="0" type="curve"/>
      <point x="92" y="-2" type="line"/>
      <point x="91" y="-141"/>
      <point x="133" y="-180"/>
      <point x="189" y="-180" type="curve" smooth="yes"/>
      <point x="202" y="-180"/>
      <point x="219" y="-179"/>
      <point x="235" y="-173" type="curve"/>
      <point x="231" y="-156" type="line"/>
      <point x="219" y="-160"/>
      <point x="204" y="-162"/>
      <point x="191" y="-162" type="curve" smooth="yes"/>
      <point x="149" y="-162"/>
      <point x="109" y="-138"/>
    </contour>
    <component base="o.sc"/>
  </outline>
</glyph>
<glyph name="questiondown.case" format="2">
  <advance width="212"/>
  <outline>
    <contour>
      <point x="152" y="476" type="line"/>
      <point x="134" y="476" type="line"/>
      <point x="122" y="398" type="line"/>
      <point x="43" y="312"/>
      <point x="-13" y="254"/>
      <point x="-13" y="108" type="curve" smooth="yes"/>
      <point x="-13" y="27"/>
      <point x="21" y="-10"/>
      <point x="65" y="-10" type="curve" smooth="yes"/>
      <point x="98" y="-10"/>
      <point x="131" y="11"/>
      <point x="161" y="43" type="curve"/>
      <point x="152" y="56" type="line"/>
      <point x="120" y="23"/>
      <point x="92" y="9"/>
      <point x="68" y="9" type="curve" smooth="yes"/>
      <point x="30" y="9"/>
      <point x="6" y="48"/>
      <point x="6" y="111" type="curve" smooth="yes"/>
      <point x="6" y="226"/>
      <point x="46" y="298"/>
      <point x="138" y="389" type="curve"/>
    </contour>
    <contour>
      <point x="190" y="690" type="curve" smooth="yes"/>
      <point x="191" y="698"/>
      <point x="190" y="700"/>
      <point x="179" y="700" type="curve" smooth="yes"/>
      <point x="163" y="700"/>
      <point x="163" y="699"/>
      <point x="160" y="676" type="curve" smooth="yes"/>
      <point x="159" y="667"/>
      <point x="162" y="666"/>
      <point x="172" y="666" type="curve" smooth="yes"/>
      <point x="186" y="666"/>
      <point x="187" y="667"/>
    </contour>
  </outline>
</glyph>
<glyph name="s.sc" format="2">
  <advance width="210"/>
  <anchor x="51" y="0" name="bottom"/>
  <anchor x="163" y="600" name="top"/>
  <outline>
    <contour>
      <point x="228.0" y="609.0" type="line"/>
      <point x="216.0" y="617.0"/>
      <point x="195.0" y="623.0"/>
      <point x="172.0" y="623.0" type="curve" smooth="yes"/>
      <point x="105.0" y="623.0"/>
      <point x="61.0" y="569.0"/>
      <point x="61.0" y="473.0" type="curve" smooth="yes"/>
      <point x="61.0" y="357.0"/>
      <point x="147.0" y="262.0"/>
      <point x="147.0" y="147.0" type="curve" smooth="yes"/>
      <point x="147.0" y="83.0"/>
      <point x="116.0" y="8.0"/>
      <point x="47.0" y="8.0" type="curve" smooth="yes"/>
      <point x="25.0" y="8.0"/>
      <point x="6.0" y="10.0"/>
      <point x="-10.0" y="20.0" type="curve"/>
      <point x="-20.0" y="4.0" type="line"/>
      <point x="-8.0" y="-4.0"/>
      <point x="17.0" y="-10.0"/>
      <point x="43.0" y="-10.0" type="curve" smooth="yes"/>
      <point x="136.0" y="-10.0"/>
      <point x="165.0" y="84.0"/>
      <point x="165.0" y="151.0" type="curve" smooth="yes"/>
      <point x="165.0" y="266.0"/>
      <point x="79.0" y="364.0"/>
      <point x="79.0" y="475.0" type="curve" smooth="yes"/>
      <point x="79.0" y="567.0"/>
      <point x="122.0" y="607.0"/>
      <point x="171.0" y="607.0" type="curve" smooth="yes"/>
      <point x="194.0" y="607.0"/>
      <point x="207.0" y="602.0"/>
      <point x="219.0" y="595.0" type="curve"/>
    </contour>
  </outline>
</glyph>
<glyph name="t.superior" format="2">
  <advance width="106"/>
  <outline>
    <contour>
      <point x="113" y="658" type="line"/>
      <point x="170" y="658" type="line"/>
      <point x="172" y="674" type="line"/>
      <point x="116" y="674" type="line"/>
      <point x="128" y="751" type="line"/>
      <point x="113" y="751" type="line"/>
      <point x="99" y="674" type="line"/>
      <point x="70" y="671" type="line"/>
      <point x="68" y="658" type="line"/>
      <point x="96" y="658" type="line"/>
      <point x="61" y="434" type="line" smooth="yes"/>
      <point x="59" y="422"/>
      <point x="59" y="414"/>
      <point x="59" y="407" type="curve" smooth="yes"/>
      <point x="59" y="382"/>
      <point x="69" y="364"/>
      <point x="101" y="364" type="curve" smooth="yes"/>
      <point x="109" y="364"/>
      <point x="118" y="365"/>
      <point x="129" y="369" type="curve"/>
      <point x="124" y="385" type="line"/>
      <point x="114" y="382"/>
      <point x="107" y="381"/>
      <point x="103" y="381" type="curve" smooth="yes"/>
      <point x="84" y="381"/>
      <point x="76" y="390"/>
      <point x="76" y="410" type="curve" smooth="yes"/>
      <point x="76" y="415"/>
      <point x="76" y="419"/>
      <point x="77" y="427" type="curve" smooth="yes"/>
    </contour>
  </outline>
</glyph>
<glyph name="tbar.sc" format="2">
  <advance width="195"/>
  <outline>
    <contour>
      <point x="242" y="597" type="line"/>
      <point x="244" y="615" type="line"/>
      <point x="58" y="615" type="line"/>
      <point x="55" y="597" type="line"/>
      <point x="138" y="597" type="line"/>
      <point x="97" y="339" type="line"/>
      <point x="34" y="339" type="line"/>
      <point x="31" y="321" type="line"/>
      <point x="94" y="321" type="line"/>
      <point x="43" y="0" type="line"/>
      <point x="62" y="0" type="line"/>
      <point x="113" y="321" type="line"/>
      <point x="177" y="321" type="line"/>
      <point x="180" y="339" type="line"/>
      <point x="116" y="339" type="line"/>
      <point x="157" y="597" type="line"/>
    </contour>
  </outline>
</glyph>
<glyph name="tildecomb.loclVIT" format="2">
  <anchor x="-80" y="530" name="_top"/>
  <anchor x="-79" y="739" name="top"/>
  <outline>
    <contour>
      <point x="-169" y="639" type="curve"/>
      <point x="-154" y="639" type="line"/>
      <point x="-154" y="642"/>
      <point x="-154" y="646"/>
      <point x="-154" y="649" type="curve" smooth="yes"/>
      <point x="-154" y="692"/>
      <point x="-136" y="732"/>
      <point x="-116" y="732" type="curve" smooth="yes"/>
      <point x="-84" y="732"/>
      <point x="-105" y="639"/>
      <point x="-59" y="639" type="curve" smooth="yes"/>
      <point x="-27" y="639"/>
      <point x="-4" y="686"/>
      <point x="-4" y="750" type="curve" smooth="yes"/>
      <point x="-4" y="752"/>
      <point x="-4" y="753"/>
      <point x="-4" y="755" type="curve"/>
      <point x="-19" y="755" type="line"/>
      <point x="-19" y="752"/>
      <point x="-19" y="750"/>
      <point x="-19" y="747" type="curve" smooth="yes"/>
      <point x="-19" y="702"/>
      <point x="-38" y="657"/>
      <point x="-57" y="657" type="curve" smooth="yes"/>
      <point x="-89" y="657"/>
      <point x="-67" y="748"/>
      <point x="-113" y="748" type="curve" smooth="yes"/>
      <point x="-145" y="748"/>
      <point x="-169" y="707"/>
      <point x="-169" y="652" type="curve" smooth="yes"/>
      <point x="-169" y="648"/>
      <point x="-169" y="643"/>
    </contour>
  </outline>
</glyph>
<glyph name="uni0163.sc" format="2">
  <advance width="195"/>
  <outline>
    <contour>
      <point x="-19" y="-210" type="line"/>
      <point x="-9" y="-218"/>
      <point x="3" y="-220"/>
      <point x="12" y="-220" type="curve" smooth="yes"/>
      <point x="55" y="-220"/>
      <point x="72" y="-162"/>
      <point x="72" y="-109" type="curve" smooth="yes"/>
      <point x="72" y="-73"/>
      <point x="67" y="-34"/>
      <point x="61" y="0" type="curve"/>
      <point x="43" y="0" type="line"/>
      <point x="49" y="-40"/>
      <point x="54" y="-77"/>
      <point x="54" y="-108" type="curve" smooth="yes"/>
      <point x="54" y="-167"/>
      <point x="37" y="-203"/>
      <point x="12" y="-203" type="curve" smooth="yes"/>
      <point x="4" y="-203"/>
      <point x="-4" y="-200"/>
      <point x="-11" y="-195" type="curve"/>
    </contour>
    <component base="t.sc"/>
  </outline>
</glyph>
<glyph name="uni0237.short" format="2">
  <advance width="124"/>
  <note>
idem /i
12
</note>
  <anchor x="-86" y="-210" name="bottom"/>
  <anchor x="106" y="530" name="top"/>
  <outline>
    <contour>
      <point x="116" y="530" type="line"/>
      <point x="97" y="530" type="line"/>
      <point x="3" y="-66" type="line" smooth="yes"/>
      <point x="-10" y="-148"/>
      <point x="-24" y="-203"/>
      <point x="-70" y="-203" type="curve" smooth="yes"/>
      <point x="-82" y="-203"/>
      <point x="-91" y="-202"/>
      <point x="-104" y="-199" type="curve"/>
      <point x="-108" y="-216" type="line"/>
      <point x="-96" y="-219"/>
      <point x="-84" y="-220"/>
      <point x="-71" y="-220" type="curve" smooth="yes"/>
      <point x="-17" y="-220"/>
      <point x="6" y="-168"/>
      <point x="21" y="-71" type="curve" smooth="yes"/>
    </contour>
  </outline>
</glyph>
<glyph name="uni0306.case" format="2">
  <anchor x="-84" y="700" name="_top"/>
  <anchor x="-61" y="856" name="top"/>
  <outline>
    <contour>
      <point x="-76" y="764" type="curve" smooth="yes"/>
      <point x="-22" y="764"/>
      <point x="6" y="801"/>
      <point x="17" y="885" type="curve"/>
      <point x="2" y="885" type="line"/>
      <point x="-6" y="820"/>
      <point x="-34" y="781"/>
      <point x="-73" y="781" type="curve" smooth="yes"/>
      <point x="-105" y="781"/>
      <point x="-120" y="802"/>
      <point x="-120" y="845" type="curve" smooth="yes"/>
      <point x="-120" y="861"/>
      <point x="-119" y="873"/>
      <point x="-116" y="885" type="curve"/>
      <point x="-131" y="885" type="line"/>
      <point x="-134" y="874"/>
      <point x="-136" y="855"/>
      <point x="-136" y="838" type="curve" smooth="yes"/>
      <point x="-136" y="787"/>
      <point x="-117" y="764"/>
    </contour>
  </outline>
</glyph>
<glyph name="uni030B.case" format="2">
  <anchor x="-84" y="700" name="_top"/>
  <anchor x="-34" y="885" name="top"/>
  <outline>
    <contour>
      <point x="-61" y="736" type="line"/>
      <point x="-44" y="736" type="line"/>
      <point x="37" y="885" type="line"/>
      <point x="16" y="885" type="line"/>
    </contour>
    <contour>
      <point x="-128" y="736" type="line"/>
      <point x="-111" y="736" type="line"/>
      <point x="-30" y="885" type="line"/>
      <point x="-51" y="885" type="line"/>
    </contour>
  </outline>
</glyph>
<glyph name="uni030F.case" format="2">
  <anchor x="-84" y="700" name="_top"/>
  <anchor x="-82" y="885" name="top"/>
  <outline>
    <contour>
      <point x="-115" y="736" type="line"/>
      <point x="-100" y="736" type="line"/>
      <point x="-132" y="885" type="line"/>
      <point x="-152" y="885" type="line"/>
    </contour>
    <contour>
      <point x="-53" y="736" type="line"/>
      <point x="-38" y="736" type="line"/>
      <point x="-70" y="885" type="line"/>
      <point x="-90" y="885" type="line"/>
    </contour>
  </outline>
</glyph>
<glyph name="v.superior" format="2">
  <advance width="126"/>
  <outline>
    <contour>
      <point x="162" y="670" type="line"/>
      <point x="155" y="588"/>
      <point x="114" y="486"/>
      <point x="87" y="404" type="curve"/>
      <point x="87" y="670" type="line"/>
      <point x="70" y="670" type="line"/>
      <point x="73" y="366" type="line"/>
      <point x="90" y="366" type="line"/>
      <point x="167" y="584"/>
      <point x="179" y="628"/>
      <point x="179" y="670" type="curve"/>
    </contour>
  </outline>
</glyph>
<glyph name="w.superior" format="2">
  <advance width="222"/>
  <outline>
    <contour>
      <point x="255" y="672" type="line"/>
      <point x="246" y="583"/>
      <point x="216" y="502"/>
      <point x="192" y="420" type="curve"/>
      <point x="181" y="639" type="line"/>
      <point x="166" y="639" type="line"/>
      <point x="147" y="573"/>
      <point x="118" y="485"/>
      <point x="97" y="417" type="curve"/>
      <point x="86" y="672" type="line"/>
      <point x="70" y="672" type="line"/>
      <point x="83" y="366" type="line"/>
      <point x="99" y="366" type="line"/>
      <point x="119" y="434"/>
      <point x="147" y="520"/>
      <point x="167" y="588" type="curve"/>
      <point x="178" y="366" type="line"/>
      <point x="193" y="366" type="line"/>
      <point x="261" y="591"/>
      <point x="268" y="614"/>
      <point x="272" y="672" type="curve"/>
    </contour>
  </outline>
</glyph>
<glyph name="x.superior" format="2">
  <advance width="122"/>
  <outline>
    <contour>
      <point x="152" y="674" type="line"/>
      <point x="152" y="627"/>
      <point x="122" y="573"/>
      <point x="105" y="541" type="curve"/>
      <point x="75" y="676" type="line"/>
      <point x="58" y="674" type="line"/>
      <point x="92" y="524" type="line"/>
      <point x="64" y="477"/>
      <point x="36" y="418"/>
      <point x="34" y="370" type="curve"/>
      <point x="51" y="370" type="line"/>
      <point x="51" y="417"/>
      <point x="78" y="469"/>
      <point x="96" y="500" type="curve"/>
      <point x="125" y="369" type="line"/>
      <point x="142" y="371" type="line"/>
      <point x="110" y="517" type="line"/>
      <point x="128" y="550"/>
      <point x="169" y="617"/>
      <point x="169" y="674" type="curve"/>
    </contour>
  </outline>
</glyph>
<glyph name="y.superior" format="2">
  <advance width="127"/>
  <outline>
    <contour>
      <point x="67" y="673" type="line"/>
      <point x="81" y="369" type="line"/>
      <point x="84" y="369" type="line"/>
      <point x="72" y="332"/>
      <point x="54" y="289"/>
      <point x="31" y="246" type="curve"/>
      <point x="46" y="239" type="line"/>
      <point x="97" y="334"/>
      <point x="154" y="515"/>
      <point x="183" y="672" type="curve"/>
      <point x="165" y="675" type="line"/>
      <point x="147" y="579"/>
      <point x="124" y="484"/>
      <point x="97" y="403" type="curve"/>
      <point x="83" y="674" type="line"/>
    </contour>
  </outline>
</glyph>
<glyph name="z.sc" format="2">
  <advance width="220"/>
  <anchor x="69" y="0" name="bottom"/>
  <anchor x="112" y="308" name="center"/>
  <anchor x="166" y="600" name="top"/>
  <outline>
    <contour>
      <point x="-26" y="0" type="line"/>
      <point x="164" y="0" type="line"/>
      <point x="166" y="18" type="line"/>
      <point x="-2" y="18" type="line"/>
      <point x="248" y="602" type="line"/>
      <point x="250" y="615" type="line"/>
      <point x="89" y="615" type="line"/>
      <point x="86" y="599" type="line"/>
      <point x="227" y="599" type="line"/>
      <point x="-24" y="13" type="line"/>
    </contour>
  </outline>
</glyph>
